999
"DXF R12 Output" (www.mydxf.blogspot.com)
 0 
SECTION
 2 
HEADER
 9 
$ACADVER
 1 
AC1009
 9 
$EXTMIN
 10 
 0 
 20 
 0 
 9 
$EXTMAX
 10 
 8.5 
 20 
 11 
 0 
ENDSEC
 0 
SECTION
 2 
ENTITIES
0
POLYLINE
8
Layer 1
62
7
70
1
10
0.000000
20
0.000000
66
1
0
VERTEX
8
Layer 1
10
161.925000
20
328.613000
70
0
0
VERTEX
8
Layer 1
10
164.245824
20
327.282902
70
0
0
VERTEX
8
Layer 1
10
166.472520
20
325.801806
70
0
0
VERTEX
8
Layer 1
10
167.058789
20
325.384325
70
0
0
VERTEX
8
Layer 1
10
171.165549
20
322.269882
70
0
0
VERTEX
8
Layer 1
10
175.135547
20
318.982592
70
0
0
VERTEX
8
Layer 1
10
177.353496
20
317.169785
70
0
0
VERTEX
8
Layer 1
10
181.501881
20
313.443661
70
0
0
VERTEX
8
Layer 1
10
184.314561
20
310.855515
70
0
0
VERTEX
8
Layer 1
10
188.419473
20
306.916160
70
0
0
VERTEX
8
Layer 1
10
189.160048
20
306.176353
70
0
0
VERTEX
8
Layer 1
10
190.696140
20
304.638848
70
0
0
VERTEX
8
Layer 1
10
192.649354
20
302.686579
70
0
0
VERTEX
8
Layer 1
10
194.537955
20
300.797679
70
0
0
VERTEX
8
Layer 1
10
195.237956
20
300.099301
70
0
0
VERTEX
8
Layer 1
10
198.574748
20
296.524164
70
0
0
VERTEX
8
Layer 1
10
200.521045
20
294.399111
70
0
0
VERTEX
8
Layer 1
10
203.901713
20
290.464472
70
0
0
VERTEX
8
Layer 1
10
206.126897
20
287.982973
70
0
0
VERTEX
8
Layer 1
10
209.268821
20
284.321186
70
0
0
VERTEX
8
Layer 1
10
211.286266
20
281.897564
70
0
0
VERTEX
8
Layer 1
10
214.136734
20
278.384605
70
0
0
VERTEX
8
Layer 1
10
215.585740
20
276.556295
70
0
0
VERTEX
8
Layer 1
10
220.701125
20
269.968460
70
0
0
VERTEX
8
Layer 1
10
225.607338
20
263.223534
70
0
0
VERTEX
8
Layer 1
10
226.743701
20
261.625959
70
0
0
VERTEX
8
Layer 1
10
230.958478
20
255.509947
70
0
0
VERTEX
8
Layer 1
10
235.000811
20
249.283049
70
0
0
VERTEX
8
Layer 1
10
238.884369
20
242.955644
70
0
0
VERTEX
8
Layer 1
10
242.622815
20
236.538116
70
0
0
VERTEX
8
Layer 1
10
242.995660
20
235.884410
70
0
0
VERTEX
8
Layer 1
10
247.667197
20
227.197613
70
0
0
VERTEX
8
Layer 1
10
251.883220
20
218.281889
70
0
0
VERTEX
8
Layer 1
10
252.247797
20
217.456747
70
0
0
VERTEX
8
Layer 1
10
255.199197
20
210.250593
70
0
0
VERTEX
8
Layer 1
10
257.735726
20
202.929249
70
0
0
VERTEX
8
Layer 1
10
259.818394
20
195.471178
70
0
0
VERTEX
8
Layer 1
10
261.408208
20
187.854844
70
0
0
VERTEX
8
Layer 1
10
261.520604
20
187.206047
70
0
0
VERTEX
8
Layer 1
10
261.937374
20
183.621516
70
0
0
VERTEX
8
Layer 1
10
261.989955
20
182.917555
70
0
0
VERTEX
8
Layer 1
10
262.172020
20
177.584577
70
0
0
VERTEX
8
Layer 1
10
261.903175
20
172.276336
70
0
0
VERTEX
8
Layer 1
10
261.563987
20
169.646464
70
0
0
VERTEX
8
Layer 1
10
261.069263
20
167.040743
70
0
0
VERTEX
8
Layer 1
10
260.404733
20
164.465162
70
0
0
VERTEX
8
Layer 1
10
259.556127
20
161.925710
70
0
0
VERTEX
8
Layer 1
10
261.980379
20
163.776733
70
0
0
VERTEX
8
Layer 1
10
264.316129
20
165.740244
70
0
0
VERTEX
8
Layer 1
10
268.816532
20
169.863200
70
0
0
VERTEX
8
Layer 1
10
269.359134
20
170.371695
70
0
0
VERTEX
8
Layer 1
10
271.277612
20
172.433899
70
0
0
VERTEX
8
Layer 1
10
273.049860
20
174.625694
70
0
0
VERTEX
8
Layer 1
10
273.380460
20
175.042593
70
0
0
VERTEX
8
Layer 1
10
276.929342
20
180.031276
70
0
0
VERTEX
8
Layer 1
10
280.047023
20
185.339276
70
0
0
VERTEX
8
Layer 1
10
282.790632
20
190.900876
70
0
0
VERTEX
8
Layer 1
10
285.217301
20
196.650359
70
0
0
VERTEX
8
Layer 1
10
287.384162
20
202.522007
70
0
0
VERTEX
8
Layer 1
10
289.348345
20
208.450105
70
0
0
VERTEX
8
Layer 1
10
292.897202
20
220.212776
70
0
0
VERTEX
8
Layer 1
10
293.145213
20
221.052425
70
0
0
VERTEX
8
Layer 1
10
293.602524
20
222.611525
70
0
0
VERTEX
8
Layer 1
10
295.010249
20
226.748545
70
0
0
VERTEX
8
Layer 1
10
295.463834
20
226.175176
70
0
0
VERTEX
8
Layer 1
10
295.766828
20
225.556700
70
0
0
VERTEX
8
Layer 1
10
296.183303
20
224.185397
70
0
0
VERTEX
8
Layer 1
10
296.370545
20
223.550210
70
0
0
VERTEX
8
Layer 1
10
296.978085
20
221.456885
70
0
0
VERTEX
8
Layer 1
10
297.190330
20
220.725123
70
0
0
VERTEX
8
Layer 1
10
300.895447
20
207.240455
70
0
0
VERTEX
8
Layer 1
10
302.570535
20
200.436562
70
0
0
VERTEX
8
Layer 1
10
304.087428
20
193.594728
70
0
0
VERTEX
8
Layer 1
10
305.416213
20
186.717277
70
0
0
VERTEX
8
Layer 1
10
306.526981
20
179.806531
70
0
0
VERTEX
8
Layer 1
10
307.389819
20
172.864816
70
0
0
VERTEX
8
Layer 1
10
307.974816
20
165.894455
70
0
0
VERTEX
8
Layer 1
10
308.007929
20
165.384385
70
0
0
VERTEX
8
Layer 1
10
308.234255
20
160.093924
70
0
0
VERTEX
8
Layer 1
10
308.289008
20
154.798505
70
0
0
VERTEX
8
Layer 1
10
308.288524
20
153.972265
70
0
0
VERTEX
8
Layer 1
10
308.172084
20
147.489941
70
0
0
VERTEX
8
Layer 1
10
307.710233
20
141.023653
70
0
0
VERTEX
8
Layer 1
10
307.606880
20
140.058855
70
0
0
VERTEX
8
Layer 1
10
306.516442
20
132.292631
70
0
0
VERTEX
8
Layer 1
10
304.987862
20
124.689989
70
0
0
VERTEX
8
Layer 1
10
303.025429
20
117.246263
70
0
0
VERTEX
8
Layer 1
10
300.633432
20
109.956784
70
0
0
VERTEX
8
Layer 1
10
297.816160
20
102.816884
70
0
0
VERTEX
8
Layer 1
10
294.577903
20
95.821897
70
0
0
VERTEX
8
Layer 1
10
290.922950
20
88.967153
70
0
0
VERTEX
8
Layer 1
10
286.855589
20
82.247986
70
0
0
VERTEX
8
Layer 1
10
285.749844
20
80.434146
70
0
0
VERTEX
8
Layer 1
10
288.473171
20
80.716717
70
0
0
VERTEX
8
Layer 1
10
291.152818
20
81.148170
70
0
0
VERTEX
8
Layer 1
10
296.380888
20
82.429186
70
0
0
VERTEX
8
Layer 1
10
301.433683
20
84.220111
70
0
0
VERTEX
8
Layer 1
10
306.310833
20
86.463867
70
0
0
VERTEX
8
Layer 1
10
311.011970
20
89.103371
70
0
0
VERTEX
8
Layer 1
10
315.536723
20
92.081544
70
0
0
VERTEX
8
Layer 1
10
319.884722
20
95.341304
70
0
0
VERTEX
8
Layer 1
10
324.055597
20
98.825571
70
0
0
VERTEX
8
Layer 1
10
324.946244
20
99.525622
70
0
0
VERTEX
8
Layer 1
10
325.966460
20
100.013288
70
0
0
VERTEX
8
Layer 1
10
326.935982
20
97.481618
70
0
0
VERTEX
8
Layer 1
10
327.637582
20
94.804754
70
0
0
VERTEX
8
Layer 1
10
328.090341
20
92.024812
70
0
0
VERTEX
8
Layer 1
10
328.313341
20
89.183904
70
0
0
VERTEX
8
Layer 1
10
328.325664
20
86.324146
70
0
0
VERTEX
8
Layer 1
10
328.146389
20
83.487649
70
0
0
VERTEX
8
Layer 1
10
327.794599
20
80.716529
70
0
0
VERTEX
8
Layer 1
10
327.289375
20
78.052899
70
0
0
VERTEX
8
Layer 1
10
327.134346
20
77.344545
70
0
0
VERTEX
8
Layer 1
10
326.360364
20
74.260992
70
0
0
VERTEX
8
Layer 1
10
325.441381
20
71.210872
70
0
0
VERTEX
8
Layer 1
10
323.193606
20
65.236906
70
0
0
VERTEX
8
Layer 1
10
320.441421
20
59.474584
70
0
0
VERTEX
8
Layer 1
10
317.235221
20
53.975846
70
0
0
VERTEX
8
Layer 1
10
316.873099
20
53.407794
70
0
0
VERTEX
8
Layer 1
10
314.289672
20
49.558282
70
0
0
VERTEX
8
Layer 1
10
311.561195
20
45.830789
70
0
0
VERTEX
8
Layer 1
10
308.678864
20
42.221905
70
0
0
VERTEX
8
Layer 1
10
305.633877
20
38.728217
70
0
0
VERTEX
8
Layer 1
10
304.536271
20
37.498320
70
0
0
VERTEX
8
Layer 1
10
300.549956
20
33.288763
70
0
0
VERTEX
8
Layer 1
10
300.020208
20
32.755333
70
0
0
VERTEX
8
Layer 1
10
296.333164
20
29.369627
70
0
0
VERTEX
8
Layer 1
10
295.899664
20
28.994650
70
0
0
VERTEX
8
Layer 1
10
292.390808
20
26.095845
70
0
0
VERTEX
8
Layer 1
10
288.776584
20
23.353327
70
0
0
VERTEX
8
Layer 1
10
285.061967
20
20.747094
70
0
0
VERTEX
8
Layer 1
10
281.251933
20
18.257141
70
0
0
VERTEX
8
Layer 1
10
280.527430
20
17.795154
70
0
0
VERTEX
8
Layer 1
10
277.767791
20
16.238254
70
0
0
VERTEX
8
Layer 1
10
274.930751
20
14.824926
70
0
0
VERTEX
8
Layer 1
10
273.323745
20
14.031048
70
0
0
VERTEX
8
Layer 1
10
270.537844
20
12.735480
70
0
0
VERTEX
8
Layer 1
10
269.228712
20
12.130153
70
0
0
VERTEX
8
Layer 1
10
265.818634
20
10.849199
70
0
0
VERTEX
8
Layer 1
10
262.429046
20
10.133476
70
0
0
VERTEX
8
Layer 1
10
258.969067
20
9.836959
70
0
0
VERTEX
8
Layer 1
10
255.347814
20
9.813624
70
0
0
VERTEX
8
Layer 1
10
252.262008
20
9.832734
70
0
0
VERTEX
8
Layer 1
10
246.452018
20
9.883573
70
0
0
VERTEX
8
Layer 1
10
239.823370
20
9.935235
70
0
0
VERTEX
8
Layer 1
10
226.218669
20
10.055068
70
0
0
VERTEX
8
Layer 1
10
226.218669
20
10.584234
70
0
0
VERTEX
8
Layer 1
10
227.111637
20
10.972840
70
0
0
VERTEX
8
Layer 1
10
231.197101
20
12.824017
70
0
0
VERTEX
8
Layer 1
10
235.214491
20
14.817562
70
0
0
VERTEX
8
Layer 1
10
235.737068
20
15.091059
70
0
0
VERTEX
8
Layer 1
10
238.444585
20
16.615409
70
0
0
VERTEX
8
Layer 1
10
241.080748
20
18.285412
70
0
0
VERTEX
8
Layer 1
10
243.634743
20
20.093801
70
0
0
VERTEX
8
Layer 1
10
246.095753
20
22.033306
70
0
0
VERTEX
8
Layer 1
10
248.452963
20
24.096660
70
0
0
VERTEX
8
Layer 1
10
250.695557
20
26.276593
70
0
0
VERTEX
8
Layer 1
10
252.812719
20
28.565838
70
0
0
VERTEX
8
Layer 1
10
254.793633
20
30.957125
70
0
0
VERTEX
8
Layer 1
10
255.417884
20
31.737438
70
0
0
VERTEX
8
Layer 1
10
257.861437
20
35.040324
70
0
0
VERTEX
8
Layer 1
10
260.153118
20
38.451361
70
0
0
VERTEX
8
Layer 1
10
261.138845
20
39.954885
70
0
0
VERTEX
8
Layer 1
10
263.313430
20
42.885324
70
0
0
VERTEX
8
Layer 1
10
264.617566
20
44.964364
70
0
0
VERTEX
8
Layer 1
10
265.572596
20
47.184010
70
0
0
VERTEX
8
Layer 1
10
266.699868
20
50.536267
70
0
0
VERTEX
8
Layer 1
10
265.922655
20
50.403976
70
0
0
VERTEX
8
Layer 1
10
263.383894
20
50.260924
70
0
0
VERTEX
8
Layer 1
10
260.887593
20
50.491082
70
0
0
VERTEX
8
Layer 1
10
258.444047
20
51.046561
70
0
0
VERTEX
8
Layer 1
10
256.063550
20
51.879475
70
0
0
VERTEX
8
Layer 1
10
253.756396
20
52.941935
70
0
0
VERTEX
8
Layer 1
10
251.532881
20
54.186055
70
0
0
VERTEX
8
Layer 1
10
247.377945
20
57.027723
70
0
0
VERTEX
8
Layer 1
10
246.132255
20
58.123864
70
0
0
VERTEX
8
Layer 1
10
245.012670
20
59.316580
70
0
0
VERTEX
8
Layer 1
10
244.022160
20
60.599413
70
0
0
VERTEX
8
Layer 1
10
243.163697
20
61.965905
70
0
0
VERTEX
8
Layer 1
10
242.440252
20
63.409598
70
0
0
VERTEX
8
Layer 1
10
241.854795
20
64.924034
70
0
0
VERTEX
8
Layer 1
10
241.410298
20
66.502755
70
0
0
VERTEX
8
Layer 1
10
241.109731
20
68.139305
70
0
0
VERTEX
8
Layer 1
10
240.991234
20
71.153077
70
0
0
VERTEX
8
Layer 1
10
241.114110
20
74.130368
70
0
0
VERTEX
8
Layer 1
10
241.458317
20
77.072141
70
0
0
VERTEX
8
Layer 1
10
242.003812
20
79.979363
70
0
0
VERTEX
8
Layer 1
10
242.730552
20
82.852999
70
0
0
VERTEX
8
Layer 1
10
243.618494
20
85.694015
70
0
0
VERTEX
8
Layer 1
10
245.797811
20
91.282049
70
0
0
VERTEX
8
Layer 1
10
246.076734
20
91.929166
70
0
0
VERTEX
8
Layer 1
10
248.179058
20
96.573709
70
0
0
VERTEX
8
Layer 1
10
248.499968
20
97.257258
70
0
0
VERTEX
8
Layer 1
10
251.507657
20
103.050678
70
0
0
VERTEX
8
Layer 1
10
254.806165
20
108.683807
70
0
0
VERTEX
8
Layer 1
10
256.280879
20
111.140243
70
0
0
VERTEX
8
Layer 1
10
257.900416
20
113.846018
70
0
0
VERTEX
8
Layer 1
10
258.213446
20
114.367433
70
0
0
VERTEX
8
Layer 1
10
259.026961
20
115.623685
70
0
0
VERTEX
8
Layer 1
10
258.569108
20
115.615288
70
0
0
VERTEX
8
Layer 1
10
254.245528
20
115.604899
70
0
0
VERTEX
8
Layer 1
10
249.754839
20
115.756279
70
0
0
VERTEX
8
Layer 1
10
245.193451
20
116.145058
70
0
0
VERTEX
8
Layer 1
10
240.657777
20
116.846868
70
0
0
VERTEX
8
Layer 1
10
236.244225
20
117.937341
70
0
0
VERTEX
8
Layer 1
10
232.049208
20
119.492107
70
0
0
VERTEX
8
Layer 1
10
230.063778
20
120.467235
70
0
0
VERTEX
8
Layer 1
10
228.169135
20
121.586798
70
0
0
VERTEX
8
Layer 1
10
226.377331
20
122.860251
70
0
0
VERTEX
8
Layer 1
10
224.700417
20
124.297046
70
0
0
VERTEX
8
Layer 1
10
224.102005
20
124.884090
70
0
0
VERTEX
8
Layer 1
10
223.627616
20
125.338842
70
0
0
VERTEX
8
Layer 1
10
221.615017
20
127.637231
70
0
0
VERTEX
8
Layer 1
10
219.785408
20
130.114782
70
0
0
VERTEX
8
Layer 1
10
218.129224
20
132.752231
70
0
0
VERTEX
8
Layer 1
10
216.636901
20
135.530308
70
0
0
VERTEX
8
Layer 1
10
215.298873
20
138.429749
70
0
0
VERTEX
8
Layer 1
10
214.105576
20
141.431286
70
0
0
VERTEX
8
Layer 1
10
212.114916
20
147.663579
70
0
0
VERTEX
8
Layer 1
10
210.588405
20
154.073054
70
0
0
VERTEX
8
Layer 1
10
209.449525
20
160.505576
70
0
0
VERTEX
8
Layer 1
10
208.621758
20
166.807011
70
0
0
VERTEX
8
Layer 1
10
208.028588
20
172.823222
70
0
0
VERTEX
8
Layer 1
10
207.981150
20
173.369312
70
0
0
VERTEX
8
Layer 1
10
207.496460
20
182.300003
70
0
0
VERTEX
8
Layer 1
10
207.400203
20
191.244814
70
0
0
VERTEX
8
Layer 1
10
207.400914
20
192.321442
70
0
0
VERTEX
8
Layer 1
10
207.697859
20
210.873565
70
0
0
VERTEX
8
Layer 1
10
203.299167
20
203.299877
70
0
0
VERTEX
8
Layer 1
10
203.029109
20
202.809411
70
0
0
VERTEX
8
Layer 1
10
198.769050
20
194.787017
70
0
0
VERTEX
8
Layer 1
10
194.676577
20
186.677527
70
0
0
VERTEX
8
Layer 1
10
192.285899
20
182.050554
70
0
0
VERTEX
8
Layer 1
10
190.003871
20
177.469961
70
0
0
VERTEX
8
Layer 1
10
186.713120
20
170.938068
70
0
0
VERTEX
8
Layer 1
10
185.191768
20
168.027655
70
0
0
VERTEX
8
Layer 1
10
179.502716
20
157.565387
70
0
0
VERTEX
8
Layer 1
10
178.498644
20
155.773122
70
0
0
VERTEX
8
Layer 1
10
174.071708
20
148.149313
70
0
0
VERTEX
8
Layer 1
10
171.649353
20
144.368215
70
0
0
VERTEX
8
Layer 1
10
169.069380
20
140.675112
70
0
0
VERTEX
8
Layer 1
10
166.318019
20
137.120597
70
0
0
VERTEX
8
Layer 1
10
163.381503
20
133.755261
70
0
0
VERTEX
8
Layer 1
10
160.246061
20
130.629699
70
0
0
VERTEX
8
Layer 1
10
156.897923
20
127.794503
70
0
0
VERTEX
8
Layer 1
10
156.274706
20
127.308745
70
0
0
VERTEX
8
Layer 1
10
153.532304
20
125.510237
70
0
0
VERTEX
8
Layer 1
10
150.565665
20
124.044910
70
0
0
VERTEX
8
Layer 1
10
147.434354
20
123.010025
70
0
0
VERTEX
8
Layer 1
10
144.197939
20
122.502843
70
0
0
VERTEX
8
Layer 1
10
143.513744
20
122.452200
70
0
0
VERTEX
8
Layer 1
10
141.204427
20
122.519800
70
0
0
VERTEX
8
Layer 1
10
138.939524
20
122.893270
70
0
0
VERTEX
8
Layer 1
10
136.731842
20
123.538489
70
0
0
VERTEX
8
Layer 1
10
134.594190
20
124.421337
70
0
0
VERTEX
8
Layer 1
10
132.539377
20
125.507691
70
0
0
VERTEX
8
Layer 1
10
130.580209
20
126.763431
70
0
0
VERTEX
8
Layer 1
10
128.729495
20
128.154436
70
0
0
VERTEX
8
Layer 1
10
127.000044
20
129.646584
70
0
0
VERTEX
8
Layer 1
10
123.109372
20
133.582288
70
0
0
VERTEX
8
Layer 1
10
119.591720
20
137.848657
70
0
0
VERTEX
8
Layer 1
10
118.483779
20
139.270791
70
0
0
VERTEX
8
Layer 1
10
117.739639
20
140.229904
70
0
0
VERTEX
8
Layer 1
10
116.876644
20
135.356823
70
0
0
VERTEX
8
Layer 1
10
114.771276
20
121.483532
70
0
0
VERTEX
8
Layer 1
10
113.895833
20
116.929544
70
0
0
VERTEX
8
Layer 1
10
112.974270
20
113.453091
70
0
0
VERTEX
8
Layer 1
10
111.883374
20
110.670999
70
0
0
VERTEX
8
Layer 1
10
110.499933
20
108.200090
70
0
0
VERTEX
8
Layer 1
10
108.700736
20
105.657188
70
0
0
VERTEX
8
Layer 1
10
106.362570
20
102.659118
70
0
0
VERTEX
8
Layer 1
10
105.732118
20
101.858134
70
0
0
VERTEX
8
Layer 1
10
104.490428
20
100.592379
70
0
0
VERTEX
8
Layer 1
10
103.135055
20
99.474860
70
0
0
VERTEX
8
Layer 1
10
101.679974
20
98.503743
70
0
0
VERTEX
8
Layer 1
10
100.139157
20
97.677193
70
0
0
VERTEX
8
Layer 1
10
98.526578
20
96.993375
70
0
0
VERTEX
8
Layer 1
10
96.856210
20
96.450453
70
0
0
VERTEX
8
Layer 1
10
93.398003
20
95.779960
70
0
0
VERTEX
8
Layer 1
10
90.256872
20
95.724300
70
0
0
VERTEX
8
Layer 1
10
87.136834
20
95.852756
70
0
0
VERTEX
8
Layer 1
10
80.945746
20
96.547650
70
0
0
VERTEX
8
Layer 1
10
74.796159
20
97.635911
70
0
0
VERTEX
8
Layer 1
10
68.659493
20
98.888810
70
0
0
VERTEX
8
Layer 1
10
68.054451
20
99.012737
70
0
0
VERTEX
8
Layer 1
10
66.352659
20
99.364233
70
0
0
VERTEX
8
Layer 1
10
65.360990
20
99.569646
70
0
0
VERTEX
8
Layer 1
10
63.764707
20
100.013288
70
0
0
VERTEX
8
Layer 1
10
64.558456
20
94.721628
70
0
0
VERTEX
8
Layer 1
10
64.691781
20
93.854369
70
0
0
VERTEX
8
Layer 1
10
65.452519
20
89.451505
70
0
0
VERTEX
8
Layer 1
10
66.364700
20
85.083109
70
0
0
VERTEX
8
Layer 1
10
67.439352
20
80.757871
70
0
0
VERTEX
8
Layer 1
10
68.687503
20
76.484482
70
0
0
VERTEX
8
Layer 1
10
70.120182
20
72.271631
70
0
0
VERTEX
8
Layer 1
10
71.748418
20
68.128010
70
0
0
VERTEX
8
Layer 1
10
73.583239
20
64.062309
70
0
0
VERTEX
8
Layer 1
10
75.635673
20
60.083217
70
0
0
VERTEX
8
Layer 1
10
76.432652
20
58.562640
70
0
0
VERTEX
8
Layer 1
10
80.028537
20
52.213492
70
0
0
VERTEX
8
Layer 1
10
84.117799
20
46.105676
70
0
0
VERTEX
8
Layer 1
10
88.598848
20
40.272191
70
0
0
VERTEX
8
Layer 1
10
93.370098
20
34.746036
70
0
0
VERTEX
8
Layer 1
10
94.803600
20
33.123398
70
0
0
VERTEX
8
Layer 1
10
98.844609
20
28.722458
70
0
0
VERTEX
8
Layer 1
10
103.033966
20
24.461664
70
0
0
VERTEX
8
Layer 1
10
104.891861
20
22.602090
70
0
0
VERTEX
8
Layer 1
10
106.093853
20
21.401131
70
0
0
VERTEX
8
Layer 1
10
106.644384
20
20.848977
70
0
0
VERTEX
8
Layer 1
10
109.884718
20
17.851732
70
0
0
VERTEX
8
Layer 1
10
111.389647
20
16.405060
70
0
0
VERTEX
8
Layer 1
10
113.380157
20
14.526959
70
0
0
VERTEX
8
Layer 1
10
115.462778
20
12.750507
70
0
0
VERTEX
8
Layer 1
10
115.939041
20
12.353956
70
0
0
VERTEX
8
Layer 1
10
116.888723
20
11.571446
70
0
0
VERTEX
8
Layer 1
10
118.004222
20
10.584234
70
0
0
VERTEX
8
Layer 1
10
118.004222
20
10.055068
70
0
0
VERTEX
8
Layer 1
10
104.597562
20
9.972816
70
0
0
VERTEX
8
Layer 1
10
98.371918
20
9.935308
70
0
0
VERTEX
8
Layer 1
10
92.942468
20
9.905703
70
0
0
VERTEX
8
Layer 1
10
90.070527
20
9.887222
70
0
0
VERTEX
8
Layer 1
10
86.855969
20
9.874847
70
0
0
VERTEX
8
Layer 1
10
85.905556
20
9.857551
70
0
0
VERTEX
8
Layer 1
10
84.379102
20
9.973345
70
0
0
VERTEX
8
Layer 1
10
83.029106
20
10.302905
70
0
0
VERTEX
8
Layer 1
10
81.749304
20
10.856042
70
0
0
VERTEX
8
Layer 1
10
80.433436
20
11.642566
70
0
0
VERTEX
8
Layer 1
10
79.824738
20
12.035814
70
0
0
VERTEX
8
Layer 1
10
78.267163
20
13.114309
70
0
0
VERTEX
8
Layer 1
10
77.695170
20
13.521712
70
0
0
VERTEX
8
Layer 1
10
72.422645
20
17.657266
70
0
0
VERTEX
8
Layer 1
10
67.417322
20
22.113684
70
0
0
VERTEX
8
Layer 1
10
64.371388
20
24.791101
70
0
0
VERTEX
8
Layer 1
10
64.072052
20
25.159295
70
0
0
VERTEX
8
Layer 1
10
64.029290
20
25.665465
70
0
0
VERTEX
8
Layer 1
10
63.566270
20
25.863902
70
0
0
VERTEX
8
Layer 1
10
62.675887
20
26.480769
70
0
0
VERTEX
8
Layer 1
10
61.912626
20
27.252963
70
0
0
VERTEX
8
Layer 1
10
61.912626
20
27.782129
70
0
0
VERTEX
8
Layer 1
10
61.383460
20
27.782129
70
0
0
VERTEX
8
Layer 1
10
61.383460
20
28.311295
70
0
0
VERTEX
8
Layer 1
10
60.589711
20
28.575878
70
0
0
VERTEX
8
Layer 1
10
59.713280
20
29.551528
70
0
0
VERTEX
8
Layer 1
10
57.828126
20
31.585510
70
0
0
VERTEX
8
Layer 1
10
57.234881
20
32.259369
70
0
0
VERTEX
8
Layer 1
10
57.150132
20
32.809206
70
0
0
VERTEX
8
Layer 1
10
56.620966
20
32.809206
70
0
0
VERTEX
8
Layer 1
10
55.562634
20
34.082512
70
0
0
VERTEX
8
Layer 1
10
52.900268
20
37.191362
70
0
0
VERTEX
8
Layer 1
10
50.093207
20
40.501750
70
0
0
VERTEX
8
Layer 1
10
48.116845
20
42.916328
70
0
0
VERTEX
8
Layer 1
10
46.121341
20
45.366179
70
0
0
VERTEX
8
Layer 1
10
44.222772
20
47.891471
70
0
0
VERTEX
8
Layer 1
10
42.891589
20
49.700143
70
0
0
VERTEX
8
Layer 1
10
37.644718
20
56.967047
70
0
0
VERTEX
8
Layer 1
10
32.663346
20
64.534176
70
0
0
VERTEX
8
Layer 1
10
28.006247
20
72.399944
70
0
0
VERTEX
8
Layer 1
10
23.732193
20
80.562766
70
0
0
VERTEX
8
Layer 1
10
19.899954
20
89.021053
70
0
0
VERTEX
8
Layer 1
10
18.167882
20
93.360501
70
0
0
VERTEX
8
Layer 1
10
16.568304
20
97.773221
70
0
0
VERTEX
8
Layer 1
10
15.108565
20
102.259014
70
0
0
VERTEX
8
Layer 1
10
13.796014
20
106.817682
70
0
0
VERTEX
8
Layer 1
10
12.637995
20
111.449027
70
0
0
VERTEX
8
Layer 1
10
11.641856
20
116.152851
70
0
0
VERTEX
8
Layer 1
10
11.506593
20
116.884847
70
0
0
VERTEX
8
Layer 1
10
10.721068
20
122.330298
70
0
0
VERTEX
8
Layer 1
10
10.320672
20
127.838803
70
0
0
VERTEX
8
Layer 1
10
10.326572
20
133.367818
70
0
0
VERTEX
8
Layer 1
10
10.759936
20
138.874800
70
0
0
VERTEX
8
Layer 1
10
11.641931
20
144.317206
70
0
0
VERTEX
8
Layer 1
10
12.993726
20
149.652491
70
0
0
VERTEX
8
Layer 1
10
14.836486
20
154.838112
70
0
0
VERTEX
8
Layer 1
10
17.191381
20
159.831525
70
0
0
VERTEX
8
Layer 1
10
17.731916
20
160.857301
70
0
0
VERTEX
8
Layer 1
10
19.391972
20
163.785356
70
0
0
VERTEX
8
Layer 1
10
21.274935
20
166.593406
70
0
0
VERTEX
8
Layer 1
10
23.369598
20
169.247899
70
0
0
VERTEX
8
Layer 1
10
25.664755
20
171.715281
70
0
0
VERTEX
8
Layer 1
10
25.929338
20
171.715281
70
0
0
VERTEX
8
Layer 1
10
25.941030
20
171.233140
70
0
0
VERTEX
8
Layer 1
10
26.355239
20
163.662639
70
0
0
VERTEX
8
Layer 1
10
26.823580
20
159.817913
70
0
0
VERTEX
8
Layer 1
10
27.553356
20
156.020589
70
0
0
VERTEX
8
Layer 1
10
28.610027
20
152.335961
70
0
0
VERTEX
8
Layer 1
10
30.059051
20
148.829317
70
0
0
VERTEX
8
Layer 1
10
31.965887
20
145.565951
70
0
0
VERTEX
8
Layer 1
10
33.111441
20
144.045899
70
0
0
VERTEX
8
Layer 1
10
34.395994
20
142.611151
70
0
0
VERTEX
8
Layer 1
10
36.282809
20
141.223936
70
0
0
VERTEX
8
Layer 1
10
38.331241
20
140.221783
70
0
0
VERTEX
8
Layer 1
10
40.528714
20
139.620566
70
0
0
VERTEX
8
Layer 1
10
42.862650
20
139.436155
70
0
0
VERTEX
8
Layer 1
10
44.788968
20
139.684414
70
0
0
VERTEX
8
Layer 1
10
46.634913
20
140.104203
70
0
0
VERTEX
8
Layer 1
10
48.407993
20
140.682646
70
0
0
VERTEX
8
Layer 1
10
50.115717
20
141.406867
70
0
0
VERTEX
8
Layer 1
10
53.365125
20
143.241134
70
0
0
VERTEX
8
Layer 1
10
56.443199
20
145.503994
70
0
0
VERTEX
8
Layer 1
10
58.208464
20
146.579896
70
0
0
VERTEX
8
Layer 1
10
58.208464
20
147.109062
70
0
0
VERTEX
8
Layer 1
10
59.035286
20
147.820129
70
0
0
VERTEX
8
Layer 1
10
61.038426
20
149.663763
70
0
0
VERTEX
8
Layer 1
10
62.915626
20
151.644829
70
0
0
VERTEX
8
Layer 1
10
66.328501
20
155.895853
70
0
0
VERTEX
8
Layer 1
10
67.471970
20
157.438134
70
0
0
VERTEX
8
Layer 1
10
72.090961
20
164.144587
70
0
0
VERTEX
8
Layer 1
10
76.300427
20
171.147073
70
0
0
VERTEX
8
Layer 1
10
80.129779
20
178.370101
70
0
0
VERTEX
8
Layer 1
10
83.608432
20
185.738180
70
0
0
VERTEX
8
Layer 1
10
83.927663
20
186.446921
70
0
0
VERTEX
8
Layer 1
10
88.840075
20
198.045096
70
0
0
VERTEX
8
Layer 1
10
93.277387
20
209.834252
70
0
0
VERTEX
8
Layer 1
10
97.284462
20
221.778564
70
0
0
VERTEX
8
Layer 1
10
100.906159
20
233.842208
70
0
0
VERTEX
8
Layer 1
10
101.397763
20
235.564662
70
0
0
VERTEX
8
Layer 1
10
102.129242
20
238.125614
70
0
0
VERTEX
8
Layer 1
10
103.020544
20
237.044289
70
0
0
VERTEX
8
Layer 1
10
103.572046
20
235.734032
70
0
0
VERTEX
8
Layer 1
10
103.933522
20
234.762064
70
0
0
VERTEX
8
Layer 1
10
104.120817
20
234.249636
70
0
0
VERTEX
8
Layer 1
10
105.097533
20
231.623693
70
0
0
VERTEX
8
Layer 1
10
105.291755
20
231.102840
70
0
0
VERTEX
8
Layer 1
10
107.023533
20
226.747803
70
0
0
VERTEX
8
Layer 1
10
109.011501
20
222.503848
70
0
0
VERTEX
8
Layer 1
10
110.171118
20
220.087461
70
0
0
VERTEX
8
Layer 1
10
112.535241
20
215.330420
70
0
0
VERTEX
8
Layer 1
10
115.208197
20
210.762395
70
0
0
VERTEX
8
Layer 1
10
118.246929
20
206.436765
70
0
0
VERTEX
8
Layer 1
10
121.708384
20
202.406909
70
0
0
VERTEX
8
Layer 1
10
122.173471
20
201.900481
70
0
0
VERTEX
8
Layer 1
10
124.567464
20
199.784703
70
0
0
VERTEX
8
Layer 1
10
127.246474
20
198.170419
70
0
0
VERTEX
8
Layer 1
10
130.170722
20
197.067762
70
0
0
VERTEX
8
Layer 1
10
133.300427
20
196.486864
70
0
0
VERTEX
8
Layer 1
10
134.759970
20
196.636590
70
0
0
VERTEX
8
Layer 1
10
136.188468
20
196.974731
70
0
0
VERTEX
8
Layer 1
10
137.578087
20
197.477231
70
0
0
VERTEX
8
Layer 1
10
138.920991
20
198.120035
70
0
0
VERTEX
8
Layer 1
10
141.435319
20
199.730329
70
0
0
VERTEX
8
Layer 1
10
143.668773
20
201.613160
70
0
0
VERTEX
8
Layer 1
10
146.050020
20
204.523573
70
0
0
VERTEX
8
Layer 1
10
146.615359
20
205.219137
70
0
0
VERTEX
8
Layer 1
10
148.414917
20
207.670644
70
0
0
VERTEX
8
Layer 1
10
150.048841
20
210.243357
70
0
0
VERTEX
8
Layer 1
10
151.535935
20
212.915636
70
0
0
VERTEX
8
Layer 1
10
152.895003
20
215.665841
70
0
0
VERTEX
8
Layer 1
10
155.304275
20
221.313470
70
0
0
VERTEX
8
Layer 1
10
157.427089
20
227.013128
70
0
0
VERTEX
8
Layer 1
10
157.743219
20
227.888913
70
0
0
VERTEX
8
Layer 1
10
159.514471
20
233.170723
70
0
0
VERTEX
8
Layer 1
10
161.087941
20
238.523288
70
0
0
VERTEX
8
Layer 1
10
162.477769
20
243.934502
70
0
0
VERTEX
8
Layer 1
10
163.698090
20
249.392257
70
0
0
VERTEX
8
Layer 1
10
165.686761
20
260.398960
70
0
0
VERTEX
8
Layer 1
10
167.167051
20
271.446536
70
0
0
VERTEX
8
Layer 1
10
167.246721
20
272.136036
70
0
0
VERTEX
8
Layer 1
10
167.745826
20
277.019315
70
0
0
VERTEX
8
Layer 1
10
167.820571
20
277.834728
70
0
0
VERTEX
8
Layer 1
10
168.254671
20
285.150715
70
0
0
VERTEX
8
Layer 1
10
168.358514
20
292.477977
70
0
0
VERTEX
8
Layer 1
10
168.363940
20
294.863617
70
0
0
VERTEX
8
Layer 1
10
168.344370
20
305.219675
70
0
0
VERTEX
8
Layer 1
10
168.125685
20
308.911705
70
0
0
VERTEX
8
Layer 1
10
167.667124
20
312.132134
70
0
0
VERTEX
8
Layer 1
10
166.893232
20
315.270262
70
0
0
VERTEX
8
Layer 1
10
165.728551
20
318.715388
70
0
0
VERTEX
8
Layer 1
10
161.925000
20
328.083834
70
0
0
VERTEX
8
Layer 1
10
161.925000
20
328.613000
70
0
0
VERTEX
8
Layer 1
10
161.925000
20
328.613000
70
0
0
SEQEND
8
Layer 1
 0 
ENDSEC
 0 
EOF