999
"DXF R12 Output" (www.mydxf.blogspot.com)
 0 
SECTION
 2 
HEADER
 9 
$ACADVER
 1 
AC1009
 9 
$EXTMIN
 10 
 0 
 20 
 0 
 9 
$EXTMAX
 10 
 8.5 
 20 
 11 
 0 
ENDSEC
 0 
SECTION
 2 
ENTITIES
0
POLYLINE
8
Layer 1
62
7
70
1
10
0.000000
20
0.000000
66
1
0
VERTEX
8
Layer 1
10
-0.132292
20
108.082291
70
0
0
VERTEX
8
Layer 1
10
161.792505
20
108.082291
70
0
0
VERTEX
8
Layer 1
10
161.792505
20
36.909464
70
0
0
VERTEX
8
Layer 1
10
160.985229
20
37.318477
70
0
0
VERTEX
8
Layer 1
10
160.337298
20
37.967797
70
0
0
VERTEX
8
Layer 1
10
159.689863
20
40.174617
70
0
0
VERTEX
8
Layer 1
10
158.882092
20
42.333416
70
0
0
VERTEX
8
Layer 1
10
159.238154
20
42.955484
70
0
0
VERTEX
8
Layer 1
10
159.411258
20
43.656331
70
0
0
VERTEX
8
Layer 1
10
159.278966
20
48.286533
70
0
0
VERTEX
8
Layer 1
10
158.243289
20
50.845018
70
0
0
VERTEX
8
Layer 1
10
157.030011
20
53.313611
70
0
0
VERTEX
8
Layer 1
10
157.321316
20
54.635037
70
0
0
VERTEX
8
Layer 1
10
157.426885
20
55.959440
70
0
0
VERTEX
8
Layer 1
10
157.162302
20
56.488607
70
0
0
VERTEX
8
Layer 1
10
156.032702
20
56.052785
70
0
0
VERTEX
8
Layer 1
10
155.104938
20
56.128013
70
0
0
VERTEX
8
Layer 1
10
154.379034
20
56.714267
70
0
0
VERTEX
8
Layer 1
10
153.855015
20
57.811521
70
0
0
VERTEX
8
Layer 1
10
154.250731
20
59.132882
70
0
0
VERTEX
8
Layer 1
10
154.913347
20
60.325060
70
0
0
VERTEX
8
Layer 1
10
157.294594
20
60.721935
70
0
0
VERTEX
8
Layer 1
10
157.501514
20
61.431253
70
0
0
VERTEX
8
Layer 1
10
157.504342
20
62.108647
70
0
0
VERTEX
8
Layer 1
10
157.303077
20
62.754143
70
0
0
VERTEX
8
Layer 1
10
156.897719
20
63.367764
70
0
0
VERTEX
8
Layer 1
10
155.830887
20
62.768319
70
0
0
VERTEX
8
Layer 1
10
154.648764
20
62.441724
70
0
0
VERTEX
8
Layer 1
10
154.251889
20
60.721935
70
0
0
VERTEX
8
Layer 1
10
153.458140
20
60.192768
70
0
0
VERTEX
8
Layer 1
10
153.000453
20
60.304100
70
0
0
VERTEX
8
Layer 1
10
152.605323
20
60.230935
70
0
0
VERTEX
8
Layer 1
10
152.272800
20
59.973322
70
0
0
VERTEX
8
Layer 1
10
152.002934
20
59.531311
70
0
0
VERTEX
8
Layer 1
10
150.415436
20
59.398953
70
0
0
VERTEX
8
Layer 1
10
148.827938
20
59.531311
70
0
0
VERTEX
8
Layer 1
10
147.499202
20
60.861403
70
0
0
VERTEX
8
Layer 1
10
146.446691
20
62.441724
70
0
0
VERTEX
8
Layer 1
10
139.435241
20
66.278177
70
0
0
VERTEX
8
Layer 1
10
137.847743
20
69.453173
70
0
0
VERTEX
8
Layer 1
10
137.831041
20
71.437744
70
0
0
VERTEX
8
Layer 1
10
137.980035
20
73.421919
70
0
0
VERTEX
8
Layer 1
10
137.186285
20
73.421919
70
0
0
VERTEX
8
Layer 1
10
136.825626
20
71.244863
70
0
0
VERTEX
8
Layer 1
10
136.611438
20
70.700600
70
0
0
VERTEX
8
Layer 1
10
136.374677
20
70.519178
70
0
0
VERTEX
8
Layer 1
10
136.115344
20
70.700600
70
0
0
VERTEX
8
Layer 1
10
135.833440
20
71.244863
70
0
0
VERTEX
8
Layer 1
10
135.201913
20
73.421919
70
0
0
VERTEX
8
Layer 1
10
135.069555
20
74.877125
70
0
0
VERTEX
8
Layer 1
10
135.201913
20
76.332332
70
0
0
VERTEX
8
Layer 1
10
140.096699
20
78.581287
70
0
0
VERTEX
8
Layer 1
10
141.562323
20
79.782229
70
0
0
VERTEX
8
Layer 1
10
142.610237
20
81.359409
70
0
0
VERTEX
8
Layer 1
10
142.742595
20
83.740656
70
0
0
VERTEX
8
Layer 1
10
142.610237
20
86.121903
70
0
0
VERTEX
8
Layer 1
10
141.094011
20
89.755606
70
0
0
VERTEX
8
Layer 1
10
139.302950
20
93.265644
70
0
0
VERTEX
8
Layer 1
10
138.438218
20
93.494383
70
0
0
VERTEX
8
Layer 1
10
137.708969
20
93.394237
70
0
0
VERTEX
8
Layer 1
10
137.115253
20
92.965212
70
0
0
VERTEX
8
Layer 1
10
136.657119
20
92.207312
70
0
0
VERTEX
8
Layer 1
10
137.306208
20
91.513707
70
0
0
VERTEX
8
Layer 1
10
138.244618
20
91.281271
70
0
0
VERTEX
8
Layer 1
10
138.737924
20
90.500306
70
0
0
VERTEX
8
Layer 1
10
139.078782
20
89.666723
70
0
0
VERTEX
8
Layer 1
10
139.267140
20
88.780519
70
0
0
VERTEX
8
Layer 1
10
139.302950
20
87.841692
70
0
0
VERTEX
8
Layer 1
10
139.165929
20
86.635057
70
0
0
VERTEX
8
Layer 1
10
138.926316
20
85.716479
70
0
0
VERTEX
8
Layer 1
10
138.584111
20
85.085957
70
0
0
VERTEX
8
Layer 1
10
138.139313
20
84.743491
70
0
0
VERTEX
8
Layer 1
10
137.591924
20
84.689082
70
0
0
VERTEX
8
Layer 1
10
136.941943
20
84.922730
70
0
0
VERTEX
8
Layer 1
10
136.189370
20
85.444434
70
0
0
VERTEX
8
Layer 1
10
135.334204
20
86.254194
70
0
0
VERTEX
8
Layer 1
10
134.540456
20
86.386486
70
0
0
VERTEX
8
Layer 1
10
134.566409
20
85.016187
70
0
0
VERTEX
8
Layer 1
10
134.200202
20
83.853867
70
0
0
VERTEX
8
Layer 1
10
133.441882
20
82.899525
70
0
0
VERTEX
8
Layer 1
10
132.291500
20
82.153158
70
0
0
VERTEX
8
Layer 1
10
132.016822
20
81.512842
70
0
0
VERTEX
8
Layer 1
10
131.947278
20
80.880513
70
0
0
VERTEX
8
Layer 1
10
132.082918
20
80.256122
70
0
0
VERTEX
8
Layer 1
10
132.423791
20
79.639619
70
0
0
VERTEX
8
Layer 1
10
131.939605
20
78.013459
70
0
0
VERTEX
8
Layer 1
10
131.630043
20
76.332332
70
0
0
VERTEX
8
Layer 1
10
131.894559
20
75.009417
70
0
0
VERTEX
8
Layer 1
10
131.630043
20
73.686501
70
0
0
VERTEX
8
Layer 1
10
134.805038
20
65.881303
70
0
0
VERTEX
8
Layer 1
10
134.408164
20
64.426096
70
0
0
VERTEX
8
Layer 1
10
133.822311
20
63.841930
70
0
0
VERTEX
8
Layer 1
10
133.482124
20
63.103181
70
0
0
VERTEX
8
Layer 1
10
134.376083
20
58.503836
70
0
0
VERTEX
8
Layer 1
10
134.599077
20
56.181008
70
0
0
VERTEX
8
Layer 1
10
134.672747
20
53.842776
70
0
0
VERTEX
8
Layer 1
10
133.878998
20
52.255279
70
0
0
VERTEX
8
Layer 1
10
130.968585
20
49.874032
70
0
0
VERTEX
8
Layer 1
10
130.439419
20
47.492784
70
0
0
VERTEX
8
Layer 1
10
128.813259
20
46.950985
70
0
0
VERTEX
8
Layer 1
10
127.132131
20
46.566744
70
0
0
VERTEX
8
Layer 1
10
126.614219
20
45.856992
70
0
0
VERTEX
8
Layer 1
10
126.331305
20
45.113257
70
0
0
VERTEX
8
Layer 1
10
126.283440
20
44.335590
70
0
0
VERTEX
8
Layer 1
10
126.470674
20
43.524040
70
0
0
VERTEX
8
Layer 1
10
127.640230
20
42.353789
70
0
0
VERTEX
8
Layer 1
10
128.984213
20
41.407376
70
0
0
VERTEX
8
Layer 1
10
129.891914
20
41.790756
70
0
0
VERTEX
8
Layer 1
10
130.789793
20
41.918550
70
0
0
VERTEX
8
Layer 1
10
131.677849
20
41.790756
70
0
0
VERTEX
8
Layer 1
10
132.556083
20
41.407376
70
0
0
VERTEX
8
Layer 1
10
132.819860
20
41.033218
70
0
0
VERTEX
8
Layer 1
10
132.885720
20
40.665981
70
0
0
VERTEX
8
Layer 1
10
132.753689
20
40.305639
70
0
0
VERTEX
8
Layer 1
10
132.423791
20
39.952169
70
0
0
VERTEX
8
Layer 1
10
131.517363
20
39.562868
70
0
0
VERTEX
8
Layer 1
10
130.704002
20
39.026128
70
0
0
VERTEX
8
Layer 1
10
130.614573
20
38.672480
70
0
0
VERTEX
8
Layer 1
10
130.836294
20
38.364671
70
0
0
VERTEX
8
Layer 1
10
131.365460
20
38.232313
70
0
0
VERTEX
8
Layer 1
10
131.894626
20
38.364671
70
0
0
VERTEX
8
Layer 1
10
132.620112
20
38.992262
70
0
0
VERTEX
8
Layer 1
10
133.482124
20
39.423003
70
0
0
VERTEX
8
Layer 1
10
133.702918
20
40.182555
70
0
0
VERTEX
8
Layer 1
10
133.746707
20
40.878209
70
0
0
VERTEX
8
Layer 1
10
135.334204
20
39.819878
70
0
0
VERTEX
8
Layer 1
10
135.913311
20
37.848403
70
0
0
VERTEX
8
Layer 1
10
136.260245
20
35.851133
70
0
0
VERTEX
8
Layer 1
10
135.761775
20
36.245766
70
0
0
VERTEX
8
Layer 1
10
135.308970
20
36.355295
70
0
0
VERTEX
8
Layer 1
10
134.901855
20
36.179670
70
0
0
VERTEX
8
Layer 1
10
134.540456
20
35.718841
70
0
0
VERTEX
8
Layer 1
10
134.853486
20
35.107357
70
0
0
VERTEX
8
Layer 1
10
135.244478
20
34.837383
70
0
0
VERTEX
8
Layer 1
10
135.713406
20
34.908919
70
0
0
VERTEX
8
Layer 1
10
136.260245
20
35.321967
70
0
0
VERTEX
8
Layer 1
10
136.524828
20
35.057384
70
0
0
VERTEX
8
Layer 1
10
136.260245
20
32.146970
70
0
0
VERTEX
8
Layer 1
10
137.847743
20
31.353222
70
0
0
VERTEX
8
Layer 1
10
137.980101
20
30.559472
70
0
0
VERTEX
8
Layer 1
10
137.847743
20
29.765723
70
0
0
VERTEX
8
Layer 1
10
135.995662
20
29.501141
70
0
0
VERTEX
8
Layer 1
10
135.494211
20
28.260114
70
0
0
VERTEX
8
Layer 1
10
134.805038
20
27.119894
70
0
0
VERTEX
8
Layer 1
10
135.069555
20
26.590727
70
0
0
VERTEX
8
Layer 1
10
134.805038
20
26.061561
70
0
0
VERTEX
8
Layer 1
10
131.894626
20
25.929270
70
0
0
VERTEX
8
Layer 1
10
131.315238
20
25.469541
70
0
0
VERTEX
8
Layer 1
10
130.725235
20
25.316297
70
0
0
VERTEX
8
Layer 1
10
130.124615
20
25.469541
70
0
0
VERTEX
8
Layer 1
10
129.513379
20
25.929270
70
0
0
VERTEX
8
Layer 1
10
128.795631
20
26.702745
70
0
0
VERTEX
8
Layer 1
10
128.322755
20
27.649059
70
0
0
VERTEX
8
Layer 1
10
127.969537
20
29.583856
70
0
0
VERTEX
8
Layer 1
10
127.925881
20
31.485513
70
0
0
VERTEX
8
Layer 1
10
126.984990
20
31.555007
70
0
0
VERTEX
8
Layer 1
10
126.274486
20
31.291574
70
0
0
VERTEX
8
Layer 1
10
125.794367
20
30.695162
70
0
0
VERTEX
8
Layer 1
10
125.544634
20
29.765723
70
0
0
VERTEX
8
Layer 1
10
125.147759
20
29.368799
70
0
0
VERTEX
8
Layer 1
10
124.750885
20
29.236491
70
0
0
VERTEX
8
Layer 1
10
124.354010
20
29.368799
70
0
0
VERTEX
8
Layer 1
10
123.957136
20
29.765723
70
0
0
VERTEX
8
Layer 1
10
122.898803
20
31.485513
70
0
0
VERTEX
8
Layer 1
10
122.113091
20
31.779204
70
0
0
VERTEX
8
Layer 1
10
121.520458
20
32.251911
70
0
0
VERTEX
8
Layer 1
10
121.120905
20
32.903657
70
0
0
VERTEX
8
Layer 1
10
120.914431
20
33.734469
70
0
0
VERTEX
8
Layer 1
10
117.077978
20
38.100088
70
0
0
VERTEX
8
Layer 1
10
112.580067
20
39.423003
70
0
0
VERTEX
8
Layer 1
10
111.122876
20
39.631594
70
0
0
VERTEX
8
Layer 1
10
109.669654
20
39.687586
70
0
0
VERTEX
8
Layer 1
10
109.405137
20
39.423003
70
0
0
VERTEX
8
Layer 1
10
109.669654
20
39.158420
70
0
0
VERTEX
8
Layer 1
10
113.395114
20
37.428444
70
0
0
VERTEX
8
Layer 1
10
116.813395
20
35.189675
70
0
0
VERTEX
8
Layer 1
10
118.419314
20
32.904472
70
0
0
VERTEX
8
Layer 1
10
119.723808
20
30.427181
70
0
0
VERTEX
8
Layer 1
10
118.795716
20
29.351548
70
0
0
VERTEX
8
Layer 1
10
117.692604
20
28.618194
70
0
0
VERTEX
8
Layer 1
10
116.414469
20
28.227095
70
0
0
VERTEX
8
Layer 1
10
114.961314
20
28.178225
70
0
0
VERTEX
8
Layer 1
10
112.843757
20
28.348915
70
0
0
VERTEX
8
Layer 1
10
110.727986
20
28.045934
70
0
0
VERTEX
8
Layer 1
10
110.279116
20
27.243309
70
0
0
VERTEX
8
Layer 1
10
110.085413
20
26.424536
70
0
0
VERTEX
8
Layer 1
10
110.146850
20
25.589641
70
0
0
VERTEX
8
Layer 1
10
110.463403
20
24.738647
70
0
0
VERTEX
8
Layer 1
10
109.669654
20
22.489691
70
0
0
VERTEX
8
Layer 1
10
110.727986
20
15.345950
70
0
0
VERTEX
8
Layer 1
10
110.463403
20
13.758452
70
0
0
VERTEX
8
Layer 1
10
110.198819
20
13.626160
70
0
0
VERTEX
8
Layer 1
10
109.943795
20
14.263508
70
0
0
VERTEX
8
Layer 1
10
109.934237
20
14.949075
70
0
0
VERTEX
8
Layer 1
10
109.093623
20
14.771871
70
0
0
VERTEX
8
Layer 1
10
108.479030
20
14.155327
70
0
0
VERTEX
8
Layer 1
10
107.156115
20
11.774079
70
0
0
VERTEX
8
Layer 1
10
106.362366
20
6.747002
70
0
0
VERTEX
8
Layer 1
10
105.700909
20
6.085545
70
0
0
VERTEX
8
Layer 1
10
103.817871
20
5.656193
70
0
0
VERTEX
8
Layer 1
10
101.996747
20
5.027213
70
0
0
VERTEX
8
Layer 1
10
101.750122
20
4.320942
70
0
0
VERTEX
8
Layer 1
10
101.864455
20
3.572007
70
0
0
VERTEX
8
Layer 1
10
103.848827
20
1.852217
70
0
0
VERTEX
8
Layer 1
10
106.494658
20
1.852217
70
0
0
VERTEX
8
Layer 1
10
107.189023
20
1.089259
70
0
0
VERTEX
8
Layer 1
10
107.552990
20
0.132427
70
0
0
VERTEX
8
Layer 1
10
98.821751
20
0.132427
70
0
0
VERTEX
8
Layer 1
10
99.171690
20
2.194641
70
0
0
VERTEX
8
Layer 1
10
99.178111
20
4.249041
70
0
0
VERTEX
8
Layer 1
10
98.840987
20
6.295653
70
0
0
VERTEX
8
Layer 1
10
98.160293
20
8.334501
70
0
0
VERTEX
8
Layer 1
10
98.027935
20
9.921999
70
0
0
VERTEX
8
Layer 1
10
98.160293
20
11.509496
70
0
0
VERTEX
8
Layer 1
10
98.548998
20
12.287503
70
0
0
VERTEX
8
Layer 1
10
99.086334
20
12.964703
70
0
0
VERTEX
8
Layer 1
10
100.929022
20
14.017247
70
0
0
VERTEX
8
Layer 1
10
102.658204
20
15.213658
70
0
0
VERTEX
8
Layer 1
10
103.717991
20
14.413030
70
0
0
VERTEX
8
Layer 1
10
104.510285
20
13.361577
70
0
0
VERTEX
8
Layer 1
10
104.885761
20
13.486593
70
0
0
VERTEX
8
Layer 1
10
105.171743
20
13.758452
70
0
0
VERTEX
8
Layer 1
10
103.837980
20
15.887452
70
0
0
VERTEX
8
Layer 1
10
102.261330
20
17.859488
70
0
0
VERTEX
8
Layer 1
10
101.065745
20
18.180196
70
0
0
VERTEX
8
Layer 1
10
99.880083
20
18.124071
70
0
0
VERTEX
8
Layer 1
10
100.574708
20
17.779725
70
0
0
VERTEX
8
Layer 1
10
101.092898
20
17.312199
70
0
0
VERTEX
8
Layer 1
10
101.434628
20
16.721443
70
0
0
VERTEX
8
Layer 1
10
101.599872
20
16.007407
70
0
0
VERTEX
8
Layer 1
10
101.068407
20
15.550646
70
0
0
VERTEX
8
Layer 1
10
100.494378
20
15.310231
70
0
0
VERTEX
8
Layer 1
10
99.877784
20
15.286113
70
0
0
VERTEX
8
Layer 1
10
99.218625
20
15.478241
70
0
0
VERTEX
8
Layer 1
10
98.489302
20
14.799785
70
0
0
VERTEX
8
Layer 1
10
97.498835
20
14.684493
70
0
0
VERTEX
8
Layer 1
10
97.732442
20
16.143941
70
0
0
VERTEX
8
Layer 1
10
98.229250
20
17.468303
70
0
0
VERTEX
8
Layer 1
10
98.989236
20
18.657529
70
0
0
VERTEX
8
Layer 1
10
100.012374
20
19.711569
70
0
0
VERTEX
8
Layer 1
10
100.380938
20
21.282597
70
0
0
VERTEX
8
Layer 1
10
100.144666
20
22.886566
70
0
0
VERTEX
8
Layer 1
10
98.561459
20
23.655349
70
0
0
VERTEX
8
Layer 1
10
97.388074
20
24.469057
70
0
0
VERTEX
8
Layer 1
10
96.624513
20
25.327692
70
0
0
VERTEX
8
Layer 1
10
96.270774
20
26.231258
70
0
0
VERTEX
8
Layer 1
10
96.326857
20
27.179758
70
0
0
VERTEX
8
Layer 1
10
96.792763
20
28.173194
70
0
0
VERTEX
8
Layer 1
10
97.668491
20
29.211570
70
0
0
VERTEX
8
Layer 1
10
98.954042
20
30.294889
70
0
0
VERTEX
8
Layer 1
10
99.288314
20
31.140137
70
0
0
VERTEX
8
Layer 1
10
99.245381
20
31.796696
70
0
0
VERTEX
8
Layer 1
10
98.825269
20
32.264590
70
0
0
VERTEX
8
Layer 1
10
98.028002
20
32.543845
70
0
0
VERTEX
8
Layer 1
10
97.673427
20
31.741034
70
0
0
VERTEX
8
Layer 1
10
97.101961
20
31.088639
70
0
0
VERTEX
8
Layer 1
10
96.059769
20
31.601797
70
0
0
VERTEX
8
Layer 1
10
95.117589
20
32.279262
70
0
0
VERTEX
8
Layer 1
10
94.437776
20
32.404509
70
0
0
VERTEX
8
Layer 1
10
93.794674
20
32.146970
70
0
0
VERTEX
8
Layer 1
10
94.690229
20
30.762767
70
0
0
VERTEX
8
Layer 1
10
94.847957
20
30.152141
70
0
0
VERTEX
8
Layer 1
10
94.812326
20
29.595828
70
0
0
VERTEX
8
Layer 1
10
94.583343
20
29.093825
70
0
0
VERTEX
8
Layer 1
10
94.161013
20
28.646128
70
0
0
VERTEX
8
Layer 1
10
92.736342
20
27.913642
70
0
0
VERTEX
8
Layer 1
10
92.163122
20
28.090020
70
0
0
VERTEX
8
Layer 1
10
91.678010
20
28.442808
70
0
0
VERTEX
8
Layer 1
10
91.148843
20
27.649059
70
0
0
VERTEX
8
Layer 1
10
92.207176
20
24.606355
70
0
0
VERTEX
8
Layer 1
10
92.052428
20
24.187024
70
0
0
VERTEX
8
Layer 1
10
91.678010
20
23.944897
70
0
0
VERTEX
8
Layer 1
10
90.222803
20
25.003230
70
0
0
VERTEX
8
Layer 1
10
89.825929
20
24.606355
70
0
0
VERTEX
8
Layer 1
10
91.148843
20
22.886566
70
0
0
VERTEX
8
Layer 1
10
90.619678
20
21.563650
70
0
0
VERTEX
8
Layer 1
10
89.022258
20
21.344146
70
0
0
VERTEX
8
Layer 1
10
87.444682
20
21.695942
70
0
0
VERTEX
8
Layer 1
10
86.028336
20
23.100282
70
0
0
VERTEX
8
Layer 1
10
84.497888
20
24.362145
70
0
0
VERTEX
8
Layer 1
10
82.853340
20
25.481529
70
0
0
VERTEX
8
Layer 1
10
81.094690
20
26.458436
70
0
0
VERTEX
8
Layer 1
10
79.584334
20
27.008847
70
0
0
VERTEX
8
Layer 1
10
78.353279
20
27.875840
70
0
0
VERTEX
8
Layer 1
10
77.401524
20
29.059390
70
0
0
VERTEX
8
Layer 1
10
76.729070
20
30.559472
70
0
0
VERTEX
8
Layer 1
10
76.444313
20
31.533601
70
0
0
VERTEX
8
Layer 1
10
76.332195
20
32.543845
70
0
0
VERTEX
8
Layer 1
10
76.479006
20
33.802499
70
0
0
VERTEX
8
Layer 1
10
76.464487
20
35.057384
70
0
0
VERTEX
8
Layer 1
10
76.067613
20
35.321967
70
0
0
VERTEX
8
Layer 1
10
75.009281
20
32.411553
70
0
0
VERTEX
8
Layer 1
10
74.206800
20
33.623741
70
0
0
VERTEX
8
Layer 1
10
73.818657
20
35.057384
70
0
0
VERTEX
8
Layer 1
10
73.585295
20
36.668099
70
0
0
VERTEX
8
Layer 1
10
73.818657
20
38.232379
70
0
0
VERTEX
8
Layer 1
10
78.713442
20
40.481335
70
0
0
VERTEX
8
Layer 1
10
79.723988
20
41.194857
70
0
0
VERTEX
8
Layer 1
10
80.501792
20
42.072140
70
0
0
VERTEX
8
Layer 1
10
81.046879
20
43.113134
70
0
0
VERTEX
8
Layer 1
10
81.359273
20
44.317788
70
0
0
VERTEX
8
Layer 1
10
81.226981
20
47.228201
70
0
0
VERTEX
8
Layer 1
10
80.653894
20
47.470361
70
0
0
VERTEX
8
Layer 1
10
80.036358
20
47.360493
70
0
0
VERTEX
8
Layer 1
10
79.366727
20
46.502351
70
0
0
VERTEX
8
Layer 1
10
78.570270
20
46.017867
70
0
0
VERTEX
8
Layer 1
10
77.646962
20
45.907039
70
0
0
VERTEX
8
Layer 1
10
76.596778
20
46.169869
70
0
0
VERTEX
8
Layer 1
10
75.574000
20
45.791317
70
0
0
VERTEX
8
Layer 1
10
74.744698
20
45.111537
70
0
0
VERTEX
8
Layer 1
10
74.480114
20
45.376120
70
0
0
VERTEX
8
Layer 1
10
74.853470
20
45.879862
70
0
0
VERTEX
8
Layer 1
10
74.999987
20
46.400520
70
0
0
VERTEX
8
Layer 1
10
74.919641
20
46.938144
70
0
0
VERTEX
8
Layer 1
10
74.612406
20
47.492784
70
0
0
VERTEX
8
Layer 1
10
73.961995
20
47.953523
70
0
0
VERTEX
8
Layer 1
10
73.157200
20
48.021951
70
0
0
VERTEX
8
Layer 1
10
73.024908
20
46.169869
70
0
0
VERTEX
8
Layer 1
10
70.908244
20
43.524040
70
0
0
VERTEX
8
Layer 1
10
70.246786
20
37.306339
70
0
0
VERTEX
8
Layer 1
10
70.379078
20
34.528217
70
0
0
VERTEX
8
Layer 1
10
71.485167
20
32.532567
70
0
0
VERTEX
8
Layer 1
10
72.363450
20
30.427181
70
0
0
VERTEX
8
Layer 1
10
72.077469
20
30.155322
70
0
0
VERTEX
8
Layer 1
10
71.701993
20
30.030306
70
0
0
VERTEX
8
Layer 1
10
69.915826
20
30.856831
70
0
0
VERTEX
8
Layer 1
10
68.262414
20
31.882387
70
0
0
VERTEX
8
Layer 1
10
67.468665
20
35.057384
70
0
0
VERTEX
8
Layer 1
10
67.216311
20
34.594723
70
0
0
VERTEX
8
Layer 1
10
67.154208
20
34.131839
70
0
0
VERTEX
8
Layer 1
10
67.282407
20
33.668707
70
0
0
VERTEX
8
Layer 1
10
67.600957
20
33.205303
70
0
0
VERTEX
8
Layer 1
10
67.411354
20
32.245412
70
0
0
VERTEX
8
Layer 1
10
66.995359
20
31.462428
70
0
0
VERTEX
8
Layer 1
10
66.352997
20
30.856351
70
0
0
VERTEX
8
Layer 1
10
65.484293
20
30.427181
70
0
0
VERTEX
8
Layer 1
10
64.349661
20
29.293311
70
0
0
VERTEX
8
Layer 1
10
63.367629
20
28.045934
70
0
0
VERTEX
8
Layer 1
10
63.687613
20
27.406528
70
0
0
VERTEX
8
Layer 1
10
63.838355
20
26.752388
70
0
0
VERTEX
8
Layer 1
10
63.819879
20
26.083563
70
0
0
VERTEX
8
Layer 1
10
63.632212
20
25.400104
70
0
0
VERTEX
8
Layer 1
10
63.960220
20
24.816839
70
0
0
VERTEX
8
Layer 1
10
64.378269
20
24.534256
70
0
0
VERTEX
8
Layer 1
10
64.886310
20
24.552306
70
0
0
VERTEX
8
Layer 1
10
65.484293
20
24.870938
70
0
0
VERTEX
8
Layer 1
10
67.128353
20
26.211981
70
0
0
VERTEX
8
Layer 1
10
67.746059
20
26.439747
70
0
0
VERTEX
8
Layer 1
10
68.227555
20
26.372347
70
0
0
VERTEX
8
Layer 1
10
68.572849
20
26.009784
70
0
0
VERTEX
8
Layer 1
10
68.781948
20
25.352062
70
0
0
VERTEX
8
Layer 1
10
68.791580
20
23.151149
70
0
0
VERTEX
8
Layer 1
10
69.982203
20
19.446986
70
0
0
VERTEX
8
Layer 1
10
69.879310
20
19.021384
70
0
0
VERTEX
8
Layer 1
10
69.668640
20
18.769290
70
0
0
VERTEX
8
Layer 1
10
69.350168
20
18.690680
70
0
0
VERTEX
8
Layer 1
10
68.923872
20
18.785529
70
0
0
VERTEX
8
Layer 1
10
68.117191
20
20.941153
70
0
0
VERTEX
8
Layer 1
10
67.468665
20
23.151149
70
0
0
VERTEX
8
Layer 1
10
66.689456
20
23.196591
70
0
0
VERTEX
8
Layer 1
10
66.209217
20
22.947155
70
0
0
VERTEX
8
Layer 1
10
66.027973
20
22.402842
70
0
0
VERTEX
8
Layer 1
10
66.145750
20
21.563650
70
0
0
VERTEX
8
Layer 1
10
67.239735
20
19.905112
70
0
0
VERTEX
8
Layer 1
10
68.526997
20
18.388655
70
0
0
VERTEX
8
Layer 1
10
68.639618
20
17.306824
70
0
0
VERTEX
8
Layer 1
10
68.434591
20
16.350902
70
0
0
VERTEX
8
Layer 1
10
67.911966
20
15.520889
70
0
0
VERTEX
8
Layer 1
10
67.071791
20
14.816784
70
0
0
VERTEX
8
Layer 1
10
65.820280
20
14.474877
70
0
0
VERTEX
8
Layer 1
10
64.558252
20
14.419910
70
0
0
VERTEX
8
Layer 1
10
64.508891
20
13.247149
70
0
0
VERTEX
8
Layer 1
10
64.624728
20
12.106561
70
0
0
VERTEX
8
Layer 1
10
64.905765
20
10.998169
70
0
0
VERTEX
8
Layer 1
10
65.352001
20
9.921999
70
0
0
VERTEX
8
Layer 1
10
66.777376
20
11.015987
70
0
0
VERTEX
8
Layer 1
10
67.980104
20
12.284625
70
0
0
VERTEX
8
Layer 1
10
68.960186
20
13.727938
70
0
0
VERTEX
8
Layer 1
10
69.717621
20
15.345950
70
0
0
VERTEX
8
Layer 1
10
70.491675
20
15.621583
70
0
0
VERTEX
8
Layer 1
10
71.146567
20
15.559105
70
0
0
VERTEX
8
Layer 1
10
71.682298
20
15.158538
70
0
0
VERTEX
8
Layer 1
10
72.098867
20
14.419910
70
0
0
VERTEX
8
Layer 1
10
71.569702
20
13.493869
70
0
0
VERTEX
8
Layer 1
10
70.345980
20
12.765604
70
0
0
VERTEX
8
Layer 1
10
69.519183
20
11.795246
70
0
0
VERTEX
8
Layer 1
10
69.089261
20
10.582795
70
0
0
VERTEX
8
Layer 1
10
69.056163
20
9.128249
70
0
0
VERTEX
8
Layer 1
10
68.130122
20
8.202209
70
0
0
VERTEX
8
Layer 1
10
64.822835
20
7.011585
70
0
0
VERTEX
8
Layer 1
10
65.329644
20
4.166392
70
0
0
VERTEX
8
Layer 1
10
66.410333
20
1.455343
70
0
0
VERTEX
8
Layer 1
10
66.542625
20
0.132427
70
0
0
VERTEX
8
Layer 1
10
59.663467
20
0.132427
70
0
0
VERTEX
8
Layer 1
10
59.325718
20
1.981507
70
0
0
VERTEX
8
Layer 1
10
59.191120
20
3.832621
70
0
0
VERTEX
8
Layer 1
10
59.259622
20
5.685719
70
0
0
VERTEX
8
Layer 1
10
59.531175
20
7.540751
70
0
0
VERTEX
8
Layer 1
10
60.457216
20
9.128249
70
0
0
VERTEX
8
Layer 1
10
59.980966
20
11.484097
70
0
0
VERTEX
8
Layer 1
10
60.060341
20
13.890743
70
0
0
VERTEX
8
Layer 1
10
62.061151
20
15.222224
70
0
0
VERTEX
8
Layer 1
10
64.161378
20
16.404282
70
0
0
VERTEX
8
Layer 1
10
64.598601
20
16.922203
70
0
0
VERTEX
8
Layer 1
10
64.690544
20
17.594905
70
0
0
VERTEX
8
Layer 1
10
59.795758
20
16.007407
70
0
0
VERTEX
8
Layer 1
10
58.869718
20
16.139699
70
0
0
VERTEX
8
Layer 1
10
58.075969
20
17.462614
70
0
0
VERTEX
8
Layer 1
10
56.553393
20
17.716283
70
0
0
VERTEX
8
Layer 1
10
55.165556
20
18.388655
70
0
0
VERTEX
8
Layer 1
10
54.906033
20
17.610582
70
0
0
VERTEX
8
Layer 1
10
55.033264
20
16.801157
70
0
0
VERTEX
8
Layer 1
10
56.338849
20
14.440778
70
0
0
VERTEX
8
Layer 1
10
57.943677
20
12.303246
70
0
0
VERTEX
8
Layer 1
10
58.282178
20
10.155725
70
0
0
VERTEX
8
Layer 1
10
58.869718
20
8.069918
70
0
0
VERTEX
8
Layer 1
10
58.626797
20
6.721999
70
0
0
VERTEX
8
Layer 1
10
58.208260
20
5.424087
70
0
0
VERTEX
8
Layer 1
10
56.520386
20
3.738396
70
0
0
VERTEX
8
Layer 1
10
55.297847
20
1.719926
70
0
0
VERTEX
8
Layer 1
10
55.165556
20
0.132427
70
0
0
VERTEX
8
Layer 1
10
49.873896
20
0.132427
70
0
0
VERTEX
8
Layer 1
10
50.467620
20
3.420698
70
0
0
VERTEX
8
Layer 1
10
51.461393
20
6.614711
70
0
0
VERTEX
8
Layer 1
10
50.867272
20
7.938684
70
0
0
VERTEX
8
Layer 1
10
50.667645
20
9.392832
70
0
0
VERTEX
8
Layer 1
10
51.048082
20
12.696846
70
0
0
VERTEX
8
Layer 1
10
50.932228
20
16.007407
70
0
0
VERTEX
8
Layer 1
10
50.535353
20
15.742824
70
0
0
VERTEX
8
Layer 1
10
49.968219
20
12.377494
70
0
0
VERTEX
8
Layer 1
10
48.947855
20
9.128249
70
0
0
VERTEX
8
Layer 1
10
47.944953
20
7.651479
70
0
0
VERTEX
8
Layer 1
10
47.360357
20
5.953254
70
0
0
VERTEX
8
Layer 1
10
46.745764
20
5.336709
70
0
0
VERTEX
8
Layer 1
10
45.905151
20
5.159504
70
0
0
VERTEX
8
Layer 1
10
46.515180
20
7.917584
70
0
0
VERTEX
8
Layer 1
10
46.963483
20
10.715747
70
0
0
VERTEX
8
Layer 1
10
46.698900
20
11.377205
70
0
0
VERTEX
8
Layer 1
10
48.815564
20
17.859488
70
0
0
VERTEX
8
Layer 1
10
47.523671
20
20.181370
70
0
0
VERTEX
8
Layer 1
10
46.698900
20
22.754274
70
0
0
VERTEX
8
Layer 1
10
47.240480
20
24.137328
70
0
0
VERTEX
8
Layer 1
10
47.575364
20
25.546451
70
0
0
VERTEX
8
Layer 1
10
47.703525
20
26.981620
70
0
0
VERTEX
8
Layer 1
10
47.624940
20
28.442808
70
0
0
VERTEX
8
Layer 1
10
48.568476
20
29.508053
70
0
0
VERTEX
8
Layer 1
10
49.344729
20
30.691764
70
0
0
VERTEX
8
Layer 1
10
48.684132
20
31.553412
70
0
0
VERTEX
8
Layer 1
10
47.757232
20
32.146970
70
0
0
VERTEX
8
Layer 1
10
47.095774
20
35.586550
70
0
0
VERTEX
8
Layer 1
10
46.434317
20
35.851066
70
0
0
VERTEX
8
Layer 1
10
45.772859
20
35.586550
70
0
0
VERTEX
8
Layer 1
10
45.435268
20
34.604785
70
0
0
VERTEX
8
Layer 1
10
45.388883
20
33.660154
70
0
0
VERTEX
8
Layer 1
10
45.633705
20
32.752680
70
0
0
VERTEX
8
Layer 1
10
46.169733
20
31.882387
70
0
0
VERTEX
8
Layer 1
10
45.678452
20
31.173123
70
0
0
VERTEX
8
Layer 1
10
45.117818
20
30.870556
70
0
0
VERTEX
8
Layer 1
10
44.487829
20
30.974686
70
0
0
VERTEX
8
Layer 1
10
43.788487
20
31.485513
70
0
0
VERTEX
8
Layer 1
10
42.465572
20
31.617805
70
0
0
VERTEX
8
Layer 1
10
43.187089
20
33.588650
70
0
0
VERTEX
8
Layer 1
10
44.449944
20
35.321967
70
0
0
VERTEX
8
Layer 1
10
45.640568
20
37.967797
70
0
0
VERTEX
8
Layer 1
10
45.375985
20
38.629254
70
0
0
VERTEX
8
Layer 1
10
44.630662
20
38.838109
70
0
0
VERTEX
8
Layer 1
10
44.073509
20
39.238456
70
0
0
VERTEX
8
Layer 1
10
43.704572
20
39.830295
70
0
0
VERTEX
8
Layer 1
10
43.523904
20
40.613626
70
0
0
VERTEX
8
Layer 1
10
42.977961
20
40.845302
70
0
0
VERTEX
8
Layer 1
10
42.553413
20
41.187110
70
0
0
VERTEX
8
Layer 1
10
42.250308
20
41.639051
70
0
0
VERTEX
8
Layer 1
10
42.068697
20
42.201125
70
0
0
VERTEX
8
Layer 1
10
42.043892
20
44.599239
70
0
0
VERTEX
8
Layer 1
10
42.465572
20
46.963619
70
0
0
VERTEX
8
Layer 1
10
42.341743
20
48.312153
70
0
0
VERTEX
8
Layer 1
10
42.057948
20
48.805745
70
0
0
VERTEX
8
Layer 1
10
41.614164
20
48.444419
70
0
0
VERTEX
8
Layer 1
10
41.010365
20
47.228201
70
0
0
VERTEX
8
Layer 1
10
40.878073
20
46.169869
70
0
0
VERTEX
8
Layer 1
10
41.300943
20
41.415511
70
0
0
VERTEX
8
Layer 1
10
41.274948
20
36.644881
70
0
0
VERTEX
8
Layer 1
10
40.922482
20
35.278046
70
0
0
VERTEX
8
Layer 1
10
40.363989
20
34.028685
70
0
0
VERTEX
8
Layer 1
10
39.599517
20
32.896799
70
0
0
VERTEX
8
Layer 1
10
38.629118
20
31.882387
70
0
0
VERTEX
8
Layer 1
10
38.496827
20
30.824056
70
0
0
VERTEX
8
Layer 1
10
37.505484
20
30.709702
70
0
0
VERTEX
8
Layer 1
10
36.778161
20
30.296775
70
0
0
VERTEX
8
Layer 1
10
36.314860
20
29.585249
70
0
0
VERTEX
8
Layer 1
10
36.115580
20
28.575100
70
0
0
VERTEX
8
Layer 1
10
36.465920
20
27.851697
70
0
0
VERTEX
8
Layer 1
10
36.979575
20
27.345980
70
0
0
VERTEX
8
Layer 1
10
37.656544
20
27.057948
70
0
0
VERTEX
8
Layer 1
10
38.496827
20
26.987602
70
0
0
VERTEX
8
Layer 1
10
39.025993
20
26.061561
70
0
0
VERTEX
8
Layer 1
10
35.718705
20
21.828233
70
0
0
VERTEX
8
Layer 1
10
35.134254
20
20.756614
70
0
0
VERTEX
8
Layer 1
10
35.093793
20
20.178955
70
0
0
VERTEX
8
Layer 1
10
35.597299
20
20.095207
70
0
0
VERTEX
8
Layer 1
10
36.644745
20
20.505319
70
0
0
VERTEX
8
Layer 1
10
39.687450
20
23.944897
70
0
0
VERTEX
8
Layer 1
10
40.136117
20
23.761178
70
0
0
VERTEX
8
Layer 1
10
40.481199
20
23.415731
70
0
0
VERTEX
8
Layer 1
10
41.279512
20
21.285706
70
0
0
VERTEX
8
Layer 1
10
41.671823
20
19.050112
70
0
0
VERTEX
8
Layer 1
10
41.407240
20
17.462614
70
0
0
VERTEX
8
Layer 1
10
39.158284
20
17.065739
70
0
0
VERTEX
8
Layer 1
10
38.785970
20
16.300958
70
0
0
VERTEX
8
Layer 1
10
38.639801
20
15.538930
70
0
0
VERTEX
8
Layer 1
10
38.719800
20
14.779631
70
0
0
VERTEX
8
Layer 1
10
39.025993
20
14.023035
70
0
0
VERTEX
8
Layer 1
10
37.835369
20
11.509496
70
0
0
VERTEX
8
Layer 1
10
37.192577
20
11.145612
70
0
0
VERTEX
8
Layer 1
10
36.537358
20
11.024317
70
0
0
VERTEX
8
Layer 1
10
35.869687
20
11.145612
70
0
0
VERTEX
8
Layer 1
10
35.189539
20
11.509496
70
0
0
VERTEX
8
Layer 1
10
34.740872
20
11.325777
70
0
0
VERTEX
8
Layer 1
10
34.395790
20
10.980330
70
0
0
VERTEX
8
Layer 1
10
33.676819
20
12.672339
70
0
0
VERTEX
8
Layer 1
10
33.337458
20
14.419910
70
0
0
VERTEX
8
Layer 1
10
33.752622
20
15.667088
70
0
0
VERTEX
8
Layer 1
10
34.395790
20
16.801157
70
0
0
VERTEX
8
Layer 1
10
34.792665
20
19.711569
70
0
0
VERTEX
8
Layer 1
10
33.999048
20
20.217584
70
0
0
VERTEX
8
Layer 1
10
33.072875
20
20.505319
70
0
0
VERTEX
8
Layer 1
10
33.141534
20
21.510006
70
0
0
VERTEX
8
Layer 1
10
33.469749
20
22.489691
70
0
0
VERTEX
8
Layer 1
10
32.543709
20
24.474063
70
0
0
VERTEX
8
Layer 1
10
32.180602
20
23.722979
70
0
0
VERTEX
8
Layer 1
10
32.014543
20
22.886566
70
0
0
VERTEX
8
Layer 1
10
31.353086
20
22.621983
70
0
0
VERTEX
8
Layer 1
10
30.427045
20
22.886499
70
0
0
VERTEX
8
Layer 1
10
29.501005
20
22.621983
70
0
0
VERTEX
8
Layer 1
10
28.341966
20
23.119134
70
0
0
VERTEX
8
Layer 1
10
27.384341
20
23.944897
70
0
0
VERTEX
8
Layer 1
10
26.586643
20
23.228436
70
0
0
VERTEX
8
Layer 1
10
26.342790
20
22.548660
70
0
0
VERTEX
8
Layer 1
10
26.652784
20
21.905545
70
0
0
VERTEX
8
Layer 1
10
27.516632
20
21.299067
70
0
0
VERTEX
8
Layer 1
10
27.534735
20
20.649028
70
0
0
VERTEX
8
Layer 1
10
27.364398
20
20.079604
70
0
0
VERTEX
8
Layer 1
10
27.005594
20
19.590746
70
0
0
VERTEX
8
Layer 1
10
26.458300
20
19.182403
70
0
0
VERTEX
8
Layer 1
10
25.839335
20
16.619553
70
0
0
VERTEX
8
Layer 1
10
24.870802
20
14.155327
70
0
0
VERTEX
8
Layer 1
10
23.799664
20
13.689826
70
0
0
VERTEX
8
Layer 1
10
22.621847
20
13.626160
70
0
0
VERTEX
8
Layer 1
10
22.886430
20
15.742824
70
0
0
VERTEX
8
Layer 1
10
22.169154
20
15.513625
70
0
0
VERTEX
8
Layer 1
10
21.577283
20
15.591582
70
0
0
VERTEX
8
Layer 1
10
21.110819
20
15.976670
70
0
0
VERTEX
8
Layer 1
10
20.769766
20
16.668865
70
0
0
VERTEX
8
Layer 1
10
21.201509
20
18.702020
70
0
0
VERTEX
8
Layer 1
10
21.431223
20
20.769902
70
0
0
VERTEX
8
Layer 1
10
21.832949
20
21.860620
70
0
0
VERTEX
8
Layer 1
10
22.385782
20
22.378500
70
0
0
VERTEX
8
Layer 1
10
23.089721
20
22.323591
70
0
0
VERTEX
8
Layer 1
10
23.944762
20
21.695942
70
0
0
VERTEX
8
Layer 1
10
25.003094
20
21.563650
70
0
0
VERTEX
8
Layer 1
10
25.043796
20
23.292965
70
0
0
VERTEX
8
Layer 1
10
25.267677
20
25.003230
70
0
0
VERTEX
8
Layer 1
10
24.221472
20
24.622627
70
0
0
VERTEX
8
Layer 1
10
23.415596
20
23.812606
70
0
0
VERTEX
8
Layer 1
10
23.018721
20
23.680248
70
0
0
VERTEX
8
Layer 1
10
22.621847
20
23.812606
70
0
0
VERTEX
8
Layer 1
10
21.894937
20
24.498699
70
0
0
VERTEX
8
Layer 1
10
21.410096
20
25.278627
70
0
0
VERTEX
8
Layer 1
10
21.167329
20
26.152367
70
0
0
VERTEX
8
Layer 1
10
21.166640
20
27.119894
70
0
0
VERTEX
8
Layer 1
10
23.708403
20
28.231341
70
0
0
VERTEX
8
Layer 1
10
26.326009
20
29.104266
70
0
0
VERTEX
8
Layer 1
10
27.421688
20
30.198900
70
0
0
VERTEX
8
Layer 1
10
28.668825
20
31.004733
70
0
0
VERTEX
8
Layer 1
10
30.067468
20
31.521790
70
0
0
VERTEX
8
Layer 1
10
31.617669
20
31.750096
70
0
0
VERTEX
8
Layer 1
10
32.281879
20
32.483074
70
0
0
VERTEX
8
Layer 1
10
32.415122
20
32.925837
70
0
0
VERTEX
8
Layer 1
10
32.017346
20
33.078385
70
0
0
VERTEX
8
Layer 1
10
31.088503
20
32.940720
70
0
0
VERTEX
8
Layer 1
10
29.633296
20
33.734469
70
0
0
VERTEX
8
Layer 1
10
25.207739
20
30.925986
70
0
0
VERTEX
8
Layer 1
10
20.505183
20
28.575100
70
0
0
VERTEX
8
Layer 1
10
19.091056
20
27.473575
70
0
0
VERTEX
8
Layer 1
10
17.859352
20
26.193853
70
0
0
VERTEX
8
Layer 1
10
16.721156
20
26.306760
70
0
0
VERTEX
8
Layer 1
10
15.966933
20
26.763335
70
0
0
VERTEX
8
Layer 1
10
15.596680
20
27.563554
70
0
0
VERTEX
8
Layer 1
10
15.610397
20
28.707391
70
0
0
VERTEX
8
Layer 1
10
17.531948
20
31.755586
70
0
0
VERTEX
8
Layer 1
10
19.049976
20
35.057384
70
0
0
VERTEX
8
Layer 1
10
23.944762
20
42.597999
70
0
0
VERTEX
8
Layer 1
10
26.999296
20
44.522477
70
0
0
VERTEX
8
Layer 1
10
30.294754
20
46.037578
70
0
0
VERTEX
8
Layer 1
10
32.306312
20
46.078026
70
0
0
VERTEX
8
Layer 1
10
34.263499
20
45.772995
70
0
0
VERTEX
8
Layer 1
10
34.731546
20
46.307585
70
0
0
VERTEX
8
Layer 1
10
34.713777
20
46.620421
70
0
0
VERTEX
8
Layer 1
10
34.528081
20
46.963619
70
0
0
VERTEX
8
Layer 1
10
32.940584
20
47.889659
70
0
0
VERTEX
8
Layer 1
10
32.198275
20
48.778207
70
0
0
VERTEX
8
Layer 1
10
31.896951
20
48.959011
70
0
0
VERTEX
8
Layer 1
10
31.642176
20
48.964164
70
0
0
VERTEX
8
Layer 1
10
31.272260
20
48.447503
70
0
0
VERTEX
8
Layer 1
10
31.088503
20
47.228201
70
0
0
VERTEX
8
Layer 1
10
23.680179
20
44.979246
70
0
0
VERTEX
8
Layer 1
10
21.629664
20
43.193278
70
0
0
VERTEX
8
Layer 1
10
19.843725
20
41.142792
70
0
0
VERTEX
8
Layer 1
10
18.653102
20
37.438631
70
0
0
VERTEX
8
Layer 1
10
16.761257
20
34.979001
70
0
0
VERTEX
8
Layer 1
10
15.213522
20
32.279262
70
0
0
VERTEX
8
Layer 1
10
13.361442
20
31.882387
70
0
0
VERTEX
8
Layer 1
10
13.039418
20
31.046768
70
0
0
VERTEX
8
Layer 1
10
12.567692
20
30.294889
70
0
0
VERTEX
8
Layer 1
10
11.641652
20
31.353222
70
0
0
VERTEX
8
Layer 1
10
11.124111
20
30.595985
70
0
0
VERTEX
8
Layer 1
10
11.112486
20
29.765723
70
0
0
VERTEX
8
Layer 1
10
10.039179
20
30.531923
70
0
0
VERTEX
8
Layer 1
10
8.731239
20
30.824056
70
0
0
VERTEX
8
Layer 1
10
7.106220
20
30.372578
70
0
0
VERTEX
8
Layer 1
10
5.423952
20
30.162598
70
0
0
VERTEX
8
Layer 1
10
3.836454
20
28.707391
70
0
0
VERTEX
8
Layer 1
10
3.174996
20
29.236558
70
0
0
VERTEX
8
Layer 1
10
2.248956
20
35.718841
70
0
0
VERTEX
8
Layer 1
10
2.910413
20
37.967797
70
0
0
VERTEX
8
Layer 1
10
4.022351
20
38.780145
70
0
0
VERTEX
8
Layer 1
10
4.944213
20
39.734450
70
0
0
VERTEX
8
Layer 1
10
5.675997
20
40.830688
70
0
0
VERTEX
8
Layer 1
10
6.217701
20
42.068833
70
0
0
VERTEX
8
Layer 1
10
6.085409
20
45.905287
70
0
0
VERTEX
8
Layer 1
10
5.556243
20
48.021951
70
0
0
VERTEX
8
Layer 1
10
3.861390
20
50.888575
70
0
0
VERTEX
8
Layer 1
10
1.984373
20
53.578193
70
0
0
VERTEX
8
Layer 1
10
-0.132292
20
52.784444
70
0
0
VERTEX
8
Layer 1
10
-0.132292
20
108.082291
70
0
0
VERTEX
8
Layer 1
10
-0.132292
20
108.082291
70
0
0
SEQEND
8
Layer 1
0
POLYLINE
8
Layer 1
62
7
70
1
10
0.000000
20
0.000000
66
1
0
VERTEX
8
Layer 1
10
131.100876
20
100.144801
70
0
0
VERTEX
8
Layer 1
10
131.311881
20
100.381276
70
0
0
VERTEX
8
Layer 1
10
131.630043
20
100.277093
70
0
0
VERTEX
8
Layer 1
10
132.820666
20
99.086470
70
0
0
VERTEX
8
Layer 1
10
132.936289
20
98.662806
70
0
0
VERTEX
8
Layer 1
10
132.688375
20
98.292721
70
0
0
VERTEX
8
Layer 1
10
131.751949
20
99.114284
70
0
0
VERTEX
8
Layer 1
10
131.100876
20
100.144801
70
0
0
VERTEX
8
Layer 1
10
131.100876
20
100.144801
70
0
0
SEQEND
8
Layer 1
0
POLYLINE
8
Layer 1
62
7
70
1
10
0.000000
20
0.000000
66
1
0
VERTEX
8
Layer 1
10
161.792505
20
36.909464
70
0
0
VERTEX
8
Layer 1
10
161.792505
20
33.999051
70
0
0
VERTEX
8
Layer 1
10
160.611063
20
34.118515
70
0
0
VERTEX
8
Layer 1
10
159.533726
20
34.467000
70
0
0
VERTEX
8
Layer 1
10
158.560520
20
35.044531
70
0
0
VERTEX
8
Layer 1
10
157.691468
20
35.851133
70
0
0
VERTEX
8
Layer 1
10
156.916934
20
38.177677
70
0
0
VERTEX
8
Layer 1
10
155.839387
20
40.349043
70
0
0
VERTEX
8
Layer 1
10
155.045638
20
37.174048
70
0
0
VERTEX
8
Layer 1
10
153.913587
20
38.305735
70
0
0
VERTEX
8
Layer 1
10
152.928974
20
39.555295
70
0
0
VERTEX
8
Layer 1
10
151.391317
20
43.638935
70
0
0
VERTEX
8
Layer 1
10
150.415436
20
47.889659
70
0
0
VERTEX
8
Layer 1
10
151.456966
20
49.988497
70
0
0
VERTEX
8
Layer 1
10
152.664391
20
51.990696
70
0
0
VERTEX
8
Layer 1
10
152.796749
20
52.784444
70
0
0
VERTEX
8
Layer 1
10
152.664391
20
53.578193
70
0
0
VERTEX
8
Layer 1
10
152.015303
20
53.969280
70
0
0
VERTEX
8
Layer 1
10
151.473768
20
54.504234
70
0
0
VERTEX
8
Layer 1
10
151.076893
20
54.636592
70
0
0
VERTEX
8
Layer 1
10
150.680019
20
54.504234
70
0
0
VERTEX
8
Layer 1
10
149.997924
20
53.199509
70
0
0
VERTEX
8
Layer 1
10
149.753978
20
51.726112
70
0
0
VERTEX
8
Layer 1
10
149.099300
20
51.264746
70
0
0
VERTEX
8
Layer 1
10
148.298772
20
51.329238
70
0
0
VERTEX
8
Layer 1
10
147.628814
20
51.999559
70
0
0
VERTEX
8
Layer 1
10
146.843565
20
52.519861
70
0
0
VERTEX
8
Layer 1
10
146.314399
20
54.901108
70
0
0
VERTEX
8
Layer 1
10
145.171136
20
56.572479
70
0
0
VERTEX
8
Layer 1
10
144.197735
20
58.340688
70
0
0
VERTEX
8
Layer 1
10
144.189202
20
59.366608
70
0
0
VERTEX
8
Layer 1
10
144.594610
20
60.325060
70
0
0
VERTEX
8
Layer 1
10
144.234016
20
61.179961
70
0
0
VERTEX
8
Layer 1
10
143.536278
20
61.780267
70
0
0
VERTEX
8
Layer 1
10
142.081071
20
58.340688
70
0
0
VERTEX
8
Layer 1
10
141.641367
20
58.105771
70
0
0
VERTEX
8
Layer 1
10
141.155031
20
58.208396
70
0
0
VERTEX
8
Layer 1
10
139.038366
20
60.457352
70
0
0
VERTEX
8
Layer 1
10
140.758156
20
61.515684
70
0
0
VERTEX
8
Layer 1
10
140.754551
20
62.059633
70
0
0
VERTEX
8
Layer 1
10
140.493573
20
62.574016
70
0
0
VERTEX
8
Layer 1
10
139.410668
20
63.110160
70
0
0
VERTEX
8
Layer 1
10
138.244618
20
63.500056
70
0
0
VERTEX
8
Layer 1
10
137.687439
20
64.321818
70
0
0
VERTEX
8
Layer 1
10
136.921703
20
64.955263
70
0
0
VERTEX
8
Layer 1
10
136.464470
20
64.515889
70
0
0
VERTEX
8
Layer 1
10
136.260245
20
63.896931
70
0
0
VERTEX
8
Layer 1
10
136.022468
20
62.650153
70
0
0
VERTEX
8
Layer 1
10
136.273937
20
61.749476
70
0
0
VERTEX
8
Layer 1
10
137.014654
20
61.194922
70
0
0
VERTEX
8
Layer 1
10
138.244618
20
60.986517
70
0
0
VERTEX
8
Layer 1
10
137.180365
20
60.324002
70
0
0
VERTEX
8
Layer 1
10
135.995662
20
59.928185
70
0
0
VERTEX
8
Layer 1
10
135.975587
20
56.993563
70
0
0
VERTEX
8
Layer 1
10
136.524828
20
54.107360
70
0
0
VERTEX
8
Layer 1
10
137.186285
20
53.445902
70
0
0
VERTEX
8
Layer 1
10
139.567532
20
52.519861
70
0
0
VERTEX
8
Layer 1
10
138.113186
20
51.263919
70
0
0
VERTEX
8
Layer 1
10
136.789411
20
49.874032
70
0
0
VERTEX
8
Layer 1
10
136.392537
20
47.360493
70
0
0
VERTEX
8
Layer 1
10
137.450869
20
45.640704
70
0
0
VERTEX
8
Layer 1
10
136.815919
20
44.373731
70
0
0
VERTEX
8
Layer 1
10
136.670415
20
43.157658
70
0
0
VERTEX
8
Layer 1
10
137.014356
20
41.992484
70
0
0
VERTEX
8
Layer 1
10
137.847743
20
40.878209
70
0
0
VERTEX
8
Layer 1
10
139.699824
20
36.380298
70
0
0
VERTEX
8
Layer 1
10
139.038366
20
32.411553
70
0
0
VERTEX
8
Layer 1
10
139.964407
20
26.326144
70
0
0
VERTEX
8
Layer 1
10
140.493573
20
25.796978
70
0
0
VERTEX
8
Layer 1
10
140.718646
20
26.436145
70
0
0
VERTEX
8
Layer 1
10
141.080319
20
26.913783
70
0
0
VERTEX
8
Layer 1
10
141.578566
20
27.229894
70
0
0
VERTEX
8
Layer 1
10
142.213363
20
27.384477
70
0
0
VERTEX
8
Layer 1
10
142.036588
20
26.500769
70
0
0
VERTEX
8
Layer 1
10
141.684197
20
25.664687
70
0
0
VERTEX
8
Layer 1
10
142.059772
20
25.098281
70
0
0
VERTEX
8
Layer 1
10
142.742529
20
25.135521
70
0
0
VERTEX
8
Layer 1
10
143.800860
20
28.575100
70
0
0
VERTEX
8
Layer 1
10
142.924529
20
30.139149
70
0
0
VERTEX
8
Layer 1
10
142.345654
20
31.882387
70
0
0
VERTEX
8
Layer 1
10
142.315640
20
32.486029
70
0
0
VERTEX
8
Layer 1
10
142.437927
20
33.040037
70
0
0
VERTEX
8
Layer 1
10
142.712515
20
33.544386
70
0
0
VERTEX
8
Layer 1
10
143.139403
20
33.999051
70
0
0
VERTEX
8
Layer 1
10
144.010939
20
32.862403
70
0
0
VERTEX
8
Layer 1
10
144.726901
20
31.617805
70
0
0
VERTEX
8
Layer 1
10
145.002960
20
32.687811
70
0
0
VERTEX
8
Layer 1
10
145.785233
20
33.469886
70
0
0
VERTEX
8
Layer 1
10
146.855074
20
31.312112
70
0
0
VERTEX
8
Layer 1
10
147.505022
20
28.971975
70
0
0
VERTEX
8
Layer 1
10
146.049816
20
19.711569
70
0
0
VERTEX
8
Layer 1
10
146.357625
20
19.489849
70
0
0
VERTEX
8
Layer 1
10
146.711274
20
19.579278
70
0
0
VERTEX
8
Layer 1
10
148.166480
20
21.299067
70
0
0
VERTEX
8
Layer 1
10
148.718301
20
20.707063
70
0
0
VERTEX
8
Layer 1
10
149.092521
20
19.976152
70
0
0
VERTEX
8
Layer 1
10
149.985521
20
20.397865
70
0
0
VERTEX
8
Layer 1
10
150.944602
20
20.637610
70
0
0
VERTEX
8
Layer 1
10
151.072693
20
21.091047
70
0
0
VERTEX
8
Layer 1
10
150.983098
20
21.396500
70
0
0
VERTEX
8
Layer 1
10
150.675818
20
21.554018
70
0
0
VERTEX
8
Layer 1
10
150.150853
20
21.563650
70
0
0
VERTEX
8
Layer 1
10
150.223944
20
24.236270
70
0
0
VERTEX
8
Layer 1
10
150.680019
20
26.855311
70
0
0
VERTEX
8
Layer 1
10
150.318267
20
29.093550
70
0
0
VERTEX
8
Layer 1
10
150.283144
20
31.353222
70
0
0
VERTEX
8
Layer 1
10
150.680019
20
32.146970
70
0
0
VERTEX
8
Layer 1
10
151.566074
20
31.726879
70
0
0
VERTEX
8
Layer 1
10
152.532100
20
31.750096
70
0
0
VERTEX
8
Layer 1
10
152.453919
20
33.494058
70
0
0
VERTEX
8
Layer 1
10
151.942774
20
35.023484
70
0
0
VERTEX
8
Layer 1
10
150.998688
20
36.338350
70
0
0
VERTEX
8
Layer 1
10
149.621687
20
37.438631
70
0
0
VERTEX
8
Layer 1
10
149.302107
20
38.369107
70
0
0
VERTEX
8
Layer 1
10
148.908933
20
38.723346
70
0
0
VERTEX
8
Layer 1
10
148.442188
20
38.501374
70
0
0
VERTEX
8
Layer 1
10
147.901897
20
37.703214
70
0
0
VERTEX
8
Layer 1
10
147.895340
20
36.664047
70
0
0
VERTEX
8
Layer 1
10
147.606556
20
35.788492
70
0
0
VERTEX
8
Layer 1
10
147.035495
20
35.076549
70
0
0
VERTEX
8
Layer 1
10
146.182108
20
34.528217
70
0
0
VERTEX
8
Layer 1
10
145.652941
20
35.189675
70
0
0
VERTEX
8
Layer 1
10
146.339931
20
36.763646
70
0
0
VERTEX
8
Layer 1
10
146.446691
20
38.496962
70
0
0
VERTEX
8
Layer 1
10
146.123304
20
41.378338
70
0
0
VERTEX
8
Layer 1
10
145.388359
20
44.185497
70
0
0
VERTEX
8
Layer 1
10
145.513374
20
44.560973
70
0
0
VERTEX
8
Layer 1
10
145.785233
20
44.846955
70
0
0
VERTEX
8
Layer 1
10
147.108148
20
44.053205
70
0
0
VERTEX
8
Layer 1
10
147.769606
20
44.317722
70
0
0
VERTEX
8
Layer 1
10
148.431063
20
44.053205
70
0
0
VERTEX
8
Layer 1
10
148.305320
20
43.004663
70
0
0
VERTEX
8
Layer 1
10
147.769606
20
42.068833
70
0
0
VERTEX
8
Layer 1
10
148.034188
20
41.407376
70
0
0
VERTEX
8
Layer 1
10
148.891243
20
41.284344
70
0
0
VERTEX
8
Layer 1
10
149.684029
20
40.978751
70
0
0
VERTEX
8
Layer 1
10
150.412571
20
40.490595
70
0
0
VERTEX
8
Layer 1
10
151.076893
20
39.819878
70
0
0
VERTEX
8
Layer 1
10
151.653618
20
38.712829
70
0
0
VERTEX
8
Layer 1
10
152.399808
20
37.703214
70
0
0
VERTEX
8
Layer 1
10
152.928974
20
35.321967
70
0
0
VERTEX
8
Layer 1
10
153.834241
20
34.646784
70
0
0
VERTEX
8
Layer 1
10
154.554936
20
34.554014
70
0
0
VERTEX
8
Layer 1
10
155.091035
20
35.043658
70
0
0
VERTEX
8
Layer 1
10
155.442513
20
36.115715
70
0
0
VERTEX
8
Layer 1
10
156.633136
20
32.940720
70
0
0
VERTEX
8
Layer 1
10
158.749800
20
31.882387
70
0
0
VERTEX
8
Layer 1
10
159.134735
20
30.462966
70
0
0
VERTEX
8
Layer 1
10
159.675841
20
29.104266
70
0
0
VERTEX
8
Layer 1
10
159.330593
20
28.546062
70
0
0
VERTEX
8
Layer 1
10
159.146675
20
27.913642
70
0
0
VERTEX
8
Layer 1
10
159.405230
20
27.067254
70
0
0
VERTEX
8
Layer 1
10
159.337108
20
26.344169
70
0
0
VERTEX
8
Layer 1
10
158.942259
20
25.744364
70
0
0
VERTEX
8
Layer 1
10
158.220634
20
25.267813
70
0
0
VERTEX
8
Layer 1
10
158.088343
20
23.944897
70
0
0
VERTEX
8
Layer 1
10
157.226521
20
23.963212
70
0
0
VERTEX
8
Layer 1
10
156.586503
20
24.255915
70
0
0
VERTEX
8
Layer 1
10
156.168239
20
24.823057
70
0
0
VERTEX
8
Layer 1
10
155.971678
20
25.664687
70
0
0
VERTEX
8
Layer 1
10
155.442513
20
25.797045
70
0
0
VERTEX
8
Layer 1
10
154.913347
20
25.664687
70
0
0
VERTEX
8
Layer 1
10
153.932517
20
24.777772
70
0
0
VERTEX
8
Layer 1
10
153.230764
20
23.754530
70
0
0
VERTEX
8
Layer 1
10
152.808064
20
22.594962
70
0
0
VERTEX
8
Layer 1
10
152.664391
20
21.299067
70
0
0
VERTEX
8
Layer 1
10
151.209185
20
17.594905
70
0
0
VERTEX
8
Layer 1
10
152.106518
20
17.503393
70
0
0
VERTEX
8
Layer 1
10
152.796683
20
16.933448
70
0
0
VERTEX
8
Layer 1
10
152.348512
20
16.496729
70
0
0
VERTEX
8
Layer 1
10
151.868393
20
16.329140
70
0
0
VERTEX
8
Layer 1
10
151.356326
20
16.430633
70
0
0
VERTEX
8
Layer 1
10
150.812310
20
16.801157
70
0
0
VERTEX
8
Layer 1
10
150.363643
20
16.617437
70
0
0
VERTEX
8
Layer 1
10
150.018561
20
16.271991
70
0
0
VERTEX
8
Layer 1
10
149.224812
20
8.334501
70
0
0
VERTEX
8
Layer 1
10
147.999020
20
7.371728
70
0
0
VERTEX
8
Layer 1
10
147.105337
20
6.212975
70
0
0
VERTEX
8
Layer 1
10
146.543788
20
4.858215
70
0
0
VERTEX
8
Layer 1
10
146.314399
20
3.307423
70
0
0
VERTEX
8
Layer 1
10
145.323536
20
1.788386
70
0
0
VERTEX
8
Layer 1
10
144.594610
20
0.132427
70
0
0
VERTEX
8
Layer 1
10
137.980035
20
0.132427
70
0
0
VERTEX
8
Layer 1
10
137.583160
20
0.529352
70
0
0
VERTEX
8
Layer 1
10
137.186285
20
0.661660
70
0
0
VERTEX
8
Layer 1
10
136.789411
20
0.529352
70
0
0
VERTEX
8
Layer 1
10
136.392537
20
0.132427
70
0
0
VERTEX
8
Layer 1
10
132.159209
20
0.132427
70
0
0
VERTEX
8
Layer 1
10
132.035979
20
2.184467
70
0
0
VERTEX
8
Layer 1
10
131.365460
20
4.101173
70
0
0
VERTEX
8
Layer 1
10
130.042545
20
1.587634
70
0
0
VERTEX
8
Layer 1
10
129.279301
20
1.488663
70
0
0
VERTEX
8
Layer 1
10
128.650077
20
1.654110
70
0
0
VERTEX
8
Layer 1
10
128.154848
20
2.083975
70
0
0
VERTEX
8
Layer 1
10
127.793589
20
2.778257
70
0
0
VERTEX
8
Layer 1
10
127.247887
20
3.918478
70
0
0
VERTEX
8
Layer 1
10
126.999840
20
5.159504
70
0
0
VERTEX
8
Layer 1
10
126.922681
20
7.965606
70
0
0
VERTEX
8
Layer 1
10
127.264423
20
10.715747
70
0
0
VERTEX
8
Layer 1
10
126.810167
20
11.124694
70
0
0
VERTEX
8
Layer 1
10
126.206091
20
11.244913
70
0
0
VERTEX
8
Layer 1
10
125.348776
20
11.062583
70
0
0
VERTEX
8
Layer 1
10
124.486302
20
11.112622
70
0
0
VERTEX
8
Layer 1
10
123.031095
20
12.567829
70
0
0
VERTEX
8
Layer 1
10
120.385265
20
18.388655
70
0
0
VERTEX
8
Layer 1
10
120.120682
20
20.505319
70
0
0
VERTEX
8
Layer 1
10
119.723808
20
20.769835
70
0
0
VERTEX
8
Layer 1
10
119.326933
20
20.505319
70
0
0
VERTEX
8
Layer 1
10
117.739435
20
17.594905
70
0
0
VERTEX
8
Layer 1
10
116.377196
20
18.957243
70
0
0
VERTEX
8
Layer 1
10
115.225897
20
20.505319
70
0
0
VERTEX
8
Layer 1
10
115.808277
20
21.010738
70
0
0
VERTEX
8
Layer 1
10
116.548811
20
21.299067
70
0
0
VERTEX
8
Layer 1
10
116.730076
20
21.812569
70
0
0
VERTEX
8
Layer 1
10
116.702336
20
22.270385
70
0
0
VERTEX
8
Layer 1
10
116.465542
20
22.672489
70
0
0
VERTEX
8
Layer 1
10
116.019646
20
23.018857
70
0
0
VERTEX
8
Layer 1
10
114.432147
20
23.283440
70
0
0
VERTEX
8
Layer 1
10
113.788219
20
24.174456
70
0
0
VERTEX
8
Layer 1
10
112.844650
20
24.738647
70
0
0
VERTEX
8
Layer 1
10
112.447775
20
24.474063
70
0
0
VERTEX
8
Layer 1
10
112.281977
20
23.430387
70
0
0
VERTEX
8
Layer 1
10
112.381067
20
22.465118
70
0
0
VERTEX
8
Layer 1
10
112.745022
20
21.578281
70
0
0
VERTEX
8
Layer 1
10
113.373816
20
20.769902
70
0
0
VERTEX
8
Layer 1
10
112.846965
20
20.283730
70
0
0
VERTEX
8
Layer 1
10
112.183192
20
19.976152
70
0
0
VERTEX
8
Layer 1
10
112.101072
20
17.056115
70
0
0
VERTEX
8
Layer 1
10
112.447775
20
14.155327
70
0
0
VERTEX
8
Layer 1
10
112.844650
20
13.493869
70
0
0
VERTEX
8
Layer 1
10
115.490480
20
12.700120
70
0
0
VERTEX
8
Layer 1
10
115.755063
20
12.303246
70
0
0
VERTEX
8
Layer 1
10
114.783249
20
11.466006
70
0
0
VERTEX
8
Layer 1
10
113.638399
20
10.848039
70
0
0
VERTEX
8
Layer 1
10
113.080050
20
10.152368
70
0
0
VERTEX
8
Layer 1
10
112.673431
20
9.391311
70
0
0
VERTEX
8
Layer 1
10
112.418568
20
8.564870
70
0
0
VERTEX
8
Layer 1
10
112.315483
20
7.673043
70
0
0
VERTEX
8
Layer 1
10
112.712325
20
7.143844
70
0
0
VERTEX
8
Layer 1
10
113.241524
20
6.747002
70
0
0
VERTEX
8
Layer 1
10
113.373816
20
5.820962
70
0
0
VERTEX
8
Layer 1
10
112.798182
20
4.007444
70
0
0
VERTEX
8
Layer 1
10
112.050901
20
2.249091
70
0
0
VERTEX
8
Layer 1
10
112.497616
20
1.143333
70
0
0
VERTEX
8
Layer 1
10
113.109233
20
0.132427
70
0
0
VERTEX
8
Layer 1
10
107.552990
20
0.132427
70
0
0
VERTEX
8
Layer 1
10
107.189023
20
1.089259
70
0
0
VERTEX
8
Layer 1
10
106.494658
20
1.852217
70
0
0
VERTEX
8
Layer 1
10
103.848827
20
1.852217
70
0
0
VERTEX
8
Layer 1
10
101.864455
20
3.572007
70
0
0
VERTEX
8
Layer 1
10
101.750122
20
4.320942
70
0
0
VERTEX
8
Layer 1
10
101.996747
20
5.027213
70
0
0
VERTEX
8
Layer 1
10
103.817871
20
5.656193
70
0
0
VERTEX
8
Layer 1
10
105.700909
20
6.085545
70
0
0
VERTEX
8
Layer 1
10
106.362366
20
6.747002
70
0
0
VERTEX
8
Layer 1
10
107.156115
20
11.774079
70
0
0
VERTEX
8
Layer 1
10
108.479030
20
14.155327
70
0
0
VERTEX
8
Layer 1
10
109.093623
20
14.771871
70
0
0
VERTEX
8
Layer 1
10
109.934237
20
14.949075
70
0
0
VERTEX
8
Layer 1
10
109.943795
20
14.263508
70
0
0
VERTEX
8
Layer 1
10
110.198819
20
13.626160
70
0
0
VERTEX
8
Layer 1
10
110.463403
20
13.758452
70
0
0
VERTEX
8
Layer 1
10
110.727986
20
15.345950
70
0
0
VERTEX
8
Layer 1
10
109.669654
20
22.489691
70
0
0
VERTEX
8
Layer 1
10
110.463403
20
24.738647
70
0
0
VERTEX
8
Layer 1
10
110.146850
20
25.589641
70
0
0
VERTEX
8
Layer 1
10
110.085413
20
26.424536
70
0
0
VERTEX
8
Layer 1
10
110.279116
20
27.243309
70
0
0
VERTEX
8
Layer 1
10
110.727986
20
28.045934
70
0
0
VERTEX
8
Layer 1
10
112.843757
20
28.348915
70
0
0
VERTEX
8
Layer 1
10
114.961314
20
28.178225
70
0
0
VERTEX
8
Layer 1
10
116.414469
20
28.227095
70
0
0
VERTEX
8
Layer 1
10
117.692604
20
28.618194
70
0
0
VERTEX
8
Layer 1
10
118.795716
20
29.351548
70
0
0
VERTEX
8
Layer 1
10
119.723808
20
30.427181
70
0
0
VERTEX
8
Layer 1
10
118.419314
20
32.904472
70
0
0
VERTEX
8
Layer 1
10
116.813395
20
35.189675
70
0
0
VERTEX
8
Layer 1
10
113.395114
20
37.428444
70
0
0
VERTEX
8
Layer 1
10
109.669654
20
39.158420
70
0
0
VERTEX
8
Layer 1
10
109.405137
20
39.423003
70
0
0
VERTEX
8
Layer 1
10
109.669654
20
39.687586
70
0
0
VERTEX
8
Layer 1
10
111.122876
20
39.631594
70
0
0
VERTEX
8
Layer 1
10
112.580067
20
39.423003
70
0
0
VERTEX
8
Layer 1
10
117.077978
20
38.100088
70
0
0
VERTEX
8
Layer 1
10
120.914431
20
33.734469
70
0
0
VERTEX
8
Layer 1
10
121.120905
20
32.903657
70
0
0
VERTEX
8
Layer 1
10
121.520458
20
32.251911
70
0
0
VERTEX
8
Layer 1
10
122.113091
20
31.779204
70
0
0
VERTEX
8
Layer 1
10
122.898803
20
31.485513
70
0
0
VERTEX
8
Layer 1
10
123.957136
20
29.765723
70
0
0
VERTEX
8
Layer 1
10
124.354010
20
29.368799
70
0
0
VERTEX
8
Layer 1
10
124.750885
20
29.236491
70
0
0
VERTEX
8
Layer 1
10
125.147759
20
29.368799
70
0
0
VERTEX
8
Layer 1
10
125.544634
20
29.765723
70
0
0
VERTEX
8
Layer 1
10
125.794367
20
30.695162
70
0
0
VERTEX
8
Layer 1
10
126.274486
20
31.291574
70
0
0
VERTEX
8
Layer 1
10
126.984990
20
31.555007
70
0
0
VERTEX
8
Layer 1
10
127.925881
20
31.485513
70
0
0
VERTEX
8
Layer 1
10
127.969537
20
29.583856
70
0
0
VERTEX
8
Layer 1
10
128.322755
20
27.649059
70
0
0
VERTEX
8
Layer 1
10
128.795631
20
26.702745
70
0
0
VERTEX
8
Layer 1
10
129.513379
20
25.929270
70
0
0
VERTEX
8
Layer 1
10
130.124615
20
25.469541
70
0
0
VERTEX
8
Layer 1
10
130.725235
20
25.316297
70
0
0
VERTEX
8
Layer 1
10
131.315238
20
25.469541
70
0
0
VERTEX
8
Layer 1
10
131.894626
20
25.929270
70
0
0
VERTEX
8
Layer 1
10
134.805038
20
26.061561
70
0
0
VERTEX
8
Layer 1
10
135.069555
20
26.590727
70
0
0
VERTEX
8
Layer 1
10
134.805038
20
27.119894
70
0
0
VERTEX
8
Layer 1
10
135.494211
20
28.260114
70
0
0
VERTEX
8
Layer 1
10
135.995662
20
29.501141
70
0
0
VERTEX
8
Layer 1
10
137.847743
20
29.765723
70
0
0
VERTEX
8
Layer 1
10
137.980101
20
30.559472
70
0
0
VERTEX
8
Layer 1
10
137.847743
20
31.353222
70
0
0
VERTEX
8
Layer 1
10
136.260245
20
32.146970
70
0
0
VERTEX
8
Layer 1
10
136.524828
20
35.057384
70
0
0
VERTEX
8
Layer 1
10
136.260245
20
35.321967
70
0
0
VERTEX
8
Layer 1
10
135.713406
20
34.908919
70
0
0
VERTEX
8
Layer 1
10
135.244478
20
34.837383
70
0
0
VERTEX
8
Layer 1
10
134.853486
20
35.107357
70
0
0
VERTEX
8
Layer 1
10
134.540456
20
35.718841
70
0
0
VERTEX
8
Layer 1
10
134.901855
20
36.179670
70
0
0
VERTEX
8
Layer 1
10
135.308970
20
36.355295
70
0
0
VERTEX
8
Layer 1
10
135.761775
20
36.245766
70
0
0
VERTEX
8
Layer 1
10
136.260245
20
35.851133
70
0
0
VERTEX
8
Layer 1
10
135.913311
20
37.848403
70
0
0
VERTEX
8
Layer 1
10
135.334204
20
39.819878
70
0
0
VERTEX
8
Layer 1
10
133.746707
20
40.878209
70
0
0
VERTEX
8
Layer 1
10
133.702918
20
40.182555
70
0
0
VERTEX
8
Layer 1
10
133.482124
20
39.423003
70
0
0
VERTEX
8
Layer 1
10
132.620112
20
38.992262
70
0
0
VERTEX
8
Layer 1
10
131.894626
20
38.364671
70
0
0
VERTEX
8
Layer 1
10
131.365460
20
38.232313
70
0
0
VERTEX
8
Layer 1
10
130.836294
20
38.364671
70
0
0
VERTEX
8
Layer 1
10
130.614573
20
38.672480
70
0
0
VERTEX
8
Layer 1
10
130.704002
20
39.026128
70
0
0
VERTEX
8
Layer 1
10
131.517363
20
39.562868
70
0
0
VERTEX
8
Layer 1
10
132.423791
20
39.952169
70
0
0
VERTEX
8
Layer 1
10
132.753689
20
40.305639
70
0
0
VERTEX
8
Layer 1
10
132.885720
20
40.665981
70
0
0
VERTEX
8
Layer 1
10
132.819860
20
41.033218
70
0
0
VERTEX
8
Layer 1
10
132.556083
20
41.407376
70
0
0
VERTEX
8
Layer 1
10
131.677849
20
41.790756
70
0
0
VERTEX
8
Layer 1
10
130.789793
20
41.918550
70
0
0
VERTEX
8
Layer 1
10
129.891914
20
41.790756
70
0
0
VERTEX
8
Layer 1
10
128.984213
20
41.407376
70
0
0
VERTEX
8
Layer 1
10
127.640230
20
42.353789
70
0
0
VERTEX
8
Layer 1
10
126.470674
20
43.524040
70
0
0
VERTEX
8
Layer 1
10
126.283440
20
44.335590
70
0
0
VERTEX
8
Layer 1
10
126.331305
20
45.113257
70
0
0
VERTEX
8
Layer 1
10
126.614219
20
45.856992
70
0
0
VERTEX
8
Layer 1
10
127.132131
20
46.566744
70
0
0
VERTEX
8
Layer 1
10
128.813259
20
46.950985
70
0
0
VERTEX
8
Layer 1
10
130.439419
20
47.492784
70
0
0
VERTEX
8
Layer 1
10
130.968585
20
49.874032
70
0
0
VERTEX
8
Layer 1
10
133.878998
20
52.255279
70
0
0
VERTEX
8
Layer 1
10
134.672747
20
53.842776
70
0
0
VERTEX
8
Layer 1
10
134.599077
20
56.181008
70
0
0
VERTEX
8
Layer 1
10
134.376083
20
58.503836
70
0
0
VERTEX
8
Layer 1
10
133.482124
20
63.103181
70
0
0
VERTEX
8
Layer 1
10
133.822311
20
63.841930
70
0
0
VERTEX
8
Layer 1
10
134.408164
20
64.426096
70
0
0
VERTEX
8
Layer 1
10
134.805038
20
65.881303
70
0
0
VERTEX
8
Layer 1
10
131.630043
20
73.686501
70
0
0
VERTEX
8
Layer 1
10
131.894559
20
75.009417
70
0
0
VERTEX
8
Layer 1
10
131.630043
20
76.332332
70
0
0
VERTEX
8
Layer 1
10
131.939605
20
78.013459
70
0
0
VERTEX
8
Layer 1
10
132.423791
20
79.639619
70
0
0
VERTEX
8
Layer 1
10
132.082918
20
80.256122
70
0
0
VERTEX
8
Layer 1
10
131.947278
20
80.880513
70
0
0
VERTEX
8
Layer 1
10
132.016822
20
81.512842
70
0
0
VERTEX
8
Layer 1
10
132.291500
20
82.153158
70
0
0
VERTEX
8
Layer 1
10
133.441882
20
82.899525
70
0
0
VERTEX
8
Layer 1
10
134.200202
20
83.853867
70
0
0
VERTEX
8
Layer 1
10
134.566409
20
85.016187
70
0
0
VERTEX
8
Layer 1
10
134.540456
20
86.386486
70
0
0
VERTEX
8
Layer 1
10
135.334204
20
86.254194
70
0
0
VERTEX
8
Layer 1
10
136.189370
20
85.444434
70
0
0
VERTEX
8
Layer 1
10
136.941943
20
84.922730
70
0
0
VERTEX
8
Layer 1
10
137.591924
20
84.689082
70
0
0
VERTEX
8
Layer 1
10
138.139313
20
84.743491
70
0
0
VERTEX
8
Layer 1
10
138.584111
20
85.085957
70
0
0
VERTEX
8
Layer 1
10
138.926316
20
85.716479
70
0
0
VERTEX
8
Layer 1
10
139.165929
20
86.635057
70
0
0
VERTEX
8
Layer 1
10
139.302950
20
87.841692
70
0
0
VERTEX
8
Layer 1
10
139.267140
20
88.780519
70
0
0
VERTEX
8
Layer 1
10
139.078782
20
89.666723
70
0
0
VERTEX
8
Layer 1
10
138.737924
20
90.500306
70
0
0
VERTEX
8
Layer 1
10
138.244618
20
91.281271
70
0
0
VERTEX
8
Layer 1
10
137.306208
20
91.513707
70
0
0
VERTEX
8
Layer 1
10
136.657119
20
92.207312
70
0
0
VERTEX
8
Layer 1
10
137.115253
20
92.965212
70
0
0
VERTEX
8
Layer 1
10
137.708969
20
93.394237
70
0
0
VERTEX
8
Layer 1
10
138.438218
20
93.494383
70
0
0
VERTEX
8
Layer 1
10
139.302950
20
93.265644
70
0
0
VERTEX
8
Layer 1
10
141.094011
20
89.755606
70
0
0
VERTEX
8
Layer 1
10
142.610237
20
86.121903
70
0
0
VERTEX
8
Layer 1
10
142.742595
20
83.740656
70
0
0
VERTEX
8
Layer 1
10
142.610237
20
81.359409
70
0
0
VERTEX
8
Layer 1
10
141.562323
20
79.782229
70
0
0
VERTEX
8
Layer 1
10
140.096699
20
78.581287
70
0
0
VERTEX
8
Layer 1
10
135.201913
20
76.332332
70
0
0
VERTEX
8
Layer 1
10
135.069555
20
74.877125
70
0
0
VERTEX
8
Layer 1
10
135.201913
20
73.421919
70
0
0
VERTEX
8
Layer 1
10
135.833440
20
71.244863
70
0
0
VERTEX
8
Layer 1
10
136.115344
20
70.700600
70
0
0
VERTEX
8
Layer 1
10
136.374677
20
70.519178
70
0
0
VERTEX
8
Layer 1
10
136.611438
20
70.700600
70
0
0
VERTEX
8
Layer 1
10
136.825626
20
71.244863
70
0
0
VERTEX
8
Layer 1
10
137.186285
20
73.421919
70
0
0
VERTEX
8
Layer 1
10
137.980035
20
73.421919
70
0
0
VERTEX
8
Layer 1
10
137.831041
20
71.437744
70
0
0
VERTEX
8
Layer 1
10
137.847743
20
69.453173
70
0
0
VERTEX
8
Layer 1
10
139.435241
20
66.278177
70
0
0
VERTEX
8
Layer 1
10
146.446691
20
62.441724
70
0
0
VERTEX
8
Layer 1
10
147.499202
20
60.861403
70
0
0
VERTEX
8
Layer 1
10
148.827938
20
59.531311
70
0
0
VERTEX
8
Layer 1
10
150.415436
20
59.398953
70
0
0
VERTEX
8
Layer 1
10
152.002934
20
59.531311
70
0
0
VERTEX
8
Layer 1
10
152.272800
20
59.973322
70
0
0
VERTEX
8
Layer 1
10
152.605323
20
60.230935
70
0
0
VERTEX
8
Layer 1
10
153.000453
20
60.304100
70
0
0
VERTEX
8
Layer 1
10
153.458140
20
60.192768
70
0
0
VERTEX
8
Layer 1
10
154.251889
20
60.721935
70
0
0
VERTEX
8
Layer 1
10
154.648764
20
62.441724
70
0
0
VERTEX
8
Layer 1
10
155.830887
20
62.768319
70
0
0
VERTEX
8
Layer 1
10
156.897719
20
63.367764
70
0
0
VERTEX
8
Layer 1
10
157.303077
20
62.754143
70
0
0
VERTEX
8
Layer 1
10
157.504342
20
62.108647
70
0
0
VERTEX
8
Layer 1
10
157.501514
20
61.431253
70
0
0
VERTEX
8
Layer 1
10
157.294594
20
60.721935
70
0
0
VERTEX
8
Layer 1
10
154.913347
20
60.325060
70
0
0
VERTEX
8
Layer 1
10
154.250731
20
59.132882
70
0
0
VERTEX
8
Layer 1
10
153.855015
20
57.811521
70
0
0
VERTEX
8
Layer 1
10
154.379034
20
56.714267
70
0
0
VERTEX
8
Layer 1
10
155.104938
20
56.128013
70
0
0
VERTEX
8
Layer 1
10
156.032702
20
56.052785
70
0
0
VERTEX
8
Layer 1
10
157.162302
20
56.488607
70
0
0
VERTEX
8
Layer 1
10
157.426885
20
55.959440
70
0
0
VERTEX
8
Layer 1
10
157.321316
20
54.635037
70
0
0
VERTEX
8
Layer 1
10
157.030011
20
53.313611
70
0
0
VERTEX
8
Layer 1
10
158.243289
20
50.845018
70
0
0
VERTEX
8
Layer 1
10
159.278966
20
48.286533
70
0
0
VERTEX
8
Layer 1
10
159.411258
20
43.656331
70
0
0
VERTEX
8
Layer 1
10
159.238154
20
42.955484
70
0
0
VERTEX
8
Layer 1
10
158.882092
20
42.333416
70
0
0
VERTEX
8
Layer 1
10
159.689863
20
40.174617
70
0
0
VERTEX
8
Layer 1
10
160.337298
20
37.967797
70
0
0
VERTEX
8
Layer 1
10
160.985229
20
37.318477
70
0
0
VERTEX
8
Layer 1
10
161.792505
20
36.909464
70
0
0
VERTEX
8
Layer 1
10
161.792505
20
36.909464
70
0
0
SEQEND
8
Layer 1
0
POLYLINE
8
Layer 1
62
7
70
1
10
0.000000
20
0.000000
66
1
0
VERTEX
8
Layer 1
10
127.661298
20
92.471895
70
0
0
VERTEX
8
Layer 1
10
128.278983
20
92.202327
70
0
0
VERTEX
8
Layer 1
10
128.617170
20
91.803793
70
0
0
VERTEX
8
Layer 1
10
128.675858
20
91.276289
70
0
0
VERTEX
8
Layer 1
10
128.455047
20
90.619814
70
0
0
VERTEX
8
Layer 1
10
127.957465
20
90.983504
70
0
0
VERTEX
8
Layer 1
10
127.659313
20
91.413417
70
0
0
VERTEX
8
Layer 1
10
127.560591
20
91.909549
70
0
0
VERTEX
8
Layer 1
10
127.661298
20
92.471895
70
0
0
VERTEX
8
Layer 1
10
127.661298
20
92.471895
70
0
0
SEQEND
8
Layer 1
0
POLYLINE
8
Layer 1
62
7
70
1
10
0.000000
20
0.000000
66
1
0
VERTEX
8
Layer 1
10
135.863371
20
83.740656
70
0
0
VERTEX
8
Layer 1
10
136.294012
20
83.580689
70
0
0
VERTEX
8
Layer 1
10
136.127954
20
83.211489
70
0
0
VERTEX
8
Layer 1
10
135.903488
20
83.434450
70
0
0
VERTEX
8
Layer 1
10
135.863371
20
83.740656
70
0
0
VERTEX
8
Layer 1
10
135.863371
20
83.740656
70
0
0
SEQEND
8
Layer 1
0
POLYLINE
8
Layer 1
62
7
70
1
10
0.000000
20
0.000000
66
1
0
VERTEX
8
Layer 1
10
137.980035
20
81.888575
70
0
0
VERTEX
8
Layer 1
10
139.038366
20
81.888575
70
0
0
VERTEX
8
Layer 1
10
138.911598
20
81.111560
70
0
0
VERTEX
8
Layer 1
10
138.509201
20
80.433368
70
0
0
VERTEX
8
Layer 1
10
136.914129
20
79.703847
70
0
0
VERTEX
8
Layer 1
10
135.466496
20
78.713578
70
0
0
VERTEX
8
Layer 1
10
135.069622
20
79.110453
70
0
0
VERTEX
8
Layer 1
10
137.980035
20
81.888575
70
0
0
VERTEX
8
Layer 1
10
137.980035
20
81.888575
70
0
0
SEQEND
8
Layer 1
0
POLYLINE
8
Layer 1
62
7
70
1
10
0.000000
20
0.000000
66
1
0
VERTEX
8
Layer 1
10
128.984213
20
70.776089
70
0
0
VERTEX
8
Layer 1
10
129.387338
20
70.217240
70
0
0
VERTEX
8
Layer 1
10
129.587859
20
69.634082
70
0
0
VERTEX
8
Layer 1
10
129.585775
20
69.026616
70
0
0
VERTEX
8
Layer 1
10
129.381087
20
68.394841
70
0
0
VERTEX
8
Layer 1
10
128.960549
20
68.933301
70
0
0
VERTEX
8
Layer 1
10
128.754224
20
69.509662
70
0
0
VERTEX
8
Layer 1
10
128.762112
20
70.123924
70
0
0
VERTEX
8
Layer 1
10
128.984213
20
70.776089
70
0
0
VERTEX
8
Layer 1
10
128.984213
20
70.776089
70
0
0
SEQEND
8
Layer 1
0
POLYLINE
8
Layer 1
62
7
70
1
10
0.000000
20
0.000000
66
1
0
VERTEX
8
Layer 1
10
144.065444
20
69.982339
70
0
0
VERTEX
8
Layer 1
10
144.943628
20
69.849833
70
0
0
VERTEX
8
Layer 1
10
145.500939
20
69.474935
70
0
0
VERTEX
8
Layer 1
10
145.737377
20
68.857647
70
0
0
VERTEX
8
Layer 1
10
145.652941
20
67.997967
70
0
0
VERTEX
8
Layer 1
10
146.076555
20
67.302540
70
0
0
VERTEX
8
Layer 1
10
146.350052
20
66.563629
70
0
0
VERTEX
8
Layer 1
10
146.473430
20
65.781212
70
0
0
VERTEX
8
Layer 1
10
146.446691
20
64.955263
70
0
0
VERTEX
8
Layer 1
10
144.947853
20
65.316026
70
0
0
VERTEX
8
Layer 1
10
143.544215
20
65.877235
70
0
0
VERTEX
8
Layer 1
10
142.235827
20
66.638916
70
0
0
VERTEX
8
Layer 1
10
141.022739
20
67.601092
70
0
0
VERTEX
8
Layer 1
10
140.907116
20
68.024756
70
0
0
VERTEX
8
Layer 1
10
141.155031
20
68.394841
70
0
0
VERTEX
8
Layer 1
10
144.065444
20
69.982339
70
0
0
VERTEX
8
Layer 1
10
144.065444
20
69.982339
70
0
0
SEQEND
8
Layer 1
0
POLYLINE
8
Layer 1
62
7
70
1
10
0.000000
20
0.000000
66
1
0
VERTEX
8
Layer 1
10
150.415436
20
69.453173
70
0
0
VERTEX
8
Layer 1
10
151.015506
20
69.206127
70
0
0
VERTEX
8
Layer 1
10
151.369886
20
68.815065
70
0
0
VERTEX
8
Layer 1
10
151.478551
20
68.280037
70
0
0
VERTEX
8
Layer 1
10
151.341476
20
67.601092
70
0
0
VERTEX
8
Layer 1
10
150.850344
20
67.401618
70
0
0
VERTEX
8
Layer 1
10
150.488196
20
67.445352
70
0
0
VERTEX
8
Layer 1
10
150.255032
20
67.732322
70
0
0
VERTEX
8
Layer 1
10
150.150853
20
68.262550
70
0
0
VERTEX
8
Layer 1
10
150.415436
20
69.453173
70
0
0
VERTEX
8
Layer 1
10
150.415436
20
69.453173
70
0
0
SEQEND
8
Layer 1
0
POLYLINE
8
Layer 1
62
7
70
1
10
0.000000
20
0.000000
66
1
0
VERTEX
8
Layer 1
10
153.325849
20
65.219845
70
0
0
VERTEX
8
Layer 1
10
153.903793
20
65.181249
70
0
0
VERTEX
8
Layer 1
10
154.184652
20
65.036093
70
0
0
VERTEX
8
Layer 1
10
154.168401
20
64.784375
70
0
0
VERTEX
8
Layer 1
10
153.855015
20
64.426096
70
0
0
VERTEX
8
Layer 1
10
153.441207
20
64.724745
70
0
0
VERTEX
8
Layer 1
10
153.325849
20
65.219845
70
0
0
VERTEX
8
Layer 1
10
153.325849
20
65.219845
70
0
0
SEQEND
8
Layer 1
0
POLYLINE
8
Layer 1
62
7
70
1
10
0.000000
20
0.000000
66
1
0
VERTEX
8
Layer 1
10
161.792505
20
33.999051
70
0
0
VERTEX
8
Layer 1
10
161.792505
20
0.132427
70
0
0
VERTEX
8
Layer 1
10
153.855015
20
0.132427
70
0
0
VERTEX
8
Layer 1
10
153.871419
20
1.470325
70
0
0
VERTEX
8
Layer 1
10
154.119597
20
2.778257
70
0
0
VERTEX
8
Layer 1
10
153.590431
20
3.836590
70
0
0
VERTEX
8
Layer 1
10
152.941939
20
2.050588
70
0
0
VERTEX
8
Layer 1
10
152.796683
20
0.132427
70
0
0
VERTEX
8
Layer 1
10
144.594610
20
0.132427
70
0
0
VERTEX
8
Layer 1
10
145.323536
20
1.788386
70
0
0
VERTEX
8
Layer 1
10
146.314399
20
3.307423
70
0
0
VERTEX
8
Layer 1
10
146.543788
20
4.858215
70
0
0
VERTEX
8
Layer 1
10
147.105337
20
6.212975
70
0
0
VERTEX
8
Layer 1
10
147.999020
20
7.371728
70
0
0
VERTEX
8
Layer 1
10
149.224812
20
8.334501
70
0
0
VERTEX
8
Layer 1
10
150.018561
20
16.271991
70
0
0
VERTEX
8
Layer 1
10
150.363643
20
16.617437
70
0
0
VERTEX
8
Layer 1
10
150.812310
20
16.801157
70
0
0
VERTEX
8
Layer 1
10
151.356326
20
16.430633
70
0
0
VERTEX
8
Layer 1
10
151.868393
20
16.329140
70
0
0
VERTEX
8
Layer 1
10
152.348512
20
16.496729
70
0
0
VERTEX
8
Layer 1
10
152.796683
20
16.933448
70
0
0
VERTEX
8
Layer 1
10
152.106518
20
17.503393
70
0
0
VERTEX
8
Layer 1
10
151.209185
20
17.594905
70
0
0
VERTEX
8
Layer 1
10
152.664391
20
21.299067
70
0
0
VERTEX
8
Layer 1
10
152.808064
20
22.594962
70
0
0
VERTEX
8
Layer 1
10
153.230764
20
23.754530
70
0
0
VERTEX
8
Layer 1
10
153.932517
20
24.777772
70
0
0
VERTEX
8
Layer 1
10
154.913347
20
25.664687
70
0
0
VERTEX
8
Layer 1
10
155.442513
20
25.797045
70
0
0
VERTEX
8
Layer 1
10
155.971678
20
25.664687
70
0
0
VERTEX
8
Layer 1
10
156.168239
20
24.823057
70
0
0
VERTEX
8
Layer 1
10
156.586503
20
24.255915
70
0
0
VERTEX
8
Layer 1
10
157.226521
20
23.963212
70
0
0
VERTEX
8
Layer 1
10
158.088343
20
23.944897
70
0
0
VERTEX
8
Layer 1
10
158.220634
20
25.267813
70
0
0
VERTEX
8
Layer 1
10
158.942259
20
25.744364
70
0
0
VERTEX
8
Layer 1
10
159.337108
20
26.344169
70
0
0
VERTEX
8
Layer 1
10
159.405230
20
27.067254
70
0
0
VERTEX
8
Layer 1
10
159.146675
20
27.913642
70
0
0
VERTEX
8
Layer 1
10
159.330593
20
28.546062
70
0
0
VERTEX
8
Layer 1
10
159.675841
20
29.104266
70
0
0
VERTEX
8
Layer 1
10
159.134735
20
30.462966
70
0
0
VERTEX
8
Layer 1
10
158.749800
20
31.882387
70
0
0
VERTEX
8
Layer 1
10
156.633136
20
32.940720
70
0
0
VERTEX
8
Layer 1
10
155.442513
20
36.115715
70
0
0
VERTEX
8
Layer 1
10
155.091035
20
35.043658
70
0
0
VERTEX
8
Layer 1
10
154.554936
20
34.554014
70
0
0
VERTEX
8
Layer 1
10
153.834241
20
34.646784
70
0
0
VERTEX
8
Layer 1
10
152.928974
20
35.321967
70
0
0
VERTEX
8
Layer 1
10
152.399808
20
37.703214
70
0
0
VERTEX
8
Layer 1
10
151.653618
20
38.712829
70
0
0
VERTEX
8
Layer 1
10
151.076893
20
39.819878
70
0
0
VERTEX
8
Layer 1
10
150.412571
20
40.490595
70
0
0
VERTEX
8
Layer 1
10
149.684029
20
40.978751
70
0
0
VERTEX
8
Layer 1
10
148.891243
20
41.284344
70
0
0
VERTEX
8
Layer 1
10
148.034188
20
41.407376
70
0
0
VERTEX
8
Layer 1
10
147.769606
20
42.068833
70
0
0
VERTEX
8
Layer 1
10
148.305320
20
43.004663
70
0
0
VERTEX
8
Layer 1
10
148.431063
20
44.053205
70
0
0
VERTEX
8
Layer 1
10
147.769606
20
44.317722
70
0
0
VERTEX
8
Layer 1
10
147.108148
20
44.053205
70
0
0
VERTEX
8
Layer 1
10
145.785233
20
44.846955
70
0
0
VERTEX
8
Layer 1
10
145.513374
20
44.560973
70
0
0
VERTEX
8
Layer 1
10
145.388359
20
44.185497
70
0
0
VERTEX
8
Layer 1
10
146.123304
20
41.378338
70
0
0
VERTEX
8
Layer 1
10
146.446691
20
38.496962
70
0
0
VERTEX
8
Layer 1
10
146.339931
20
36.763646
70
0
0
VERTEX
8
Layer 1
10
145.652941
20
35.189675
70
0
0
VERTEX
8
Layer 1
10
146.182108
20
34.528217
70
0
0
VERTEX
8
Layer 1
10
147.035495
20
35.076549
70
0
0
VERTEX
8
Layer 1
10
147.606556
20
35.788492
70
0
0
VERTEX
8
Layer 1
10
147.895340
20
36.664047
70
0
0
VERTEX
8
Layer 1
10
147.901897
20
37.703214
70
0
0
VERTEX
8
Layer 1
10
148.442188
20
38.501374
70
0
0
VERTEX
8
Layer 1
10
148.908933
20
38.723346
70
0
0
VERTEX
8
Layer 1
10
149.302107
20
38.369107
70
0
0
VERTEX
8
Layer 1
10
149.621687
20
37.438631
70
0
0
VERTEX
8
Layer 1
10
150.998688
20
36.338350
70
0
0
VERTEX
8
Layer 1
10
151.942774
20
35.023484
70
0
0
VERTEX
8
Layer 1
10
152.453919
20
33.494058
70
0
0
VERTEX
8
Layer 1
10
152.532100
20
31.750096
70
0
0
VERTEX
8
Layer 1
10
151.566074
20
31.726879
70
0
0
VERTEX
8
Layer 1
10
150.680019
20
32.146970
70
0
0
VERTEX
8
Layer 1
10
150.283144
20
31.353222
70
0
0
VERTEX
8
Layer 1
10
150.318267
20
29.093550
70
0
0
VERTEX
8
Layer 1
10
150.680019
20
26.855311
70
0
0
VERTEX
8
Layer 1
10
150.223944
20
24.236270
70
0
0
VERTEX
8
Layer 1
10
150.150853
20
21.563650
70
0
0
VERTEX
8
Layer 1
10
150.675818
20
21.554018
70
0
0
VERTEX
8
Layer 1
10
150.983098
20
21.396500
70
0
0
VERTEX
8
Layer 1
10
151.072693
20
21.091047
70
0
0
VERTEX
8
Layer 1
10
150.944602
20
20.637610
70
0
0
VERTEX
8
Layer 1
10
149.985521
20
20.397865
70
0
0
VERTEX
8
Layer 1
10
149.092521
20
19.976152
70
0
0
VERTEX
8
Layer 1
10
148.718301
20
20.707063
70
0
0
VERTEX
8
Layer 1
10
148.166480
20
21.299067
70
0
0
VERTEX
8
Layer 1
10
146.711274
20
19.579278
70
0
0
VERTEX
8
Layer 1
10
146.357625
20
19.489849
70
0
0
VERTEX
8
Layer 1
10
146.049816
20
19.711569
70
0
0
VERTEX
8
Layer 1
10
147.505022
20
28.971975
70
0
0
VERTEX
8
Layer 1
10
146.855074
20
31.312112
70
0
0
VERTEX
8
Layer 1
10
145.785233
20
33.469886
70
0
0
VERTEX
8
Layer 1
10
145.002960
20
32.687811
70
0
0
VERTEX
8
Layer 1
10
144.726901
20
31.617805
70
0
0
VERTEX
8
Layer 1
10
144.010939
20
32.862403
70
0
0
VERTEX
8
Layer 1
10
143.139403
20
33.999051
70
0
0
VERTEX
8
Layer 1
10
142.712515
20
33.544386
70
0
0
VERTEX
8
Layer 1
10
142.437927
20
33.040037
70
0
0
VERTEX
8
Layer 1
10
142.315640
20
32.486029
70
0
0
VERTEX
8
Layer 1
10
142.345654
20
31.882387
70
0
0
VERTEX
8
Layer 1
10
142.924529
20
30.139149
70
0
0
VERTEX
8
Layer 1
10
143.800860
20
28.575100
70
0
0
VERTEX
8
Layer 1
10
142.742529
20
25.135521
70
0
0
VERTEX
8
Layer 1
10
142.059772
20
25.098281
70
0
0
VERTEX
8
Layer 1
10
141.684197
20
25.664687
70
0
0
VERTEX
8
Layer 1
10
142.036588
20
26.500769
70
0
0
VERTEX
8
Layer 1
10
142.213363
20
27.384477
70
0
0
VERTEX
8
Layer 1
10
141.578566
20
27.229894
70
0
0
VERTEX
8
Layer 1
10
141.080319
20
26.913783
70
0
0
VERTEX
8
Layer 1
10
140.718646
20
26.436145
70
0
0
VERTEX
8
Layer 1
10
140.493573
20
25.796978
70
0
0
VERTEX
8
Layer 1
10
139.964407
20
26.326144
70
0
0
VERTEX
8
Layer 1
10
139.038366
20
32.411553
70
0
0
VERTEX
8
Layer 1
10
139.699824
20
36.380298
70
0
0
VERTEX
8
Layer 1
10
137.847743
20
40.878209
70
0
0
VERTEX
8
Layer 1
10
137.014356
20
41.992484
70
0
0
VERTEX
8
Layer 1
10
136.670415
20
43.157658
70
0
0
VERTEX
8
Layer 1
10
136.815919
20
44.373731
70
0
0
VERTEX
8
Layer 1
10
137.450869
20
45.640704
70
0
0
VERTEX
8
Layer 1
10
136.392537
20
47.360493
70
0
0
VERTEX
8
Layer 1
10
136.789411
20
49.874032
70
0
0
VERTEX
8
Layer 1
10
138.113186
20
51.263919
70
0
0
VERTEX
8
Layer 1
10
139.567532
20
52.519861
70
0
0
VERTEX
8
Layer 1
10
137.186285
20
53.445902
70
0
0
VERTEX
8
Layer 1
10
136.524828
20
54.107360
70
0
0
VERTEX
8
Layer 1
10
135.975587
20
56.993563
70
0
0
VERTEX
8
Layer 1
10
135.995662
20
59.928185
70
0
0
VERTEX
8
Layer 1
10
137.180365
20
60.324002
70
0
0
VERTEX
8
Layer 1
10
138.244618
20
60.986517
70
0
0
VERTEX
8
Layer 1
10
137.014654
20
61.194922
70
0
0
VERTEX
8
Layer 1
10
136.273937
20
61.749476
70
0
0
VERTEX
8
Layer 1
10
136.022468
20
62.650153
70
0
0
VERTEX
8
Layer 1
10
136.260245
20
63.896931
70
0
0
VERTEX
8
Layer 1
10
136.464470
20
64.515889
70
0
0
VERTEX
8
Layer 1
10
136.921703
20
64.955263
70
0
0
VERTEX
8
Layer 1
10
137.687439
20
64.321818
70
0
0
VERTEX
8
Layer 1
10
138.244618
20
63.500056
70
0
0
VERTEX
8
Layer 1
10
139.410668
20
63.110160
70
0
0
VERTEX
8
Layer 1
10
140.493573
20
62.574016
70
0
0
VERTEX
8
Layer 1
10
140.754551
20
62.059633
70
0
0
VERTEX
8
Layer 1
10
140.758156
20
61.515684
70
0
0
VERTEX
8
Layer 1
10
139.038366
20
60.457352
70
0
0
VERTEX
8
Layer 1
10
141.155031
20
58.208396
70
0
0
VERTEX
8
Layer 1
10
141.641367
20
58.105771
70
0
0
VERTEX
8
Layer 1
10
142.081071
20
58.340688
70
0
0
VERTEX
8
Layer 1
10
143.536278
20
61.780267
70
0
0
VERTEX
8
Layer 1
10
144.234016
20
61.179961
70
0
0
VERTEX
8
Layer 1
10
144.594610
20
60.325060
70
0
0
VERTEX
8
Layer 1
10
144.189202
20
59.366608
70
0
0
VERTEX
8
Layer 1
10
144.197735
20
58.340688
70
0
0
VERTEX
8
Layer 1
10
145.171136
20
56.572479
70
0
0
VERTEX
8
Layer 1
10
146.314399
20
54.901108
70
0
0
VERTEX
8
Layer 1
10
146.843565
20
52.519861
70
0
0
VERTEX
8
Layer 1
10
147.628814
20
51.999559
70
0
0
VERTEX
8
Layer 1
10
148.298772
20
51.329238
70
0
0
VERTEX
8
Layer 1
10
149.099300
20
51.264746
70
0
0
VERTEX
8
Layer 1
10
149.753978
20
51.726112
70
0
0
VERTEX
8
Layer 1
10
149.997924
20
53.199509
70
0
0
VERTEX
8
Layer 1
10
150.680019
20
54.504234
70
0
0
VERTEX
8
Layer 1
10
151.076893
20
54.636592
70
0
0
VERTEX
8
Layer 1
10
151.473768
20
54.504234
70
0
0
VERTEX
8
Layer 1
10
152.015303
20
53.969280
70
0
0
VERTEX
8
Layer 1
10
152.664391
20
53.578193
70
0
0
VERTEX
8
Layer 1
10
152.796749
20
52.784444
70
0
0
VERTEX
8
Layer 1
10
152.664391
20
51.990696
70
0
0
VERTEX
8
Layer 1
10
151.456966
20
49.988497
70
0
0
VERTEX
8
Layer 1
10
150.415436
20
47.889659
70
0
0
VERTEX
8
Layer 1
10
151.391317
20
43.638935
70
0
0
VERTEX
8
Layer 1
10
152.928974
20
39.555295
70
0
0
VERTEX
8
Layer 1
10
153.913587
20
38.305735
70
0
0
VERTEX
8
Layer 1
10
155.045638
20
37.174048
70
0
0
VERTEX
8
Layer 1
10
155.839387
20
40.349043
70
0
0
VERTEX
8
Layer 1
10
156.916934
20
38.177677
70
0
0
VERTEX
8
Layer 1
10
157.691468
20
35.851133
70
0
0
VERTEX
8
Layer 1
10
158.560520
20
35.044531
70
0
0
VERTEX
8
Layer 1
10
159.533726
20
34.467000
70
0
0
VERTEX
8
Layer 1
10
160.611063
20
34.118515
70
0
0
VERTEX
8
Layer 1
10
161.792505
20
33.999051
70
0
0
VERTEX
8
Layer 1
10
161.792505
20
33.999051
70
0
0
SEQEND
8
Layer 1
0
POLYLINE
8
Layer 1
62
7
70
1
10
0.000000
20
0.000000
66
1
0
VERTEX
8
Layer 1
10
69.717621
20
62.044849
70
0
0
VERTEX
8
Layer 1
10
69.982203
20
62.309432
70
0
0
VERTEX
8
Layer 1
10
71.569702
20
61.118809
70
0
0
VERTEX
8
Layer 1
10
71.801906
20
60.686646
70
0
0
VERTEX
8
Layer 1
10
71.834285
20
60.192768
70
0
0
VERTEX
8
Layer 1
10
70.775953
20
60.325060
70
0
0
VERTEX
8
Layer 1
10
69.717621
20
62.044849
70
0
0
VERTEX
8
Layer 1
10
69.717621
20
62.044849
70
0
0
SEQEND
8
Layer 1
0
POLYLINE
8
Layer 1
62
7
70
1
10
0.000000
20
0.000000
66
1
0
VERTEX
8
Layer 1
10
30.823920
20
60.457352
70
0
0
VERTEX
8
Layer 1
10
33.734333
20
60.457352
70
0
0
VERTEX
8
Layer 1
10
33.789233
20
59.521191
70
0
0
VERTEX
8
Layer 1
10
33.998916
20
58.605271
70
0
0
VERTEX
8
Layer 1
10
33.613402
20
57.631878
70
0
0
VERTEX
8
Layer 1
10
33.551043
20
56.690086
70
0
0
VERTEX
8
Layer 1
10
33.811839
20
55.779847
70
0
0
VERTEX
8
Layer 1
10
34.395790
20
54.901108
70
0
0
VERTEX
8
Layer 1
10
35.850997
20
59.266728
70
0
0
VERTEX
8
Layer 1
10
36.587496
20
59.278295
70
0
0
VERTEX
8
Layer 1
10
37.097579
20
59.039583
70
0
0
VERTEX
8
Layer 1
10
37.381245
20
58.550642
70
0
0
VERTEX
8
Layer 1
10
37.438495
20
57.811521
70
0
0
VERTEX
8
Layer 1
10
37.075784
20
54.494014
70
0
0
VERTEX
8
Layer 1
10
36.512454
20
51.196947
70
0
0
VERTEX
8
Layer 1
10
34.792665
20
50.403197
70
0
0
VERTEX
8
Layer 1
10
34.395790
20
50.667780
70
0
0
VERTEX
8
Layer 1
10
34.131207
20
53.313611
70
0
0
VERTEX
8
Layer 1
10
32.863623
20
55.319547
70
0
0
VERTEX
8
Layer 1
10
32.014543
20
57.546939
70
0
0
VERTEX
8
Layer 1
10
31.561168
20
57.819194
70
0
0
VERTEX
8
Layer 1
10
31.123394
20
57.843801
70
0
0
VERTEX
8
Layer 1
10
30.701248
20
57.620757
70
0
0
VERTEX
8
Layer 1
10
30.294754
20
57.150064
70
0
0
VERTEX
8
Layer 1
10
29.409823
20
56.844371
70
0
0
VERTEX
8
Layer 1
10
28.916408
20
56.940911
70
0
0
VERTEX
8
Layer 1
10
28.814511
20
57.439683
70
0
0
VERTEX
8
Layer 1
10
29.104130
20
58.340688
70
0
0
VERTEX
8
Layer 1
10
30.199074
20
59.207428
70
0
0
VERTEX
8
Layer 1
10
30.823920
20
60.457352
70
0
0
VERTEX
8
Layer 1
10
30.823920
20
60.457352
70
0
0
SEQEND
8
Layer 1
0
POLYLINE
8
Layer 1
62
7
70
1
10
0.000000
20
0.000000
66
1
0
VERTEX
8
Layer 1
10
156.765428
20
59.399020
70
0
0
VERTEX
8
Layer 1
10
157.559177
20
59.399020
70
0
0
VERTEX
8
Layer 1
10
157.534372
20
58.295047
70
0
0
VERTEX
8
Layer 1
10
157.162302
20
57.282356
70
0
0
VERTEX
8
Layer 1
10
156.542037
20
57.712911
70
0
0
VERTEX
8
Layer 1
10
156.269136
20
58.209223
70
0
0
VERTEX
8
Layer 1
10
156.343600
20
58.771267
70
0
0
VERTEX
8
Layer 1
10
156.765428
20
59.399020
70
0
0
VERTEX
8
Layer 1
10
156.765428
20
59.399020
70
0
0
SEQEND
8
Layer 1
0
POLYLINE
8
Layer 1
62
7
70
1
10
0.000000
20
0.000000
66
1
0
VERTEX
8
Layer 1
10
21.828098
20
56.224024
70
0
0
VERTEX
8
Layer 1
10
22.645049
20
56.335988
70
0
0
VERTEX
8
Layer 1
10
23.446532
20
56.263083
70
0
0
VERTEX
8
Layer 1
10
24.232547
20
56.005284
70
0
0
VERTEX
8
Layer 1
10
25.003094
20
55.562566
70
0
0
VERTEX
8
Layer 1
10
27.913507
20
55.297983
70
0
0
VERTEX
8
Layer 1
10
28.971839
20
54.504234
70
0
0
VERTEX
8
Layer 1
10
28.175555
20
53.937191
70
0
0
VERTEX
8
Layer 1
10
27.336881
20
53.660016
70
0
0
VERTEX
8
Layer 1
10
26.455791
20
53.672658
70
0
0
VERTEX
8
Layer 1
10
25.532260
20
53.975068
70
0
0
VERTEX
8
Layer 1
10
21.828098
20
56.224024
70
0
0
VERTEX
8
Layer 1
10
21.828098
20
56.224024
70
0
0
SEQEND
8
Layer 1
0
POLYLINE
8
Layer 1
62
7
70
1
10
0.000000
20
0.000000
66
1
0
VERTEX
8
Layer 1
10
30.294754
20
55.959440
70
0
0
VERTEX
8
Layer 1
10
30.755864
20
55.721762
70
0
0
VERTEX
8
Layer 1
10
30.953697
20
55.444099
70
0
0
VERTEX
8
Layer 1
10
30.888205
20
55.126451
70
0
0
VERTEX
8
Layer 1
10
30.559337
20
54.768817
70
0
0
VERTEX
8
Layer 1
10
29.897879
20
54.636459
70
0
0
VERTEX
8
Layer 1
10
29.236422
20
54.768817
70
0
0
VERTEX
8
Layer 1
10
30.294754
20
55.959440
70
0
0
VERTEX
8
Layer 1
10
30.294754
20
55.959440
70
0
0
SEQEND
8
Layer 1
0
POLYLINE
8
Layer 1
62
7
70
1
10
0.000000
20
0.000000
66
1
0
VERTEX
8
Layer 1
10
125.015467
20
55.694857
70
0
0
VERTEX
8
Layer 1
10
125.809217
20
55.694857
70
0
0
VERTEX
8
Layer 1
10
125.496248
20
54.716694
70
0
0
VERTEX
8
Layer 1
10
124.750885
20
53.975068
70
0
0
VERTEX
8
Layer 1
10
123.549768
20
53.424070
70
0
0
VERTEX
8
Layer 1
10
122.597340
20
52.775366
70
0
0
VERTEX
8
Layer 1
10
121.893597
20
52.028957
70
0
0
VERTEX
8
Layer 1
10
121.438537
20
51.184842
70
0
0
VERTEX
8
Layer 1
10
121.232155
20
50.243021
70
0
0
VERTEX
8
Layer 1
10
121.274450
20
49.203495
70
0
0
VERTEX
8
Layer 1
10
121.565417
20
48.066264
70
0
0
VERTEX
8
Layer 1
10
122.105055
20
46.831327
70
0
0
VERTEX
8
Layer 1
10
121.192388
20
45.351671
70
0
0
VERTEX
8
Layer 1
10
120.823669
20
45.023114
70
0
0
VERTEX
8
Layer 1
10
120.513356
20
44.968729
70
0
0
VERTEX
8
Layer 1
10
120.261446
20
45.188509
70
0
0
VERTEX
8
Layer 1
10
120.067935
20
45.682450
70
0
0
VERTEX
8
Layer 1
10
119.856099
20
47.492784
70
0
0
VERTEX
8
Layer 1
10
119.456612
20
48.156789
70
0
0
VERTEX
8
Layer 1
10
118.797767
20
48.551116
70
0
0
VERTEX
8
Layer 1
10
117.044210
20
47.872891
70
0
0
VERTEX
8
Layer 1
10
115.490480
20
46.831327
70
0
0
VERTEX
8
Layer 1
10
114.582199
20
46.552324
70
0
0
VERTEX
8
Layer 1
10
113.638399
20
46.434452
70
0
0
VERTEX
8
Layer 1
10
110.463403
20
47.360493
70
0
0
VERTEX
8
Layer 1
10
110.089795
20
47.825584
70
0
0
VERTEX
8
Layer 1
10
110.031405
20
48.223133
70
0
0
VERTEX
8
Layer 1
10
110.288232
20
48.553163
70
0
0
VERTEX
8
Layer 1
10
110.860277
20
48.815700
70
0
0
VERTEX
8
Layer 1
10
111.526861
20
48.282532
70
0
0
VERTEX
8
Layer 1
10
111.918609
20
47.492784
70
0
0
VERTEX
8
Layer 1
10
112.525000
20
48.100135
70
0
0
VERTEX
8
Layer 1
10
113.241524
20
48.551116
70
0
0
VERTEX
8
Layer 1
10
113.991410
20
48.321285
70
0
0
VERTEX
8
Layer 1
10
114.616231
20
48.398981
70
0
0
VERTEX
8
Layer 1
10
115.115937
20
48.784255
70
0
0
VERTEX
8
Layer 1
10
115.490480
20
49.477157
70
0
0
VERTEX
8
Layer 1
10
116.624185
20
49.579782
70
0
0
VERTEX
8
Layer 1
10
117.739435
20
49.344865
70
0
0
VERTEX
8
Layer 1
10
118.569692
20
49.658595
70
0
0
VERTEX
8
Layer 1
10
119.066947
20
50.160046
70
0
0
VERTEX
8
Layer 1
10
119.231175
20
50.849218
70
0
0
VERTEX
8
Layer 1
10
119.062350
20
51.726112
70
0
0
VERTEX
8
Layer 1
10
117.933684
20
52.385379
70
0
0
VERTEX
8
Layer 1
10
117.610185
20
52.756885
70
0
0
VERTEX
8
Layer 1
10
117.447236
20
53.156316
70
0
0
VERTEX
8
Layer 1
10
117.444836
20
53.583676
70
0
0
VERTEX
8
Layer 1
10
117.602980
20
54.038973
70
0
0
VERTEX
8
Layer 1
10
118.400893
20
55.033400
70
0
0
VERTEX
8
Layer 1
10
118.977444
20
55.121754
70
0
0
VERTEX
8
Layer 1
10
119.478341
20
55.018914
70
0
0
VERTEX
8
Layer 1
10
119.903534
20
54.724880
70
0
0
VERTEX
8
Layer 1
10
120.252974
20
54.239651
70
0
0
VERTEX
8
Layer 1
10
121.311306
20
54.107293
70
0
0
VERTEX
8
Layer 1
10
122.369638
20
54.239651
70
0
0
VERTEX
8
Layer 1
10
125.015467
20
55.694857
70
0
0
VERTEX
8
Layer 1
10
125.015467
20
55.694857
70
0
0
SEQEND
8
Layer 1
0
POLYLINE
8
Layer 1
62
7
70
1
10
0.000000
20
0.000000
66
1
0
VERTEX
8
Layer 1
10
66.278042
20
54.371943
70
0
0
VERTEX
8
Layer 1
10
66.919581
20
54.064117
70
0
0
VERTEX
8
Layer 1
10
67.309849
20
53.630779
70
0
0
VERTEX
8
Layer 1
10
67.448796
20
53.071930
70
0
0
VERTEX
8
Layer 1
10
67.336374
20
52.387570
70
0
0
VERTEX
8
Layer 1
10
66.850037
20
52.284945
70
0
0
VERTEX
8
Layer 1
10
66.410333
20
52.519861
70
0
0
VERTEX
8
Layer 1
10
66.096438
20
53.447886
70
0
0
VERTEX
8
Layer 1
10
66.278042
20
54.371943
70
0
0
VERTEX
8
Layer 1
10
66.278042
20
54.371943
70
0
0
SEQEND
8
Layer 1
0
POLYLINE
8
Layer 1
62
7
70
1
10
0.000000
20
0.000000
66
1
0
VERTEX
8
Layer 1
10
49.873896
20
0.132427
70
0
0
VERTEX
8
Layer 1
10
46.434317
20
0.132427
70
0
0
VERTEX
8
Layer 1
10
45.998681
20
2.324895
70
0
0
VERTEX
8
Layer 1
10
45.111401
20
4.365755
70
0
0
VERTEX
8
Layer 1
10
44.497172
20
3.882561
70
0
0
VERTEX
8
Layer 1
10
43.788487
20
3.572007
70
0
0
VERTEX
8
Layer 1
10
43.220555
20
4.026676
70
0
0
VERTEX
8
Layer 1
10
42.788727
20
4.575107
70
0
0
VERTEX
8
Layer 1
10
42.492977
20
5.217299
70
0
0
VERTEX
8
Layer 1
10
42.333280
20
5.953254
70
0
0
VERTEX
8
Layer 1
10
41.647824
20
6.374288
70
0
0
VERTEX
8
Layer 1
10
41.110675
20
6.911507
70
0
0
VERTEX
8
Layer 1
10
40.721808
20
7.564911
70
0
0
VERTEX
8
Layer 1
10
40.481199
20
8.334501
70
0
0
VERTEX
8
Layer 1
10
39.819741
20
8.863666
70
0
0
VERTEX
8
Layer 1
10
37.703077
20
8.069918
70
0
0
VERTEX
8
Layer 1
10
37.293735
20
7.470869
70
0
0
VERTEX
8
Layer 1
10
37.173912
20
6.747002
70
0
0
VERTEX
8
Layer 1
10
37.835369
20
3.307423
70
0
0
VERTEX
8
Layer 1
10
38.600146
20
1.778861
70
0
0
VERTEX
8
Layer 1
10
39.025993
20
0.132427
70
0
0
VERTEX
8
Layer 1
10
28.707256
20
0.132427
70
0
0
VERTEX
8
Layer 1
10
29.501005
20
1.984509
70
0
0
VERTEX
8
Layer 1
10
28.310381
20
3.572007
70
0
0
VERTEX
8
Layer 1
10
28.398884
20
4.901271
70
0
0
VERTEX
8
Layer 1
10
28.707256
20
6.217837
70
0
0
VERTEX
8
Layer 1
10
28.634330
20
6.806505
70
0
0
VERTEX
8
Layer 1
10
28.411584
20
7.179100
70
0
0
VERTEX
8
Layer 1
10
28.039018
20
7.335646
70
0
0
VERTEX
8
Layer 1
10
27.516632
20
7.276168
70
0
0
VERTEX
8
Layer 1
10
27.507901
20
3.693384
70
0
0
VERTEX
8
Layer 1
10
27.913507
20
0.132427
70
0
0
VERTEX
8
Layer 1
10
26.326009
20
0.132427
70
0
0
VERTEX
8
Layer 1
10
26.326519
20
2.330567
70
0
0
VERTEX
8
Layer 1
10
26.172352
20
4.518486
70
0
0
VERTEX
8
Layer 1
10
25.863503
20
6.696186
70
0
0
VERTEX
8
Layer 1
10
25.399968
20
8.863666
70
0
0
VERTEX
8
Layer 1
10
24.609024
20
9.775750
70
0
0
VERTEX
8
Layer 1
10
24.341636
20
10.980330
70
0
0
VERTEX
8
Layer 1
10
23.528285
20
11.517070
70
0
0
VERTEX
8
Layer 1
10
22.621847
20
11.906371
70
0
0
VERTEX
8
Layer 1
10
21.563515
20
13.493869
70
0
0
VERTEX
8
Layer 1
10
20.769766
20
13.626160
70
0
0
VERTEX
8
Layer 1
10
21.499459
20
11.710447
70
0
0
VERTEX
8
Layer 1
10
21.960389
20
9.657415
70
0
0
VERTEX
8
Layer 1
10
22.754138
20
8.334501
70
0
0
VERTEX
8
Layer 1
10
22.886430
20
3.572007
70
0
0
VERTEX
8
Layer 1
10
22.357264
20
2.249091
70
0
0
VERTEX
8
Layer 1
10
22.886430
20
0.132427
70
0
0
VERTEX
8
Layer 1
10
19.711434
20
0.132427
70
0
0
VERTEX
8
Layer 1
10
19.674921
20
1.140646
70
0
0
VERTEX
8
Layer 1
10
19.486363
20
2.094046
70
0
0
VERTEX
8
Layer 1
10
19.145757
20
2.992677
70
0
0
VERTEX
8
Layer 1
10
18.653102
20
3.836590
70
0
0
VERTEX
8
Layer 1
10
17.966687
20
2.711252
70
0
0
VERTEX
8
Layer 1
10
17.462478
20
1.455343
70
0
0
VERTEX
8
Layer 1
10
16.271854
20
0.132427
70
0
0
VERTEX
8
Layer 1
10
16.007272
20
0.132427
70
0
0
VERTEX
8
Layer 1
10
15.863042
20
0.856773
70
0
0
VERTEX
8
Layer 1
10
15.572433
20
1.495096
70
0
0
VERTEX
8
Layer 1
10
15.135441
20
2.047397
70
0
0
VERTEX
8
Layer 1
10
14.552065
20
2.513674
70
0
0
VERTEX
8
Layer 1
10
14.585205
20
3.517870
70
0
0
VERTEX
8
Layer 1
10
14.353714
20
4.425849
70
0
0
VERTEX
8
Layer 1
10
13.857597
20
5.237635
70
0
0
VERTEX
8
Layer 1
10
13.096858
20
5.953254
70
0
0
VERTEX
8
Layer 1
10
14.235518
20
8.657523
70
0
0
VERTEX
8
Layer 1
10
15.610397
20
11.244913
70
0
0
VERTEX
8
Layer 1
10
16.271854
20
12.964703
70
0
0
VERTEX
8
Layer 1
10
15.475162
20
13.760966
70
0
0
VERTEX
8
Layer 1
10
14.552065
20
14.419910
70
0
0
VERTEX
8
Layer 1
10
13.963653
20
13.749241
70
0
0
VERTEX
8
Layer 1
10
13.547033
20
12.996519
70
0
0
VERTEX
8
Layer 1
10
13.302201
20
12.161743
70
0
0
VERTEX
8
Layer 1
10
13.229150
20
11.244913
70
0
0
VERTEX
8
Layer 1
10
12.584007
20
10.776006
70
0
0
VERTEX
8
Layer 1
10
11.773944
20
10.848039
70
0
0
VERTEX
8
Layer 1
10
10.256834
20
12.365687
70
0
0
VERTEX
8
Layer 1
10
8.863530
20
14.023035
70
0
0
VERTEX
8
Layer 1
10
8.598948
20
14.155393
70
0
0
VERTEX
8
Layer 1
10
8.334364
20
14.023035
70
0
0
VERTEX
8
Layer 1
10
7.598682
20
11.020878
70
0
0
VERTEX
8
Layer 1
10
6.614575
20
8.069918
70
0
0
VERTEX
8
Layer 1
10
6.092050
20
7.631173
70
0
0
VERTEX
8
Layer 1
10
5.423952
20
7.673043
70
0
0
VERTEX
8
Layer 1
10
3.836454
20
10.451165
70
0
0
VERTEX
8
Layer 1
10
3.999275
20
11.061648
70
0
0
VERTEX
8
Layer 1
10
4.296087
20
11.573856
70
0
0
VERTEX
8
Layer 1
10
4.726884
20
11.987739
70
0
0
VERTEX
8
Layer 1
10
5.291660
20
12.303246
70
0
0
VERTEX
8
Layer 1
10
5.582245
20
14.678738
70
0
0
VERTEX
8
Layer 1
10
5.556243
20
17.065739
70
0
0
VERTEX
8
Layer 1
10
3.943530
20
18.702880
70
0
0
VERTEX
8
Layer 1
10
2.513539
20
20.505319
70
0
0
VERTEX
8
Layer 1
10
3.095919
20
21.010738
70
0
0
VERTEX
8
Layer 1
10
3.836454
20
21.299067
70
0
0
VERTEX
8
Layer 1
10
4.031449
20
21.840007
70
0
0
VERTEX
8
Layer 1
10
3.986201
20
22.284904
70
0
0
VERTEX
8
Layer 1
10
3.700715
20
22.633756
70
0
0
VERTEX
8
Layer 1
10
3.174996
20
22.886566
70
0
0
VERTEX
8
Layer 1
10
2.712945
20
22.717232
70
0
0
VERTEX
8
Layer 1
10
2.248956
20
22.754274
70
0
0
VERTEX
8
Layer 1
10
1.799248
20
23.354646
70
0
0
VERTEX
8
Layer 1
10
1.252471
20
23.753207
70
0
0
VERTEX
8
Layer 1
10
0.608625
20
23.949958
70
0
0
VERTEX
8
Layer 1
10
-0.132292
20
23.944897
70
0
0
VERTEX
8
Layer 1
10
-0.132292
20
31.088639
70
0
0
VERTEX
8
Layer 1
10
0.264583
20
31.617805
70
0
0
VERTEX
8
Layer 1
10
0.494640
20
33.691242
70
0
0
VERTEX
8
Layer 1
10
0.926041
20
35.718841
70
0
0
VERTEX
8
Layer 1
10
0.976421
20
36.344667
70
0
0
VERTEX
8
Layer 1
10
0.816826
20
36.795793
70
0
0
VERTEX
8
Layer 1
10
0.447255
20
37.072245
70
0
0
VERTEX
8
Layer 1
10
-0.132292
20
37.174048
70
0
0
VERTEX
8
Layer 1
10
-0.132292
20
39.290712
70
0
0
VERTEX
8
Layer 1
10
0.662543
20
39.497537
70
0
0
VERTEX
8
Layer 1
10
1.125926
20
39.875142
70
0
0
VERTEX
8
Layer 1
10
1.257855
20
40.423553
70
0
0
VERTEX
8
Layer 1
10
1.058332
20
41.142792
70
0
0
VERTEX
8
Layer 1
10
-0.132292
20
40.613626
70
0
0
VERTEX
8
Layer 1
10
-0.132292
20
44.582372
70
0
0
VERTEX
8
Layer 1
10
0.305255
20
44.369849
70
0
0
VERTEX
8
Layer 1
10
0.715686
20
44.343089
70
0
0
VERTEX
8
Layer 1
10
1.099004
20
44.502116
70
0
0
VERTEX
8
Layer 1
10
1.455207
20
44.846955
70
0
0
VERTEX
8
Layer 1
10
2.250423
20
46.238289
70
0
0
VERTEX
8
Layer 1
10
2.625742
20
47.672238
70
0
0
VERTEX
8
Layer 1
10
2.581157
20
49.148752
70
0
0
VERTEX
8
Layer 1
10
2.116664
20
50.667780
70
0
0
VERTEX
8
Layer 1
10
1.059748
20
51.230549
70
0
0
VERTEX
8
Layer 1
10
-0.132292
20
51.461529
70
0
0
VERTEX
8
Layer 1
10
-0.132292
20
52.784444
70
0
0
VERTEX
8
Layer 1
10
1.984373
20
53.578193
70
0
0
VERTEX
8
Layer 1
10
3.861390
20
50.888575
70
0
0
VERTEX
8
Layer 1
10
5.556243
20
48.021951
70
0
0
VERTEX
8
Layer 1
10
6.085409
20
45.905287
70
0
0
VERTEX
8
Layer 1
10
6.217701
20
42.068833
70
0
0
VERTEX
8
Layer 1
10
5.675997
20
40.830688
70
0
0
VERTEX
8
Layer 1
10
4.944213
20
39.734450
70
0
0
VERTEX
8
Layer 1
10
4.022351
20
38.780145
70
0
0
VERTEX
8
Layer 1
10
2.910413
20
37.967797
70
0
0
VERTEX
8
Layer 1
10
2.248956
20
35.718841
70
0
0
VERTEX
8
Layer 1
10
3.174996
20
29.236558
70
0
0
VERTEX
8
Layer 1
10
3.836454
20
28.707391
70
0
0
VERTEX
8
Layer 1
10
5.423952
20
30.162598
70
0
0
VERTEX
8
Layer 1
10
7.106220
20
30.372578
70
0
0
VERTEX
8
Layer 1
10
8.731239
20
30.824056
70
0
0
VERTEX
8
Layer 1
10
10.039179
20
30.531923
70
0
0
VERTEX
8
Layer 1
10
11.112486
20
29.765723
70
0
0
VERTEX
8
Layer 1
10
11.124111
20
30.595985
70
0
0
VERTEX
8
Layer 1
10
11.641652
20
31.353222
70
0
0
VERTEX
8
Layer 1
10
12.567692
20
30.294889
70
0
0
VERTEX
8
Layer 1
10
13.039418
20
31.046768
70
0
0
VERTEX
8
Layer 1
10
13.361442
20
31.882387
70
0
0
VERTEX
8
Layer 1
10
15.213522
20
32.279262
70
0
0
VERTEX
8
Layer 1
10
16.761257
20
34.979001
70
0
0
VERTEX
8
Layer 1
10
18.653102
20
37.438631
70
0
0
VERTEX
8
Layer 1
10
19.843725
20
41.142792
70
0
0
VERTEX
8
Layer 1
10
21.629664
20
43.193278
70
0
0
VERTEX
8
Layer 1
10
23.680179
20
44.979246
70
0
0
VERTEX
8
Layer 1
10
31.088503
20
47.228201
70
0
0
VERTEX
8
Layer 1
10
31.272260
20
48.447503
70
0
0
VERTEX
8
Layer 1
10
31.642176
20
48.964164
70
0
0
VERTEX
8
Layer 1
10
31.896951
20
48.959011
70
0
0
VERTEX
8
Layer 1
10
32.198275
20
48.778207
70
0
0
VERTEX
8
Layer 1
10
32.940584
20
47.889659
70
0
0
VERTEX
8
Layer 1
10
34.528081
20
46.963619
70
0
0
VERTEX
8
Layer 1
10
34.713777
20
46.620421
70
0
0
VERTEX
8
Layer 1
10
34.731546
20
46.307585
70
0
0
VERTEX
8
Layer 1
10
34.263499
20
45.772995
70
0
0
VERTEX
8
Layer 1
10
32.306312
20
46.078026
70
0
0
VERTEX
8
Layer 1
10
30.294754
20
46.037578
70
0
0
VERTEX
8
Layer 1
10
26.999296
20
44.522477
70
0
0
VERTEX
8
Layer 1
10
23.944762
20
42.597999
70
0
0
VERTEX
8
Layer 1
10
19.049976
20
35.057384
70
0
0
VERTEX
8
Layer 1
10
17.531948
20
31.755586
70
0
0
VERTEX
8
Layer 1
10
15.610397
20
28.707391
70
0
0
VERTEX
8
Layer 1
10
15.596680
20
27.563554
70
0
0
VERTEX
8
Layer 1
10
15.966933
20
26.763335
70
0
0
VERTEX
8
Layer 1
10
16.721156
20
26.306760
70
0
0
VERTEX
8
Layer 1
10
17.859352
20
26.193853
70
0
0
VERTEX
8
Layer 1
10
19.091056
20
27.473575
70
0
0
VERTEX
8
Layer 1
10
20.505183
20
28.575100
70
0
0
VERTEX
8
Layer 1
10
25.207739
20
30.925986
70
0
0
VERTEX
8
Layer 1
10
29.633296
20
33.734469
70
0
0
VERTEX
8
Layer 1
10
31.088503
20
32.940720
70
0
0
VERTEX
8
Layer 1
10
32.017346
20
33.078385
70
0
0
VERTEX
8
Layer 1
10
32.415122
20
32.925837
70
0
0
VERTEX
8
Layer 1
10
32.281879
20
32.483074
70
0
0
VERTEX
8
Layer 1
10
31.617669
20
31.750096
70
0
0
VERTEX
8
Layer 1
10
30.067468
20
31.521790
70
0
0
VERTEX
8
Layer 1
10
28.668825
20
31.004733
70
0
0
VERTEX
8
Layer 1
10
27.421688
20
30.198900
70
0
0
VERTEX
8
Layer 1
10
26.326009
20
29.104266
70
0
0
VERTEX
8
Layer 1
10
23.708403
20
28.231341
70
0
0
VERTEX
8
Layer 1
10
21.166640
20
27.119894
70
0
0
VERTEX
8
Layer 1
10
21.167329
20
26.152367
70
0
0
VERTEX
8
Layer 1
10
21.410096
20
25.278627
70
0
0
VERTEX
8
Layer 1
10
21.894937
20
24.498699
70
0
0
VERTEX
8
Layer 1
10
22.621847
20
23.812606
70
0
0
VERTEX
8
Layer 1
10
23.018721
20
23.680248
70
0
0
VERTEX
8
Layer 1
10
23.415596
20
23.812606
70
0
0
VERTEX
8
Layer 1
10
24.221472
20
24.622627
70
0
0
VERTEX
8
Layer 1
10
25.267677
20
25.003230
70
0
0
VERTEX
8
Layer 1
10
25.043796
20
23.292965
70
0
0
VERTEX
8
Layer 1
10
25.003094
20
21.563650
70
0
0
VERTEX
8
Layer 1
10
23.944762
20
21.695942
70
0
0
VERTEX
8
Layer 1
10
23.089721
20
22.323591
70
0
0
VERTEX
8
Layer 1
10
22.385782
20
22.378500
70
0
0
VERTEX
8
Layer 1
10
21.832949
20
21.860620
70
0
0
VERTEX
8
Layer 1
10
21.431223
20
20.769902
70
0
0
VERTEX
8
Layer 1
10
21.201509
20
18.702020
70
0
0
VERTEX
8
Layer 1
10
20.769766
20
16.668865
70
0
0
VERTEX
8
Layer 1
10
21.110819
20
15.976670
70
0
0
VERTEX
8
Layer 1
10
21.577283
20
15.591582
70
0
0
VERTEX
8
Layer 1
10
22.169154
20
15.513625
70
0
0
VERTEX
8
Layer 1
10
22.886430
20
15.742824
70
0
0
VERTEX
8
Layer 1
10
22.621847
20
13.626160
70
0
0
VERTEX
8
Layer 1
10
23.799664
20
13.689826
70
0
0
VERTEX
8
Layer 1
10
24.870802
20
14.155327
70
0
0
VERTEX
8
Layer 1
10
25.839335
20
16.619553
70
0
0
VERTEX
8
Layer 1
10
26.458300
20
19.182403
70
0
0
VERTEX
8
Layer 1
10
27.005594
20
19.590746
70
0
0
VERTEX
8
Layer 1
10
27.364398
20
20.079604
70
0
0
VERTEX
8
Layer 1
10
27.534735
20
20.649028
70
0
0
VERTEX
8
Layer 1
10
27.516632
20
21.299067
70
0
0
VERTEX
8
Layer 1
10
26.652784
20
21.905545
70
0
0
VERTEX
8
Layer 1
10
26.342790
20
22.548660
70
0
0
VERTEX
8
Layer 1
10
26.586643
20
23.228436
70
0
0
VERTEX
8
Layer 1
10
27.384341
20
23.944897
70
0
0
VERTEX
8
Layer 1
10
28.341966
20
23.119134
70
0
0
VERTEX
8
Layer 1
10
29.501005
20
22.621983
70
0
0
VERTEX
8
Layer 1
10
30.427045
20
22.886499
70
0
0
VERTEX
8
Layer 1
10
31.353086
20
22.621983
70
0
0
VERTEX
8
Layer 1
10
32.014543
20
22.886566
70
0
0
VERTEX
8
Layer 1
10
32.180602
20
23.722979
70
0
0
VERTEX
8
Layer 1
10
32.543709
20
24.474063
70
0
0
VERTEX
8
Layer 1
10
33.469749
20
22.489691
70
0
0
VERTEX
8
Layer 1
10
33.141534
20
21.510006
70
0
0
VERTEX
8
Layer 1
10
33.072875
20
20.505319
70
0
0
VERTEX
8
Layer 1
10
33.999048
20
20.217584
70
0
0
VERTEX
8
Layer 1
10
34.792665
20
19.711569
70
0
0
VERTEX
8
Layer 1
10
34.395790
20
16.801157
70
0
0
VERTEX
8
Layer 1
10
33.752622
20
15.667088
70
0
0
VERTEX
8
Layer 1
10
33.337458
20
14.419910
70
0
0
VERTEX
8
Layer 1
10
33.676819
20
12.672339
70
0
0
VERTEX
8
Layer 1
10
34.395790
20
10.980330
70
0
0
VERTEX
8
Layer 1
10
34.740872
20
11.325777
70
0
0
VERTEX
8
Layer 1
10
35.189539
20
11.509496
70
0
0
VERTEX
8
Layer 1
10
35.869687
20
11.145612
70
0
0
VERTEX
8
Layer 1
10
36.537358
20
11.024317
70
0
0
VERTEX
8
Layer 1
10
37.192577
20
11.145612
70
0
0
VERTEX
8
Layer 1
10
37.835369
20
11.509496
70
0
0
VERTEX
8
Layer 1
10
39.025993
20
14.023035
70
0
0
VERTEX
8
Layer 1
10
38.719800
20
14.779631
70
0
0
VERTEX
8
Layer 1
10
38.639801
20
15.538930
70
0
0
VERTEX
8
Layer 1
10
38.785970
20
16.300958
70
0
0
VERTEX
8
Layer 1
10
39.158284
20
17.065739
70
0
0
VERTEX
8
Layer 1
10
41.407240
20
17.462614
70
0
0
VERTEX
8
Layer 1
10
41.671823
20
19.050112
70
0
0
VERTEX
8
Layer 1
10
41.279512
20
21.285706
70
0
0
VERTEX
8
Layer 1
10
40.481199
20
23.415731
70
0
0
VERTEX
8
Layer 1
10
40.136117
20
23.761178
70
0
0
VERTEX
8
Layer 1
10
39.687450
20
23.944897
70
0
0
VERTEX
8
Layer 1
10
36.644745
20
20.505319
70
0
0
VERTEX
8
Layer 1
10
35.597299
20
20.095207
70
0
0
VERTEX
8
Layer 1
10
35.093793
20
20.178955
70
0
0
VERTEX
8
Layer 1
10
35.134254
20
20.756614
70
0
0
VERTEX
8
Layer 1
10
35.718705
20
21.828233
70
0
0
VERTEX
8
Layer 1
10
39.025993
20
26.061561
70
0
0
VERTEX
8
Layer 1
10
38.496827
20
26.987602
70
0
0
VERTEX
8
Layer 1
10
37.656544
20
27.057948
70
0
0
VERTEX
8
Layer 1
10
36.979575
20
27.345980
70
0
0
VERTEX
8
Layer 1
10
36.465920
20
27.851697
70
0
0
VERTEX
8
Layer 1
10
36.115580
20
28.575100
70
0
0
VERTEX
8
Layer 1
10
36.314860
20
29.585249
70
0
0
VERTEX
8
Layer 1
10
36.778161
20
30.296775
70
0
0
VERTEX
8
Layer 1
10
37.505484
20
30.709702
70
0
0
VERTEX
8
Layer 1
10
38.496827
20
30.824056
70
0
0
VERTEX
8
Layer 1
10
38.629118
20
31.882387
70
0
0
VERTEX
8
Layer 1
10
39.599517
20
32.896799
70
0
0
VERTEX
8
Layer 1
10
40.363989
20
34.028685
70
0
0
VERTEX
8
Layer 1
10
40.922482
20
35.278046
70
0
0
VERTEX
8
Layer 1
10
41.274948
20
36.644881
70
0
0
VERTEX
8
Layer 1
10
41.300943
20
41.415511
70
0
0
VERTEX
8
Layer 1
10
40.878073
20
46.169869
70
0
0
VERTEX
8
Layer 1
10
41.010365
20
47.228201
70
0
0
VERTEX
8
Layer 1
10
41.614164
20
48.444419
70
0
0
VERTEX
8
Layer 1
10
42.057948
20
48.805745
70
0
0
VERTEX
8
Layer 1
10
42.341743
20
48.312153
70
0
0
VERTEX
8
Layer 1
10
42.465572
20
46.963619
70
0
0
VERTEX
8
Layer 1
10
42.043892
20
44.599239
70
0
0
VERTEX
8
Layer 1
10
42.068697
20
42.201125
70
0
0
VERTEX
8
Layer 1
10
42.250308
20
41.639051
70
0
0
VERTEX
8
Layer 1
10
42.553413
20
41.187110
70
0
0
VERTEX
8
Layer 1
10
42.977961
20
40.845302
70
0
0
VERTEX
8
Layer 1
10
43.523904
20
40.613626
70
0
0
VERTEX
8
Layer 1
10
43.704572
20
39.830295
70
0
0
VERTEX
8
Layer 1
10
44.073509
20
39.238456
70
0
0
VERTEX
8
Layer 1
10
44.630662
20
38.838109
70
0
0
VERTEX
8
Layer 1
10
45.375985
20
38.629254
70
0
0
VERTEX
8
Layer 1
10
45.640568
20
37.967797
70
0
0
VERTEX
8
Layer 1
10
44.449944
20
35.321967
70
0
0
VERTEX
8
Layer 1
10
43.187089
20
33.588650
70
0
0
VERTEX
8
Layer 1
10
42.465572
20
31.617805
70
0
0
VERTEX
8
Layer 1
10
43.788487
20
31.485513
70
0
0
VERTEX
8
Layer 1
10
44.487829
20
30.974686
70
0
0
VERTEX
8
Layer 1
10
45.117818
20
30.870556
70
0
0
VERTEX
8
Layer 1
10
45.678452
20
31.173123
70
0
0
VERTEX
8
Layer 1
10
46.169733
20
31.882387
70
0
0
VERTEX
8
Layer 1
10
45.633705
20
32.752680
70
0
0
VERTEX
8
Layer 1
10
45.388883
20
33.660154
70
0
0
VERTEX
8
Layer 1
10
45.435268
20
34.604785
70
0
0
VERTEX
8
Layer 1
10
45.772859
20
35.586550
70
0
0
VERTEX
8
Layer 1
10
46.434317
20
35.851066
70
0
0
VERTEX
8
Layer 1
10
47.095774
20
35.586550
70
0
0
VERTEX
8
Layer 1
10
47.757232
20
32.146970
70
0
0
VERTEX
8
Layer 1
10
48.684132
20
31.553412
70
0
0
VERTEX
8
Layer 1
10
49.344729
20
30.691764
70
0
0
VERTEX
8
Layer 1
10
48.568476
20
29.508053
70
0
0
VERTEX
8
Layer 1
10
47.624940
20
28.442808
70
0
0
VERTEX
8
Layer 1
10
47.703525
20
26.981620
70
0
0
VERTEX
8
Layer 1
10
47.575364
20
25.546451
70
0
0
VERTEX
8
Layer 1
10
47.240480
20
24.137328
70
0
0
VERTEX
8
Layer 1
10
46.698900
20
22.754274
70
0
0
VERTEX
8
Layer 1
10
47.523671
20
20.181370
70
0
0
VERTEX
8
Layer 1
10
48.815564
20
17.859488
70
0
0
VERTEX
8
Layer 1
10
46.698900
20
11.377205
70
0
0
VERTEX
8
Layer 1
10
46.963483
20
10.715747
70
0
0
VERTEX
8
Layer 1
10
46.515180
20
7.917584
70
0
0
VERTEX
8
Layer 1
10
45.905151
20
5.159504
70
0
0
VERTEX
8
Layer 1
10
46.745764
20
5.336709
70
0
0
VERTEX
8
Layer 1
10
47.360357
20
5.953254
70
0
0
VERTEX
8
Layer 1
10
47.944953
20
7.651479
70
0
0
VERTEX
8
Layer 1
10
48.947855
20
9.128249
70
0
0
VERTEX
8
Layer 1
10
49.968219
20
12.377494
70
0
0
VERTEX
8
Layer 1
10
50.535353
20
15.742824
70
0
0
VERTEX
8
Layer 1
10
50.932228
20
16.007407
70
0
0
VERTEX
8
Layer 1
10
51.048082
20
12.696846
70
0
0
VERTEX
8
Layer 1
10
50.667645
20
9.392832
70
0
0
VERTEX
8
Layer 1
10
50.867272
20
7.938684
70
0
0
VERTEX
8
Layer 1
10
51.461393
20
6.614711
70
0
0
VERTEX
8
Layer 1
10
50.467620
20
3.420698
70
0
0
VERTEX
8
Layer 1
10
49.873896
20
0.132427
70
0
0
VERTEX
8
Layer 1
10
49.873896
20
0.132427
70
0
0
SEQEND
8
Layer 1
0
POLYLINE
8
Layer 1
62
7
70
1
10
0.000000
20
0.000000
66
1
0
VERTEX
8
Layer 1
10
108.875905
20
53.578193
70
0
0
VERTEX
8
Layer 1
10
109.455970
20
53.420469
70
0
0
VERTEX
8
Layer 1
10
109.934237
20
53.049028
70
0
0
VERTEX
8
Layer 1
10
111.109349
20
51.475652
70
0
0
VERTEX
8
Layer 1
10
112.050901
20
49.741740
70
0
0
VERTEX
8
Layer 1
10
111.764919
20
49.469881
70
0
0
VERTEX
8
Layer 1
10
111.389443
20
49.344865
70
0
0
VERTEX
8
Layer 1
10
110.278327
20
49.927841
70
0
0
VERTEX
8
Layer 1
10
109.272779
20
50.667780
70
0
0
VERTEX
8
Layer 1
10
108.824112
20
50.484061
70
0
0
VERTEX
8
Layer 1
10
108.479030
20
50.138615
70
0
0
VERTEX
8
Layer 1
10
107.500569
20
48.104434
70
0
0
VERTEX
8
Layer 1
10
106.362366
20
46.169869
70
0
0
VERTEX
8
Layer 1
10
106.230075
20
43.259456
70
0
0
VERTEX
8
Layer 1
10
105.077121
20
43.571201
70
0
0
VERTEX
8
Layer 1
10
103.981119
20
44.053205
70
0
0
VERTEX
8
Layer 1
10
103.605113
20
47.509354
70
0
0
VERTEX
8
Layer 1
10
103.055079
20
50.932364
70
0
0
VERTEX
8
Layer 1
10
103.305750
20
51.543798
70
0
0
VERTEX
8
Layer 1
10
103.675956
20
51.879901
70
0
0
VERTEX
8
Layer 1
10
104.165670
20
51.940673
70
0
0
VERTEX
8
Layer 1
10
104.774868
20
51.726112
70
0
0
VERTEX
8
Layer 1
10
105.700909
20
48.021951
70
0
0
VERTEX
8
Layer 1
10
106.429124
20
48.454746
70
0
0
VERTEX
8
Layer 1
10
106.870299
20
49.039967
70
0
0
VERTEX
8
Layer 1
10
107.024435
20
49.777636
70
0
0
VERTEX
8
Layer 1
10
106.891532
20
50.667780
70
0
0
VERTEX
8
Layer 1
10
106.659104
20
51.207687
70
0
0
VERTEX
8
Layer 1
10
106.625758
20
51.740400
70
0
0
VERTEX
8
Layer 1
10
106.791445
20
52.265969
70
0
0
VERTEX
8
Layer 1
10
107.156115
20
52.784444
70
0
0
VERTEX
8
Layer 1
10
108.875905
20
53.578193
70
0
0
VERTEX
8
Layer 1
10
108.875905
20
53.578193
70
0
0
SEQEND
8
Layer 1
0
POLYLINE
8
Layer 1
62
7
70
1
10
0.000000
20
0.000000
66
1
0
VERTEX
8
Layer 1
10
9.128114
20
53.313611
70
0
0
VERTEX
8
Layer 1
10
12.303110
20
53.313611
70
0
0
VERTEX
8
Layer 1
10
12.303110
20
52.519861
70
0
0
VERTEX
8
Layer 1
10
9.392696
20
52.387570
70
0
0
VERTEX
8
Layer 1
10
9.160532
20
52.819733
70
0
0
VERTEX
8
Layer 1
10
9.128114
20
53.313611
70
0
0
VERTEX
8
Layer 1
10
9.128114
20
53.313611
70
0
0
SEQEND
8
Layer 1
0
POLYLINE
8
Layer 1
62
7
70
1
10
0.000000
20
0.000000
66
1
0
VERTEX
8
Layer 1
10
140.890447
20
51.726112
70
0
0
VERTEX
8
Layer 1
10
142.228345
20
51.709708
70
0
0
VERTEX
8
Layer 1
10
143.536278
20
51.461529
70
0
0
VERTEX
8
Layer 1
10
143.696813
20
50.435803
70
0
0
VERTEX
8
Layer 1
10
143.618034
20
49.454502
70
0
0
VERTEX
8
Layer 1
10
143.299939
20
48.517601
70
0
0
VERTEX
8
Layer 1
10
142.742529
20
47.625076
70
0
0
VERTEX
8
Layer 1
10
142.345654
20
47.492718
70
0
0
VERTEX
8
Layer 1
10
141.948780
20
47.625076
70
0
0
VERTEX
8
Layer 1
10
140.361282
20
50.403197
70
0
0
VERTEX
8
Layer 1
10
140.890447
20
51.726112
70
0
0
VERTEX
8
Layer 1
10
140.890447
20
51.726112
70
0
0
SEQEND
8
Layer 1
0
POLYLINE
8
Layer 1
62
7
70
1
10
0.000000
20
0.000000
66
1
0
VERTEX
8
Layer 1
10
-0.132292
20
51.461529
70
0
0
VERTEX
8
Layer 1
10
1.059748
20
51.230549
70
0
0
VERTEX
8
Layer 1
10
2.116664
20
50.667780
70
0
0
VERTEX
8
Layer 1
10
2.581157
20
49.148752
70
0
0
VERTEX
8
Layer 1
10
2.625742
20
47.672238
70
0
0
VERTEX
8
Layer 1
10
2.250423
20
46.238289
70
0
0
VERTEX
8
Layer 1
10
1.455207
20
44.846955
70
0
0
VERTEX
8
Layer 1
10
1.099004
20
44.502116
70
0
0
VERTEX
8
Layer 1
10
0.715686
20
44.343089
70
0
0
VERTEX
8
Layer 1
10
0.305255
20
44.369849
70
0
0
VERTEX
8
Layer 1
10
-0.132292
20
44.582372
70
0
0
VERTEX
8
Layer 1
10
-0.132292
20
51.461529
70
0
0
VERTEX
8
Layer 1
10
-0.132292
20
51.461529
70
0
0
SEQEND
8
Layer 1
0
POLYLINE
8
Layer 1
62
7
70
1
10
0.000000
20
0.000000
66
1
0
VERTEX
8
Layer 1
10
38.496827
20
49.609448
70
0
0
VERTEX
8
Layer 1
10
38.927468
20
49.449541
70
0
0
VERTEX
8
Layer 1
10
38.761409
20
49.080283
70
0
0
VERTEX
8
Layer 1
10
38.536944
20
49.303293
70
0
0
VERTEX
8
Layer 1
10
38.496827
20
49.609448
70
0
0
VERTEX
8
Layer 1
10
38.496827
20
49.609448
70
0
0
SEQEND
8
Layer 1
0
POLYLINE
8
Layer 1
62
7
70
1
10
0.000000
20
0.000000
66
1
0
VERTEX
8
Layer 1
10
132.688375
20
49.609448
70
0
0
VERTEX
8
Layer 1
10
133.688693
20
49.551261
70
0
0
VERTEX
8
Layer 1
10
134.308780
20
49.179071
70
0
0
VERTEX
8
Layer 1
10
134.548612
20
48.492904
70
0
0
VERTEX
8
Layer 1
10
134.408164
20
47.492784
70
0
0
VERTEX
8
Layer 1
10
133.923923
20
47.164772
70
0
0
VERTEX
8
Layer 1
10
133.453846
20
47.099515
70
0
0
VERTEX
8
Layer 1
10
132.997908
20
47.297039
70
0
0
VERTEX
8
Layer 1
10
132.556083
20
47.757368
70
0
0
VERTEX
8
Layer 1
10
132.449588
20
48.702359
70
0
0
VERTEX
8
Layer 1
10
132.688375
20
49.609448
70
0
0
VERTEX
8
Layer 1
10
132.688375
20
49.609448
70
0
0
SEQEND
8
Layer 1
0
POLYLINE
8
Layer 1
62
7
70
1
10
0.000000
20
0.000000
66
1
0
VERTEX
8
Layer 1
10
98.821751
20
0.132427
70
0
0
VERTEX
8
Layer 1
10
95.382171
20
0.132427
70
0
0
VERTEX
8
Layer 1
10
94.563386
20
2.034614
70
0
0
VERTEX
8
Layer 1
10
93.530091
20
3.836590
70
0
0
VERTEX
8
Layer 1
10
92.896183
20
3.088287
70
0
0
VERTEX
8
Layer 1
10
92.155714
20
2.486059
70
0
0
VERTEX
8
Layer 1
10
91.308685
20
2.029930
70
0
0
VERTEX
8
Layer 1
10
90.355095
20
1.719926
70
0
0
VERTEX
8
Layer 1
10
90.140187
20
2.637731
70
0
0
VERTEX
8
Layer 1
10
90.355095
20
3.572007
70
0
0
VERTEX
8
Layer 1
10
89.754429
20
5.376996
70
0
0
VERTEX
8
Layer 1
10
89.399851
20
7.213363
70
0
0
VERTEX
8
Layer 1
10
89.291384
20
9.081133
70
0
0
VERTEX
8
Layer 1
10
89.429054
20
10.980330
70
0
0
VERTEX
8
Layer 1
10
90.487386
20
12.832411
70
0
0
VERTEX
8
Layer 1
10
90.121269
20
14.361536
70
0
0
VERTEX
8
Layer 1
10
89.296762
20
15.742824
70
0
0
VERTEX
8
Layer 1
10
87.973848
20
13.229286
70
0
0
VERTEX
8
Layer 1
10
87.444682
20
13.096928
70
0
0
VERTEX
8
Layer 1
10
86.915515
20
13.229286
70
0
0
VERTEX
8
Layer 1
10
86.110886
20
14.027632
70
0
0
VERTEX
8
Layer 1
10
85.195726
20
14.684493
70
0
0
VERTEX
8
Layer 1
10
84.931143
20
16.536574
70
0
0
VERTEX
8
Layer 1
10
83.670537
20
18.793037
70
0
0
VERTEX
8
Layer 1
10
82.682187
20
21.166776
70
0
0
VERTEX
8
Layer 1
10
82.919155
20
22.045919
70
0
0
VERTEX
8
Layer 1
10
82.549896
20
22.886566
70
0
0
VERTEX
8
Layer 1
10
82.207360
20
23.126873
70
0
0
VERTEX
8
Layer 1
10
81.888439
20
22.886566
70
0
0
VERTEX
8
Layer 1
10
80.697815
20
20.240735
70
0
0
VERTEX
8
Layer 1
10
80.168649
20
19.976152
70
0
0
VERTEX
8
Layer 1
10
78.722637
20
21.157020
70
0
0
VERTEX
8
Layer 1
10
77.390528
20
22.489691
70
0
0
VERTEX
8
Layer 1
10
76.983930
20
22.554315
70
0
0
VERTEX
8
Layer 1
10
76.596778
20
22.357399
70
0
0
VERTEX
8
Layer 1
10
76.459460
20
21.047085
70
0
0
VERTEX
8
Layer 1
10
76.596778
20
19.711569
70
0
0
VERTEX
8
Layer 1
10
77.787402
20
18.917821
70
0
0
VERTEX
8
Layer 1
10
78.214241
20
16.221587
70
0
0
VERTEX
8
Layer 1
10
78.978026
20
13.626160
70
0
0
VERTEX
8
Layer 1
10
78.484148
20
13.593782
70
0
0
VERTEX
8
Layer 1
10
78.051985
20
13.361577
70
0
0
VERTEX
8
Layer 1
10
77.741191
20
12.388991
70
0
0
VERTEX
8
Layer 1
10
77.196588
20
11.712002
70
0
0
VERTEX
8
Layer 1
10
76.418226
20
11.330634
70
0
0
VERTEX
8
Layer 1
10
75.406155
20
11.244913
70
0
0
VERTEX
8
Layer 1
10
75.273864
20
10.318873
70
0
0
VERTEX
8
Layer 1
10
75.742572
20
9.289414
70
0
0
VERTEX
8
Layer 1
10
76.067613
20
8.202209
70
0
0
VERTEX
8
Layer 1
10
75.317652
20
6.042220
70
0
0
VERTEX
8
Layer 1
10
74.744698
20
3.836590
70
0
0
VERTEX
8
Layer 1
10
76.596778
20
4.101173
70
0
0
VERTEX
8
Layer 1
10
76.596778
20
0.132427
70
0
0
VERTEX
8
Layer 1
10
66.542625
20
0.132427
70
0
0
VERTEX
8
Layer 1
10
66.410333
20
1.455343
70
0
0
VERTEX
8
Layer 1
10
65.329644
20
4.166392
70
0
0
VERTEX
8
Layer 1
10
64.822835
20
7.011585
70
0
0
VERTEX
8
Layer 1
10
68.130122
20
8.202209
70
0
0
VERTEX
8
Layer 1
10
69.056163
20
9.128249
70
0
0
VERTEX
8
Layer 1
10
69.089261
20
10.582795
70
0
0
VERTEX
8
Layer 1
10
69.519183
20
11.795246
70
0
0
VERTEX
8
Layer 1
10
70.345980
20
12.765604
70
0
0
VERTEX
8
Layer 1
10
71.569702
20
13.493869
70
0
0
VERTEX
8
Layer 1
10
72.098867
20
14.419910
70
0
0
VERTEX
8
Layer 1
10
71.682298
20
15.158538
70
0
0
VERTEX
8
Layer 1
10
71.146567
20
15.559105
70
0
0
VERTEX
8
Layer 1
10
70.491675
20
15.621583
70
0
0
VERTEX
8
Layer 1
10
69.717621
20
15.345950
70
0
0
VERTEX
8
Layer 1
10
68.960186
20
13.727938
70
0
0
VERTEX
8
Layer 1
10
67.980104
20
12.284625
70
0
0
VERTEX
8
Layer 1
10
66.777376
20
11.015987
70
0
0
VERTEX
8
Layer 1
10
65.352001
20
9.921999
70
0
0
VERTEX
8
Layer 1
10
64.905765
20
10.998169
70
0
0
VERTEX
8
Layer 1
10
64.624728
20
12.106561
70
0
0
VERTEX
8
Layer 1
10
64.508891
20
13.247149
70
0
0
VERTEX
8
Layer 1
10
64.558252
20
14.419910
70
0
0
VERTEX
8
Layer 1
10
65.820280
20
14.474877
70
0
0
VERTEX
8
Layer 1
10
67.071791
20
14.816784
70
0
0
VERTEX
8
Layer 1
10
67.911966
20
15.520889
70
0
0
VERTEX
8
Layer 1
10
68.434591
20
16.350902
70
0
0
VERTEX
8
Layer 1
10
68.639618
20
17.306824
70
0
0
VERTEX
8
Layer 1
10
68.526997
20
18.388655
70
0
0
VERTEX
8
Layer 1
10
67.239735
20
19.905112
70
0
0
VERTEX
8
Layer 1
10
66.145750
20
21.563650
70
0
0
VERTEX
8
Layer 1
10
66.027973
20
22.402842
70
0
0
VERTEX
8
Layer 1
10
66.209217
20
22.947155
70
0
0
VERTEX
8
Layer 1
10
66.689456
20
23.196591
70
0
0
VERTEX
8
Layer 1
10
67.468665
20
23.151149
70
0
0
VERTEX
8
Layer 1
10
68.117191
20
20.941153
70
0
0
VERTEX
8
Layer 1
10
68.923872
20
18.785529
70
0
0
VERTEX
8
Layer 1
10
69.350168
20
18.690680
70
0
0
VERTEX
8
Layer 1
10
69.668640
20
18.769290
70
0
0
VERTEX
8
Layer 1
10
69.879310
20
19.021384
70
0
0
VERTEX
8
Layer 1
10
69.982203
20
19.446986
70
0
0
VERTEX
8
Layer 1
10
68.791580
20
23.151149
70
0
0
VERTEX
8
Layer 1
10
68.781948
20
25.352062
70
0
0
VERTEX
8
Layer 1
10
68.572849
20
26.009784
70
0
0
VERTEX
8
Layer 1
10
68.227555
20
26.372347
70
0
0
VERTEX
8
Layer 1
10
67.746059
20
26.439747
70
0
0
VERTEX
8
Layer 1
10
67.128353
20
26.211981
70
0
0
VERTEX
8
Layer 1
10
65.484293
20
24.870938
70
0
0
VERTEX
8
Layer 1
10
64.886310
20
24.552306
70
0
0
VERTEX
8
Layer 1
10
64.378269
20
24.534256
70
0
0
VERTEX
8
Layer 1
10
63.960220
20
24.816839
70
0
0
VERTEX
8
Layer 1
10
63.632212
20
25.400104
70
0
0
VERTEX
8
Layer 1
10
63.819879
20
26.083563
70
0
0
VERTEX
8
Layer 1
10
63.838355
20
26.752388
70
0
0
VERTEX
8
Layer 1
10
63.687613
20
27.406528
70
0
0
VERTEX
8
Layer 1
10
63.367629
20
28.045934
70
0
0
VERTEX
8
Layer 1
10
64.349661
20
29.293311
70
0
0
VERTEX
8
Layer 1
10
65.484293
20
30.427181
70
0
0
VERTEX
8
Layer 1
10
66.352997
20
30.856351
70
0
0
VERTEX
8
Layer 1
10
66.995359
20
31.462428
70
0
0
VERTEX
8
Layer 1
10
67.411354
20
32.245412
70
0
0
VERTEX
8
Layer 1
10
67.600957
20
33.205303
70
0
0
VERTEX
8
Layer 1
10
67.282407
20
33.668707
70
0
0
VERTEX
8
Layer 1
10
67.154208
20
34.131839
70
0
0
VERTEX
8
Layer 1
10
67.216311
20
34.594723
70
0
0
VERTEX
8
Layer 1
10
67.468665
20
35.057384
70
0
0
VERTEX
8
Layer 1
10
68.262414
20
31.882387
70
0
0
VERTEX
8
Layer 1
10
69.915826
20
30.856831
70
0
0
VERTEX
8
Layer 1
10
71.701993
20
30.030306
70
0
0
VERTEX
8
Layer 1
10
72.077469
20
30.155322
70
0
0
VERTEX
8
Layer 1
10
72.363450
20
30.427181
70
0
0
VERTEX
8
Layer 1
10
71.485167
20
32.532567
70
0
0
VERTEX
8
Layer 1
10
70.379078
20
34.528217
70
0
0
VERTEX
8
Layer 1
10
70.246786
20
37.306339
70
0
0
VERTEX
8
Layer 1
10
70.908244
20
43.524040
70
0
0
VERTEX
8
Layer 1
10
73.024908
20
46.169869
70
0
0
VERTEX
8
Layer 1
10
73.157200
20
48.021951
70
0
0
VERTEX
8
Layer 1
10
73.961995
20
47.953523
70
0
0
VERTEX
8
Layer 1
10
74.612406
20
47.492784
70
0
0
VERTEX
8
Layer 1
10
74.919641
20
46.938144
70
0
0
VERTEX
8
Layer 1
10
74.999987
20
46.400520
70
0
0
VERTEX
8
Layer 1
10
74.853470
20
45.879862
70
0
0
VERTEX
8
Layer 1
10
74.480114
20
45.376120
70
0
0
VERTEX
8
Layer 1
10
74.744698
20
45.111537
70
0
0
VERTEX
8
Layer 1
10
75.574000
20
45.791317
70
0
0
VERTEX
8
Layer 1
10
76.596778
20
46.169869
70
0
0
VERTEX
8
Layer 1
10
77.646962
20
45.907039
70
0
0
VERTEX
8
Layer 1
10
78.570270
20
46.017867
70
0
0
VERTEX
8
Layer 1
10
79.366727
20
46.502351
70
0
0
VERTEX
8
Layer 1
10
80.036358
20
47.360493
70
0
0
VERTEX
8
Layer 1
10
80.653894
20
47.470361
70
0
0
VERTEX
8
Layer 1
10
81.226981
20
47.228201
70
0
0
VERTEX
8
Layer 1
10
81.359273
20
44.317788
70
0
0
VERTEX
8
Layer 1
10
81.046879
20
43.113134
70
0
0
VERTEX
8
Layer 1
10
80.501792
20
42.072140
70
0
0
VERTEX
8
Layer 1
10
79.723988
20
41.194857
70
0
0
VERTEX
8
Layer 1
10
78.713442
20
40.481335
70
0
0
VERTEX
8
Layer 1
10
73.818657
20
38.232379
70
0
0
VERTEX
8
Layer 1
10
73.585295
20
36.668099
70
0
0
VERTEX
8
Layer 1
10
73.818657
20
35.057384
70
0
0
VERTEX
8
Layer 1
10
74.206800
20
33.623741
70
0
0
VERTEX
8
Layer 1
10
75.009281
20
32.411553
70
0
0
VERTEX
8
Layer 1
10
76.067613
20
35.321967
70
0
0
VERTEX
8
Layer 1
10
76.464487
20
35.057384
70
0
0
VERTEX
8
Layer 1
10
76.479006
20
33.802499
70
0
0
VERTEX
8
Layer 1
10
76.332195
20
32.543845
70
0
0
VERTEX
8
Layer 1
10
76.444313
20
31.533601
70
0
0
VERTEX
8
Layer 1
10
76.729070
20
30.559472
70
0
0
VERTEX
8
Layer 1
10
77.401524
20
29.059390
70
0
0
VERTEX
8
Layer 1
10
78.353279
20
27.875840
70
0
0
VERTEX
8
Layer 1
10
79.584334
20
27.008847
70
0
0
VERTEX
8
Layer 1
10
81.094690
20
26.458436
70
0
0
VERTEX
8
Layer 1
10
82.853340
20
25.481529
70
0
0
VERTEX
8
Layer 1
10
84.497888
20
24.362145
70
0
0
VERTEX
8
Layer 1
10
86.028336
20
23.100282
70
0
0
VERTEX
8
Layer 1
10
87.444682
20
21.695942
70
0
0
VERTEX
8
Layer 1
10
89.022258
20
21.344146
70
0
0
VERTEX
8
Layer 1
10
90.619678
20
21.563650
70
0
0
VERTEX
8
Layer 1
10
91.148843
20
22.886566
70
0
0
VERTEX
8
Layer 1
10
89.825929
20
24.606355
70
0
0
VERTEX
8
Layer 1
10
90.222803
20
25.003230
70
0
0
VERTEX
8
Layer 1
10
91.678010
20
23.944897
70
0
0
VERTEX
8
Layer 1
10
92.052428
20
24.187024
70
0
0
VERTEX
8
Layer 1
10
92.207176
20
24.606355
70
0
0
VERTEX
8
Layer 1
10
91.148843
20
27.649059
70
0
0
VERTEX
8
Layer 1
10
91.678010
20
28.442808
70
0
0
VERTEX
8
Layer 1
10
92.163122
20
28.090020
70
0
0
VERTEX
8
Layer 1
10
92.736342
20
27.913642
70
0
0
VERTEX
8
Layer 1
10
94.161013
20
28.646128
70
0
0
VERTEX
8
Layer 1
10
94.583343
20
29.093825
70
0
0
VERTEX
8
Layer 1
10
94.812326
20
29.595828
70
0
0
VERTEX
8
Layer 1
10
94.847957
20
30.152141
70
0
0
VERTEX
8
Layer 1
10
94.690229
20
30.762767
70
0
0
VERTEX
8
Layer 1
10
93.794674
20
32.146970
70
0
0
VERTEX
8
Layer 1
10
94.437776
20
32.404509
70
0
0
VERTEX
8
Layer 1
10
95.117589
20
32.279262
70
0
0
VERTEX
8
Layer 1
10
96.059769
20
31.601797
70
0
0
VERTEX
8
Layer 1
10
97.101961
20
31.088639
70
0
0
VERTEX
8
Layer 1
10
97.673427
20
31.741034
70
0
0
VERTEX
8
Layer 1
10
98.028002
20
32.543845
70
0
0
VERTEX
8
Layer 1
10
98.825269
20
32.264590
70
0
0
VERTEX
8
Layer 1
10
99.245381
20
31.796696
70
0
0
VERTEX
8
Layer 1
10
99.288314
20
31.140137
70
0
0
VERTEX
8
Layer 1
10
98.954042
20
30.294889
70
0
0
VERTEX
8
Layer 1
10
97.668491
20
29.211570
70
0
0
VERTEX
8
Layer 1
10
96.792763
20
28.173194
70
0
0
VERTEX
8
Layer 1
10
96.326857
20
27.179758
70
0
0
VERTEX
8
Layer 1
10
96.270774
20
26.231258
70
0
0
VERTEX
8
Layer 1
10
96.624513
20
25.327692
70
0
0
VERTEX
8
Layer 1
10
97.388074
20
24.469057
70
0
0
VERTEX
8
Layer 1
10
98.561459
20
23.655349
70
0
0
VERTEX
8
Layer 1
10
100.144666
20
22.886566
70
0
0
VERTEX
8
Layer 1
10
100.380938
20
21.282597
70
0
0
VERTEX
8
Layer 1
10
100.012374
20
19.711569
70
0
0
VERTEX
8
Layer 1
10
98.989236
20
18.657529
70
0
0
VERTEX
8
Layer 1
10
98.229250
20
17.468303
70
0
0
VERTEX
8
Layer 1
10
97.732442
20
16.143941
70
0
0
VERTEX
8
Layer 1
10
97.498835
20
14.684493
70
0
0
VERTEX
8
Layer 1
10
98.489302
20
14.799785
70
0
0
VERTEX
8
Layer 1
10
99.218625
20
15.478241
70
0
0
VERTEX
8
Layer 1
10
99.877784
20
15.286113
70
0
0
VERTEX
8
Layer 1
10
100.494378
20
15.310231
70
0
0
VERTEX
8
Layer 1
10
101.068407
20
15.550646
70
0
0
VERTEX
8
Layer 1
10
101.599872
20
16.007407
70
0
0
VERTEX
8
Layer 1
10
101.434628
20
16.721443
70
0
0
VERTEX
8
Layer 1
10
101.092898
20
17.312199
70
0
0
VERTEX
8
Layer 1
10
100.574708
20
17.779725
70
0
0
VERTEX
8
Layer 1
10
99.880083
20
18.124071
70
0
0
VERTEX
8
Layer 1
10
101.065745
20
18.180196
70
0
0
VERTEX
8
Layer 1
10
102.261330
20
17.859488
70
0
0
VERTEX
8
Layer 1
10
103.837980
20
15.887452
70
0
0
VERTEX
8
Layer 1
10
105.171743
20
13.758452
70
0
0
VERTEX
8
Layer 1
10
104.885761
20
13.486593
70
0
0
VERTEX
8
Layer 1
10
104.510285
20
13.361577
70
0
0
VERTEX
8
Layer 1
10
103.717991
20
14.413030
70
0
0
VERTEX
8
Layer 1
10
102.658204
20
15.213658
70
0
0
VERTEX
8
Layer 1
10
100.929022
20
14.017247
70
0
0
VERTEX
8
Layer 1
10
99.086334
20
12.964703
70
0
0
VERTEX
8
Layer 1
10
98.548998
20
12.287503
70
0
0
VERTEX
8
Layer 1
10
98.160293
20
11.509496
70
0
0
VERTEX
8
Layer 1
10
98.027935
20
9.921999
70
0
0
VERTEX
8
Layer 1
10
98.160293
20
8.334501
70
0
0
VERTEX
8
Layer 1
10
98.840987
20
6.295653
70
0
0
VERTEX
8
Layer 1
10
99.178111
20
4.249041
70
0
0
VERTEX
8
Layer 1
10
99.171690
20
2.194641
70
0
0
VERTEX
8
Layer 1
10
98.821751
20
0.132427
70
0
0
VERTEX
8
Layer 1
10
98.821751
20
0.132427
70
0
0
SEQEND
8
Layer 1
0
POLYLINE
8
Layer 1
62
7
70
1
10
0.000000
20
0.000000
66
1
0
VERTEX
8
Layer 1
10
77.125945
20
44.053205
70
0
0
VERTEX
8
Layer 1
10
77.483524
20
43.726280
70
0
0
VERTEX
8
Layer 1
10
77.624783
20
43.352722
70
0
0
VERTEX
8
Layer 1
10
77.549695
20
42.932531
70
0
0
VERTEX
8
Layer 1
10
77.258236
20
42.465707
70
0
0
VERTEX
8
Layer 1
10
76.495790
20
41.745537
70
0
0
VERTEX
8
Layer 1
10
75.646330
20
41.196767
70
0
0
VERTEX
8
Layer 1
10
74.709855
20
40.819447
70
0
0
VERTEX
8
Layer 1
10
73.686366
20
40.613626
70
0
0
VERTEX
8
Layer 1
10
73.818657
20
41.407376
70
0
0
VERTEX
8
Layer 1
10
75.431820
20
42.805597
70
0
0
VERTEX
8
Layer 1
10
77.125945
20
44.053205
70
0
0
VERTEX
8
Layer 1
10
77.125945
20
44.053205
70
0
0
SEQEND
8
Layer 1
0
POLYLINE
8
Layer 1
62
7
70
1
10
0.000000
20
0.000000
66
1
0
VERTEX
8
Layer 1
10
37.967661
20
43.788623
70
0
0
VERTEX
8
Layer 1
10
37.896074
20
43.078374
70
0
0
VERTEX
8
Layer 1
10
37.673775
20
42.400620
70
0
0
VERTEX
8
Layer 1
10
36.777037
20
41.142792
70
0
0
VERTEX
8
Layer 1
10
36.778757
20
41.947059
70
0
0
VERTEX
8
Layer 1
10
37.041620
20
42.730290
70
0
0
VERTEX
8
Layer 1
10
37.967661
20
43.788623
70
0
0
VERTEX
8
Layer 1
10
37.967661
20
43.788623
70
0
0
SEQEND
8
Layer 1
0
POLYLINE
8
Layer 1
62
7
70
1
10
0.000000
20
0.000000
66
1
0
VERTEX
8
Layer 1
10
33.469749
20
41.936542
70
0
0
VERTEX
8
Layer 1
10
34.792665
20
41.936542
70
0
0
VERTEX
8
Layer 1
10
34.265417
20
40.088562
70
0
0
VERTEX
8
Layer 1
10
33.205167
20
38.496962
70
0
0
VERTEX
8
Layer 1
10
32.776972
20
38.929787
70
0
0
VERTEX
8
Layer 1
10
32.676001
20
39.555295
70
0
0
VERTEX
8
Layer 1
10
32.955599
20
40.790963
70
0
0
VERTEX
8
Layer 1
10
33.469749
20
41.936542
70
0
0
VERTEX
8
Layer 1
10
33.469749
20
41.936542
70
0
0
SEQEND
8
Layer 1
0
POLYLINE
8
Layer 1
62
7
70
1
10
0.000000
20
0.000000
66
1
0
VERTEX
8
Layer 1
10
-0.132292
20
39.290712
70
0
0
VERTEX
8
Layer 1
10
-0.132292
20
40.613626
70
0
0
VERTEX
8
Layer 1
10
1.058332
20
41.142792
70
0
0
VERTEX
8
Layer 1
10
1.257855
20
40.423553
70
0
0
VERTEX
8
Layer 1
10
1.125926
20
39.875142
70
0
0
VERTEX
8
Layer 1
10
0.662543
20
39.497537
70
0
0
VERTEX
8
Layer 1
10
-0.132292
20
39.290712
70
0
0
VERTEX
8
Layer 1
10
-0.132292
20
39.290712
70
0
0
SEQEND
8
Layer 1
0
POLYLINE
8
Layer 1
62
7
70
1
10
0.000000
20
0.000000
66
1
0
VERTEX
8
Layer 1
10
98.292585
20
40.878209
70
0
0
VERTEX
8
Layer 1
10
98.863588
20
40.621027
70
0
0
VERTEX
8
Layer 1
10
99.318505
20
40.248700
70
0
0
VERTEX
8
Layer 1
10
99.657337
20
39.761181
70
0
0
VERTEX
8
Layer 1
10
99.880083
20
39.158420
70
0
0
VERTEX
8
Layer 1
10
99.408728
20
36.735931
70
0
0
VERTEX
8
Layer 1
10
99.350917
20
34.263634
70
0
0
VERTEX
8
Layer 1
10
98.557168
20
34.263634
70
0
0
VERTEX
8
Layer 1
10
98.489633
20
37.061997
70
0
0
VERTEX
8
Layer 1
10
98.028002
20
39.819878
70
0
0
VERTEX
8
Layer 1
10
98.292585
20
40.878209
70
0
0
VERTEX
8
Layer 1
10
98.292585
20
40.878209
70
0
0
SEQEND
8
Layer 1
0
POLYLINE
8
Layer 1
62
7
70
1
10
0.000000
20
0.000000
66
1
0
VERTEX
8
Layer 1
10
49.344729
20
40.613626
70
0
0
VERTEX
8
Layer 1
10
49.696803
20
40.269586
70
0
0
VERTEX
8
Layer 1
10
49.836225
20
39.890323
70
0
0
VERTEX
8
Layer 1
10
49.762973
20
39.475837
70
0
0
VERTEX
8
Layer 1
10
49.477021
20
39.026128
70
0
0
VERTEX
8
Layer 1
10
49.200887
20
39.402911
70
0
0
VERTEX
8
Layer 1
10
49.086827
20
39.793088
70
0
0
VERTEX
8
Layer 1
10
49.134791
20
40.196660
70
0
0
VERTEX
8
Layer 1
10
49.344729
20
40.613626
70
0
0
VERTEX
8
Layer 1
10
49.344729
20
40.613626
70
0
0
SEQEND
8
Layer 1
0
POLYLINE
8
Layer 1
62
7
70
1
10
0.000000
20
0.000000
66
1
0
VERTEX
8
Layer 1
10
107.288407
20
40.349043
70
0
0
VERTEX
8
Layer 1
10
108.058508
20
40.225186
70
0
0
VERTEX
8
Layer 1
10
108.611322
20
39.687586
70
0
0
VERTEX
8
Layer 1
10
107.758604
20
38.995635
70
0
0
VERTEX
8
Layer 1
10
106.759241
20
38.496962
70
0
0
VERTEX
8
Layer 1
10
106.282594
20
38.734823
70
0
0
VERTEX
8
Layer 1
10
105.965491
20
39.158420
70
0
0
VERTEX
8
Layer 1
10
106.480800
20
39.939271
70
0
0
VERTEX
8
Layer 1
10
107.288407
20
40.349043
70
0
0
VERTEX
8
Layer 1
10
107.288407
20
40.349043
70
0
0
SEQEND
8
Layer 1
0
POLYLINE
8
Layer 1
62
7
70
1
10
0.000000
20
0.000000
66
1
0
VERTEX
8
Layer 1
10
62.044714
20
40.084461
70
0
0
VERTEX
8
Layer 1
10
62.491053
20
39.863546
70
0
0
VERTEX
8
Layer 1
10
62.683913
20
39.613536
70
0
0
VERTEX
8
Layer 1
10
62.623319
20
39.334405
70
0
0
VERTEX
8
Layer 1
10
62.309297
20
39.026128
70
0
0
VERTEX
8
Layer 1
10
61.910603
20
39.534359
70
0
0
VERTEX
8
Layer 1
10
62.044714
20
40.084461
70
0
0
VERTEX
8
Layer 1
10
62.044714
20
40.084461
70
0
0
SEQEND
8
Layer 1
0
POLYLINE
8
Layer 1
62
7
70
1
10
0.000000
20
0.000000
66
1
0
VERTEX
8
Layer 1
10
101.732163
20
38.761545
70
0
0
VERTEX
8
Layer 1
10
102.747501
20
37.002366
70
0
0
VERTEX
8
Layer 1
10
103.981119
20
35.321967
70
0
0
VERTEX
8
Layer 1
10
104.237235
20
34.039500
70
0
0
VERTEX
8
Layer 1
10
104.642577
20
32.808428
70
0
0
VERTEX
8
Layer 1
10
104.377994
20
32.676136
70
0
0
VERTEX
8
Layer 1
10
101.599872
20
37.703214
70
0
0
VERTEX
8
Layer 1
10
101.518083
20
38.251231
70
0
0
VERTEX
8
Layer 1
10
101.732163
20
38.761545
70
0
0
VERTEX
8
Layer 1
10
101.732163
20
38.761545
70
0
0
SEQEND
8
Layer 1
0
POLYLINE
8
Layer 1
62
7
70
1
10
0.000000
20
0.000000
66
1
0
VERTEX
8
Layer 1
10
49.080147
20
37.967797
70
0
0
VERTEX
8
Layer 1
10
49.313740
20
37.302668
70
0
0
VERTEX
8
Layer 1
10
48.947855
20
36.644881
70
0
0
VERTEX
8
Layer 1
10
48.904662
20
37.312292
70
0
0
VERTEX
8
Layer 1
10
49.080147
20
37.967797
70
0
0
VERTEX
8
Layer 1
10
49.080147
20
37.967797
70
0
0
SEQEND
8
Layer 1
0
POLYLINE
8
Layer 1
62
7
70
1
10
0.000000
20
0.000000
66
1
0
VERTEX
8
Layer 1
10
-0.132292
20
37.174048
70
0
0
VERTEX
8
Layer 1
10
0.447255
20
37.072245
70
0
0
VERTEX
8
Layer 1
10
0.816826
20
36.795793
70
0
0
VERTEX
8
Layer 1
10
0.976421
20
36.344667
70
0
0
VERTEX
8
Layer 1
10
0.926041
20
35.718841
70
0
0
VERTEX
8
Layer 1
10
0.494640
20
33.691242
70
0
0
VERTEX
8
Layer 1
10
0.264583
20
31.617805
70
0
0
VERTEX
8
Layer 1
10
-0.132292
20
31.088639
70
0
0
VERTEX
8
Layer 1
10
-0.132292
20
37.174048
70
0
0
VERTEX
8
Layer 1
10
-0.132292
20
37.174048
70
0
0
SEQEND
8
Layer 1
0
POLYLINE
8
Layer 1
62
7
70
1
10
0.000000
20
0.000000
66
1
0
VERTEX
8
Layer 1
10
91.413426
20
35.851133
70
0
0
VERTEX
8
Layer 1
10
91.776401
20
35.801986
70
0
0
VERTEX
8
Layer 1
10
92.074884
20
35.586550
70
0
0
VERTEX
8
Layer 1
10
92.627585
20
34.600027
70
0
0
VERTEX
8
Layer 1
10
92.723608
20
33.697890
70
0
0
VERTEX
8
Layer 1
10
92.362978
20
32.880188
70
0
0
VERTEX
8
Layer 1
10
91.545718
20
32.146970
70
0
0
VERTEX
8
Layer 1
10
91.281135
20
30.294889
70
0
0
VERTEX
8
Layer 1
10
90.783549
20
31.694815
70
0
0
VERTEX
8
Layer 1
10
90.639753
20
33.087497
70
0
0
VERTEX
8
Layer 1
10
90.849720
20
34.472936
70
0
0
VERTEX
8
Layer 1
10
91.413426
20
35.851133
70
0
0
VERTEX
8
Layer 1
10
91.413426
20
35.851133
70
0
0
SEQEND
8
Layer 1
0
POLYLINE
8
Layer 1
62
7
70
1
10
0.000000
20
0.000000
66
1
0
VERTEX
8
Layer 1
10
106.230075
20
34.792800
70
0
0
VERTEX
8
Layer 1
10
106.831137
20
34.457644
70
0
0
VERTEX
8
Layer 1
10
107.251993
20
33.993131
70
0
0
VERTEX
8
Layer 1
10
107.492619
20
33.399287
70
0
0
VERTEX
8
Layer 1
10
107.552990
20
32.676136
70
0
0
VERTEX
8
Layer 1
10
106.721542
20
32.909606
70
0
0
VERTEX
8
Layer 1
10
106.223890
20
33.340174
70
0
0
VERTEX
8
Layer 1
10
106.060059
20
33.967889
70
0
0
VERTEX
8
Layer 1
10
106.230075
20
34.792800
70
0
0
VERTEX
8
Layer 1
10
106.230075
20
34.792800
70
0
0
SEQEND
8
Layer 1
0
POLYLINE
8
Layer 1
62
7
70
1
10
0.000000
20
0.000000
66
1
0
VERTEX
8
Layer 1
10
61.250965
20
34.528217
70
0
0
VERTEX
8
Layer 1
10
61.597738
20
34.196083
70
0
0
VERTEX
8
Layer 1
10
61.757409
20
33.820789
70
0
0
VERTEX
8
Layer 1
10
61.730004
20
33.402334
70
0
0
VERTEX
8
Layer 1
10
61.515548
20
32.940720
70
0
0
VERTEX
8
Layer 1
10
60.786687
20
32.493673
70
0
0
VERTEX
8
Layer 1
10
59.928050
20
32.411553
70
0
0
VERTEX
8
Layer 1
10
60.060341
20
33.205303
70
0
0
VERTEX
8
Layer 1
10
61.250965
20
34.528217
70
0
0
VERTEX
8
Layer 1
10
61.250965
20
34.528217
70
0
0
SEQEND
8
Layer 1
0
POLYLINE
8
Layer 1
62
7
70
1
10
0.000000
20
0.000000
66
1
0
VERTEX
8
Layer 1
10
59.663467
20
31.882387
70
0
0
VERTEX
8
Layer 1
10
59.989863
20
31.688349
70
0
0
VERTEX
8
Layer 1
10
60.192633
20
31.353222
70
0
0
VERTEX
8
Layer 1
10
59.904303
20
30.612687
70
0
0
VERTEX
8
Layer 1
10
59.398884
20
30.030306
70
0
0
VERTEX
8
Layer 1
10
59.215122
20
30.533002
70
0
0
VERTEX
8
Layer 1
10
59.197999
20
31.009231
70
0
0
VERTEX
8
Layer 1
10
59.347463
20
31.459017
70
0
0
VERTEX
8
Layer 1
10
59.663467
20
31.882387
70
0
0
VERTEX
8
Layer 1
10
59.663467
20
31.882387
70
0
0
SEQEND
8
Layer 1
0
POLYLINE
8
Layer 1
62
7
70
1
10
0.000000
20
0.000000
66
1
0
VERTEX
8
Layer 1
10
82.417605
20
31.882387
70
0
0
VERTEX
8
Layer 1
10
83.424380
20
31.802769
70
0
0
VERTEX
8
Layer 1
10
84.068635
20
31.423435
70
0
0
VERTEX
8
Layer 1
10
84.350396
20
30.744412
70
0
0
VERTEX
8
Layer 1
10
84.269686
20
29.765723
70
0
0
VERTEX
8
Layer 1
10
85.063434
20
27.781351
70
0
0
VERTEX
8
Layer 1
10
84.673993
20
27.167241
70
0
0
VERTEX
8
Layer 1
10
84.191435
20
26.874327
70
0
0
VERTEX
8
Layer 1
10
83.615711
20
26.902634
70
0
0
VERTEX
8
Layer 1
10
82.946770
20
27.252185
70
0
0
VERTEX
8
Layer 1
10
81.845841
20
28.067431
70
0
0
VERTEX
8
Layer 1
10
80.565523
20
28.575100
70
0
0
VERTEX
8
Layer 1
10
79.837887
20
29.170379
70
0
0
VERTEX
8
Layer 1
10
79.242609
20
29.898015
70
0
0
VERTEX
8
Layer 1
10
82.417605
20
31.882387
70
0
0
VERTEX
8
Layer 1
10
82.417605
20
31.882387
70
0
0
SEQEND
8
Layer 1
0
POLYLINE
8
Layer 1
62
7
70
1
10
0.000000
20
0.000000
66
1
0
VERTEX
8
Layer 1
10
89.032179
20
31.353222
70
0
0
VERTEX
8
Layer 1
10
89.579660
20
31.317949
70
0
0
VERTEX
8
Layer 1
10
89.938575
20
31.107755
70
0
0
VERTEX
8
Layer 1
10
90.108875
20
30.722638
70
0
0
VERTEX
8
Layer 1
10
90.090512
20
30.162598
70
0
0
VERTEX
8
Layer 1
10
89.883145
20
29.424411
70
0
0
VERTEX
8
Layer 1
10
89.296762
20
28.971975
70
0
0
VERTEX
8
Layer 1
10
88.868568
20
29.404799
70
0
0
VERTEX
8
Layer 1
10
88.767597
20
30.030306
70
0
0
VERTEX
8
Layer 1
10
89.032179
20
31.353222
70
0
0
VERTEX
8
Layer 1
10
89.032179
20
31.353222
70
0
0
SEQEND
8
Layer 1
0
POLYLINE
8
Layer 1
62
7
70
1
10
0.000000
20
0.000000
66
1
0
VERTEX
8
Layer 1
10
141.419613
20
30.294889
70
0
0
VERTEX
8
Layer 1
10
141.795797
20
30.026346
70
0
0
VERTEX
8
Layer 1
10
141.943256
20
29.716379
70
0
0
VERTEX
8
Layer 1
10
141.861967
20
29.364938
70
0
0
VERTEX
8
Layer 1
10
141.551905
20
28.971975
70
0
0
VERTEX
8
Layer 1
10
141.155031
20
29.633432
70
0
0
VERTEX
8
Layer 1
10
141.370467
20
29.931915
70
0
0
VERTEX
8
Layer 1
10
141.419613
20
30.294889
70
0
0
VERTEX
8
Layer 1
10
141.419613
20
30.294889
70
0
0
SEQEND
8
Layer 1
0
POLYLINE
8
Layer 1
62
7
70
1
10
0.000000
20
0.000000
66
1
0
VERTEX
8
Layer 1
10
1.455207
20
30.030306
70
0
0
VERTEX
8
Layer 1
10
1.905397
20
29.793575
70
0
0
VERTEX
8
Layer 1
10
2.121606
20
29.494162
70
0
0
VERTEX
8
Layer 1
10
2.103834
20
29.132093
70
0
0
VERTEX
8
Layer 1
10
1.852081
20
28.707391
70
0
0
VERTEX
8
Layer 1
10
1.501010
20
29.316858
70
0
0
VERTEX
8
Layer 1
10
1.455207
20
30.030306
70
0
0
VERTEX
8
Layer 1
10
1.455207
20
30.030306
70
0
0
SEQEND
8
Layer 1
0
POLYLINE
8
Layer 1
62
7
70
1
10
0.000000
20
0.000000
66
1
0
VERTEX
8
Layer 1
10
104.907160
20
29.765723
70
0
0
VERTEX
8
Layer 1
10
105.579862
20
29.673781
70
0
0
VERTEX
8
Layer 1
10
106.097783
20
29.236558
70
0
0
VERTEX
8
Layer 1
10
106.445445
20
28.208586
70
0
0
VERTEX
8
Layer 1
10
106.494658
20
27.119894
70
0
0
VERTEX
8
Layer 1
10
105.741634
20
27.256472
70
0
0
VERTEX
8
Layer 1
10
105.181962
20
27.610662
70
0
0
VERTEX
8
Layer 1
10
104.815618
20
28.182488
70
0
0
VERTEX
8
Layer 1
10
104.642577
20
28.971975
70
0
0
VERTEX
8
Layer 1
10
104.907160
20
29.765723
70
0
0
VERTEX
8
Layer 1
10
104.907160
20
29.765723
70
0
0
SEQEND
8
Layer 1
0
POLYLINE
8
Layer 1
62
7
70
1
10
0.000000
20
0.000000
66
1
0
VERTEX
8
Layer 1
10
153.325849
20
27.649059
70
0
0
VERTEX
8
Layer 1
10
154.119597
20
27.649059
70
0
0
VERTEX
8
Layer 1
10
154.070282
20
26.829270
70
0
0
VERTEX
8
Layer 1
10
153.877471
20
26.467796
70
0
0
VERTEX
8
Layer 1
10
153.541141
20
26.564662
70
0
0
VERTEX
8
Layer 1
10
153.061266
20
27.119894
70
0
0
VERTEX
8
Layer 1
10
153.325849
20
27.649059
70
0
0
VERTEX
8
Layer 1
10
153.325849
20
27.649059
70
0
0
SEQEND
8
Layer 1
0
POLYLINE
8
Layer 1
62
7
70
1
10
0.000000
20
0.000000
66
1
0
VERTEX
8
Layer 1
10
31.353086
20
27.384477
70
0
0
VERTEX
8
Layer 1
10
31.882252
20
26.723019
70
0
0
VERTEX
8
Layer 1
10
31.440166
20
26.851044
70
0
0
VERTEX
8
Layer 1
10
31.353086
20
27.384477
70
0
0
VERTEX
8
Layer 1
10
31.353086
20
27.384477
70
0
0
SEQEND
8
Layer 1
0
POLYLINE
8
Layer 1
62
7
70
1
10
0.000000
20
0.000000
66
1
0
VERTEX
8
Layer 1
10
115.225897
20
27.384477
70
0
0
VERTEX
8
Layer 1
10
116.813395
20
27.252185
70
0
0
VERTEX
8
Layer 1
10
119.179395
20
25.804850
70
0
0
VERTEX
8
Layer 1
10
121.443597
20
24.209480
70
0
0
VERTEX
8
Layer 1
10
122.255644
20
24.232937
70
0
0
VERTEX
8
Layer 1
10
122.967330
20
24.020304
70
0
0
VERTEX
8
Layer 1
10
123.578608
20
23.571530
70
0
0
VERTEX
8
Layer 1
10
124.089427
20
22.886566
70
0
0
VERTEX
8
Layer 1
10
124.211301
20
22.335472
70
0
0
VERTEX
8
Layer 1
10
123.957136
20
21.828233
70
0
0
VERTEX
8
Layer 1
10
121.443597
20
23.944897
70
0
0
VERTEX
8
Layer 1
10
120.510595
20
23.803168
70
0
0
VERTEX
8
Layer 1
10
119.604282
20
23.866151
70
0
0
VERTEX
8
Layer 1
10
118.724659
20
24.133872
70
0
0
VERTEX
8
Layer 1
10
117.871727
20
24.606355
70
0
0
VERTEX
8
Layer 1
10
116.688478
20
25.703713
70
0
0
VERTEX
8
Layer 1
10
115.358188
20
26.590727
70
0
0
VERTEX
8
Layer 1
10
115.225897
20
27.384477
70
0
0
VERTEX
8
Layer 1
10
115.225897
20
27.384477
70
0
0
SEQEND
8
Layer 1
0
POLYLINE
8
Layer 1
62
7
70
1
10
0.000000
20
0.000000
66
1
0
VERTEX
8
Layer 1
10
3.836454
20
26.590727
70
0
0
VERTEX
8
Layer 1
10
4.267135
20
26.430820
70
0
0
VERTEX
8
Layer 1
10
4.101037
20
26.061561
70
0
0
VERTEX
8
Layer 1
10
3.876630
20
26.284572
70
0
0
VERTEX
8
Layer 1
10
3.836454
20
26.590727
70
0
0
VERTEX
8
Layer 1
10
3.836454
20
26.590727
70
0
0
SEQEND
8
Layer 1
0
POLYLINE
8
Layer 1
62
7
70
1
10
0.000000
20
0.000000
66
1
0
VERTEX
8
Layer 1
10
75.009281
20
26.590727
70
0
0
VERTEX
8
Layer 1
10
76.190743
20
26.075353
70
0
0
VERTEX
8
Layer 1
10
77.125945
20
25.135521
70
0
0
VERTEX
8
Layer 1
10
78.027300
20
25.155567
70
0
0
VERTEX
8
Layer 1
10
78.702562
20
24.875601
70
0
0
VERTEX
8
Layer 1
10
79.151753
20
24.295648
70
0
0
VERTEX
8
Layer 1
10
79.374900
20
23.415731
70
0
0
VERTEX
8
Layer 1
10
77.655111
20
22.886566
70
0
0
VERTEX
8
Layer 1
10
75.273864
20
23.812606
70
0
0
VERTEX
8
Layer 1
10
74.936318
20
24.473055
70
0
0
VERTEX
8
Layer 1
10
74.779722
20
25.156225
70
0
0
VERTEX
8
Layer 1
10
74.804051
20
25.862116
70
0
0
VERTEX
8
Layer 1
10
75.009281
20
26.590727
70
0
0
VERTEX
8
Layer 1
10
75.009281
20
26.590727
70
0
0
SEQEND
8
Layer 1
0
POLYLINE
8
Layer 1
62
7
70
1
10
0.000000
20
0.000000
66
1
0
VERTEX
8
Layer 1
10
136.921703
20
26.590727
70
0
0
VERTEX
8
Layer 1
10
137.298035
20
26.474592
70
0
0
VERTEX
8
Layer 1
10
137.445544
20
26.303589
70
0
0
VERTEX
8
Layer 1
10
137.053994
20
25.796978
70
0
0
VERTEX
8
Layer 1
10
136.921703
20
26.590727
70
0
0
VERTEX
8
Layer 1
10
136.921703
20
26.590727
70
0
0
SEQEND
8
Layer 1
0
POLYLINE
8
Layer 1
62
7
70
1
10
0.000000
20
0.000000
66
1
0
VERTEX
8
Layer 1
10
13.626024
20
26.061561
70
0
0
VERTEX
8
Layer 1
10
14.380072
20
26.130225
70
0
0
VERTEX
8
Layer 1
10
14.940099
20
25.932610
70
0
0
VERTEX
8
Layer 1
10
15.306110
20
25.468743
70
0
0
VERTEX
8
Layer 1
10
15.478106
20
24.738647
70
0
0
VERTEX
8
Layer 1
10
14.819935
20
23.681042
70
0
0
VERTEX
8
Layer 1
10
14.419774
20
22.489691
70
0
0
VERTEX
8
Layer 1
10
12.303110
20
21.828233
70
0
0
VERTEX
8
Layer 1
10
11.188937
20
22.545187
70
0
0
VERTEX
8
Layer 1
10
10.186446
20
23.415731
70
0
0
VERTEX
8
Layer 1
10
10.847903
20
23.680314
70
0
0
VERTEX
8
Layer 1
10
13.361442
20
23.151149
70
0
0
VERTEX
8
Layer 1
10
13.233671
20
23.931635
70
0
0
VERTEX
8
Layer 1
10
12.832276
20
24.606355
70
0
0
VERTEX
8
Layer 1
10
13.154577
20
25.383865
70
0
0
VERTEX
8
Layer 1
10
13.626024
20
26.061561
70
0
0
VERTEX
8
Layer 1
10
13.626024
20
26.061561
70
0
0
SEQEND
8
Layer 1
0
POLYLINE
8
Layer 1
62
7
70
1
10
0.000000
20
0.000000
66
1
0
VERTEX
8
Layer 1
10
126.867549
20
25.796978
70
0
0
VERTEX
8
Layer 1
10
127.726629
20
25.501712
70
0
0
VERTEX
8
Layer 1
10
128.101200
20
25.094577
70
0
0
VERTEX
8
Layer 1
10
127.991237
20
24.575622
70
0
0
VERTEX
8
Layer 1
10
127.396715
20
23.944897
70
0
0
VERTEX
8
Layer 1
10
126.764448
20
24.307136
70
0
0
VERTEX
8
Layer 1
10
126.465482
20
24.736596
70
0
0
VERTEX
8
Layer 1
10
126.499840
20
25.233227
70
0
0
VERTEX
8
Layer 1
10
126.867549
20
25.796978
70
0
0
VERTEX
8
Layer 1
10
126.867549
20
25.796978
70
0
0
SEQEND
8
Layer 1
0
POLYLINE
8
Layer 1
62
7
70
1
10
0.000000
20
0.000000
66
1
0
VERTEX
8
Layer 1
10
48.286397
20
25.003230
70
0
0
VERTEX
8
Layer 1
10
48.780275
20
24.970851
70
0
0
VERTEX
8
Layer 1
10
49.212438
20
24.738647
70
0
0
VERTEX
8
Layer 1
10
50.403061
20
22.621983
70
0
0
VERTEX
8
Layer 1
10
50.071283
20
22.274320
70
0
0
VERTEX
8
Layer 1
10
49.718122
20
22.158433
70
0
0
VERTEX
8
Layer 1
10
49.343630
20
22.274320
70
0
0
VERTEX
8
Layer 1
10
48.947855
20
22.621983
70
0
0
VERTEX
8
Layer 1
10
48.403905
20
23.754265
70
0
0
VERTEX
8
Layer 1
10
48.286397
20
25.003230
70
0
0
VERTEX
8
Layer 1
10
48.286397
20
25.003230
70
0
0
SEQEND
8
Layer 1
0
POLYLINE
8
Layer 1
62
7
70
1
10
0.000000
20
0.000000
66
1
0
VERTEX
8
Layer 1
10
132.159209
20
0.132427
70
0
0
VERTEX
8
Layer 1
10
123.692553
20
0.132427
70
0
0
VERTEX
8
Layer 1
10
123.800072
20
1.811174
70
0
0
VERTEX
8
Layer 1
10
124.221719
20
3.439715
70
0
0
VERTEX
8
Layer 1
10
124.111718
20
4.001061
70
0
0
VERTEX
8
Layer 1
10
123.692553
20
4.365755
70
0
0
VERTEX
8
Layer 1
10
122.237346
20
2.513674
70
0
0
VERTEX
8
Layer 1
10
122.105055
20
0.132427
70
0
0
VERTEX
8
Layer 1
10
113.109233
20
0.132427
70
0
0
VERTEX
8
Layer 1
10
112.497616
20
1.143333
70
0
0
VERTEX
8
Layer 1
10
112.050901
20
2.249091
70
0
0
VERTEX
8
Layer 1
10
112.798182
20
4.007444
70
0
0
VERTEX
8
Layer 1
10
113.373816
20
5.820962
70
0
0
VERTEX
8
Layer 1
10
113.241524
20
6.747002
70
0
0
VERTEX
8
Layer 1
10
112.712325
20
7.143844
70
0
0
VERTEX
8
Layer 1
10
112.315483
20
7.673043
70
0
0
VERTEX
8
Layer 1
10
112.418568
20
8.564870
70
0
0
VERTEX
8
Layer 1
10
112.673431
20
9.391311
70
0
0
VERTEX
8
Layer 1
10
113.080050
20
10.152368
70
0
0
VERTEX
8
Layer 1
10
113.638399
20
10.848039
70
0
0
VERTEX
8
Layer 1
10
114.783249
20
11.466006
70
0
0
VERTEX
8
Layer 1
10
115.755063
20
12.303246
70
0
0
VERTEX
8
Layer 1
10
115.490480
20
12.700120
70
0
0
VERTEX
8
Layer 1
10
112.844650
20
13.493869
70
0
0
VERTEX
8
Layer 1
10
112.447775
20
14.155327
70
0
0
VERTEX
8
Layer 1
10
112.101072
20
17.056115
70
0
0
VERTEX
8
Layer 1
10
112.183192
20
19.976152
70
0
0
VERTEX
8
Layer 1
10
112.846965
20
20.283730
70
0
0
VERTEX
8
Layer 1
10
113.373816
20
20.769902
70
0
0
VERTEX
8
Layer 1
10
112.745022
20
21.578281
70
0
0
VERTEX
8
Layer 1
10
112.381067
20
22.465118
70
0
0
VERTEX
8
Layer 1
10
112.281977
20
23.430387
70
0
0
VERTEX
8
Layer 1
10
112.447775
20
24.474063
70
0
0
VERTEX
8
Layer 1
10
112.844650
20
24.738647
70
0
0
VERTEX
8
Layer 1
10
113.788219
20
24.174456
70
0
0
VERTEX
8
Layer 1
10
114.432147
20
23.283440
70
0
0
VERTEX
8
Layer 1
10
116.019646
20
23.018857
70
0
0
VERTEX
8
Layer 1
10
116.465542
20
22.672489
70
0
0
VERTEX
8
Layer 1
10
116.702336
20
22.270385
70
0
0
VERTEX
8
Layer 1
10
116.730076
20
21.812569
70
0
0
VERTEX
8
Layer 1
10
116.548811
20
21.299067
70
0
0
VERTEX
8
Layer 1
10
115.808277
20
21.010738
70
0
0
VERTEX
8
Layer 1
10
115.225897
20
20.505319
70
0
0
VERTEX
8
Layer 1
10
116.377196
20
18.957243
70
0
0
VERTEX
8
Layer 1
10
117.739435
20
17.594905
70
0
0
VERTEX
8
Layer 1
10
119.326933
20
20.505319
70
0
0
VERTEX
8
Layer 1
10
119.723808
20
20.769835
70
0
0
VERTEX
8
Layer 1
10
120.120682
20
20.505319
70
0
0
VERTEX
8
Layer 1
10
120.385265
20
18.388655
70
0
0
VERTEX
8
Layer 1
10
123.031095
20
12.567829
70
0
0
VERTEX
8
Layer 1
10
124.486302
20
11.112622
70
0
0
VERTEX
8
Layer 1
10
125.348776
20
11.062583
70
0
0
VERTEX
8
Layer 1
10
126.206091
20
11.244913
70
0
0
VERTEX
8
Layer 1
10
126.810167
20
11.124694
70
0
0
VERTEX
8
Layer 1
10
127.264423
20
10.715747
70
0
0
VERTEX
8
Layer 1
10
126.922681
20
7.965606
70
0
0
VERTEX
8
Layer 1
10
126.999840
20
5.159504
70
0
0
VERTEX
8
Layer 1
10
127.247887
20
3.918478
70
0
0
VERTEX
8
Layer 1
10
127.793589
20
2.778257
70
0
0
VERTEX
8
Layer 1
10
128.154848
20
2.083975
70
0
0
VERTEX
8
Layer 1
10
128.650077
20
1.654110
70
0
0
VERTEX
8
Layer 1
10
129.279301
20
1.488663
70
0
0
VERTEX
8
Layer 1
10
130.042545
20
1.587634
70
0
0
VERTEX
8
Layer 1
10
131.365460
20
4.101173
70
0
0
VERTEX
8
Layer 1
10
132.035979
20
2.184467
70
0
0
VERTEX
8
Layer 1
10
132.159209
20
0.132427
70
0
0
VERTEX
8
Layer 1
10
132.159209
20
0.132427
70
0
0
SEQEND
8
Layer 1
0
POLYLINE
8
Layer 1
62
7
70
1
10
0.000000
20
0.000000
66
1
0
VERTEX
8
Layer 1
10
139.302950
20
24.738647
70
0
0
VERTEX
8
Layer 1
10
140.361282
20
24.738647
70
0
0
VERTEX
8
Layer 1
10
140.430338
20
23.948221
70
0
0
VERTEX
8
Layer 1
10
140.254919
20
23.287872
70
0
0
VERTEX
8
Layer 1
10
139.835026
20
22.757598
70
0
0
VERTEX
8
Layer 1
10
139.170658
20
22.357399
70
0
0
VERTEX
8
Layer 1
10
139.057714
20
23.566279
70
0
0
VERTEX
8
Layer 1
10
139.302950
20
24.738647
70
0
0
VERTEX
8
Layer 1
10
139.302950
20
24.738647
70
0
0
SEQEND
8
Layer 1
0
POLYLINE
8
Layer 1
62
7
70
1
10
0.000000
20
0.000000
66
1
0
VERTEX
8
Layer 1
10
-0.132292
20
23.944897
70
0
0
VERTEX
8
Layer 1
10
0.608625
20
23.949958
70
0
0
VERTEX
8
Layer 1
10
1.252471
20
23.753207
70
0
0
VERTEX
8
Layer 1
10
1.799248
20
23.354646
70
0
0
VERTEX
8
Layer 1
10
2.248956
20
22.754274
70
0
0
VERTEX
8
Layer 1
10
2.712945
20
22.717232
70
0
0
VERTEX
8
Layer 1
10
3.174996
20
22.886566
70
0
0
VERTEX
8
Layer 1
10
3.700715
20
22.633756
70
0
0
VERTEX
8
Layer 1
10
3.986201
20
22.284904
70
0
0
VERTEX
8
Layer 1
10
4.031449
20
21.840007
70
0
0
VERTEX
8
Layer 1
10
3.836454
20
21.299067
70
0
0
VERTEX
8
Layer 1
10
3.095919
20
21.010738
70
0
0
VERTEX
8
Layer 1
10
2.513539
20
20.505319
70
0
0
VERTEX
8
Layer 1
10
3.943530
20
18.702880
70
0
0
VERTEX
8
Layer 1
10
5.556243
20
17.065739
70
0
0
VERTEX
8
Layer 1
10
5.582245
20
14.678738
70
0
0
VERTEX
8
Layer 1
10
5.291660
20
12.303246
70
0
0
VERTEX
8
Layer 1
10
4.726884
20
11.987739
70
0
0
VERTEX
8
Layer 1
10
4.296087
20
11.573856
70
0
0
VERTEX
8
Layer 1
10
3.999275
20
11.061648
70
0
0
VERTEX
8
Layer 1
10
3.836454
20
10.451165
70
0
0
VERTEX
8
Layer 1
10
5.423952
20
7.673043
70
0
0
VERTEX
8
Layer 1
10
6.092050
20
7.631173
70
0
0
VERTEX
8
Layer 1
10
6.614575
20
8.069918
70
0
0
VERTEX
8
Layer 1
10
7.598682
20
11.020878
70
0
0
VERTEX
8
Layer 1
10
8.334364
20
14.023035
70
0
0
VERTEX
8
Layer 1
10
8.598948
20
14.155393
70
0
0
VERTEX
8
Layer 1
10
8.863530
20
14.023035
70
0
0
VERTEX
8
Layer 1
10
10.256834
20
12.365687
70
0
0
VERTEX
8
Layer 1
10
11.773944
20
10.848039
70
0
0
VERTEX
8
Layer 1
10
12.584007
20
10.776006
70
0
0
VERTEX
8
Layer 1
10
13.229150
20
11.244913
70
0
0
VERTEX
8
Layer 1
10
13.302201
20
12.161743
70
0
0
VERTEX
8
Layer 1
10
13.547033
20
12.996519
70
0
0
VERTEX
8
Layer 1
10
13.963653
20
13.749241
70
0
0
VERTEX
8
Layer 1
10
14.552065
20
14.419910
70
0
0
VERTEX
8
Layer 1
10
15.475162
20
13.760966
70
0
0
VERTEX
8
Layer 1
10
16.271854
20
12.964703
70
0
0
VERTEX
8
Layer 1
10
15.610397
20
11.244913
70
0
0
VERTEX
8
Layer 1
10
14.235518
20
8.657523
70
0
0
VERTEX
8
Layer 1
10
13.096858
20
5.953254
70
0
0
VERTEX
8
Layer 1
10
13.857597
20
5.237635
70
0
0
VERTEX
8
Layer 1
10
14.353714
20
4.425849
70
0
0
VERTEX
8
Layer 1
10
14.585205
20
3.517870
70
0
0
VERTEX
8
Layer 1
10
14.552065
20
2.513674
70
0
0
VERTEX
8
Layer 1
10
15.135441
20
2.047397
70
0
0
VERTEX
8
Layer 1
10
15.572433
20
1.495096
70
0
0
VERTEX
8
Layer 1
10
15.863042
20
0.856773
70
0
0
VERTEX
8
Layer 1
10
16.007272
20
0.132427
70
0
0
VERTEX
8
Layer 1
10
10.980194
20
0.132427
70
0
0
VERTEX
8
Layer 1
10
11.040593
20
0.914965
70
0
0
VERTEX
8
Layer 1
10
11.303264
20
1.572685
70
0
0
VERTEX
8
Layer 1
10
11.768201
20
2.105588
70
0
0
VERTEX
8
Layer 1
10
12.435401
20
2.513674
70
0
0
VERTEX
8
Layer 1
10
12.285640
20
3.197051
70
0
0
VERTEX
8
Layer 1
10
11.971137
20
3.777587
70
0
0
VERTEX
8
Layer 1
10
11.491891
20
4.255333
70
0
0
VERTEX
8
Layer 1
10
10.847903
20
4.630338
70
0
0
VERTEX
8
Layer 1
10
10.001462
20
4.408056
70
0
0
VERTEX
8
Layer 1
10
9.128114
20
4.365755
70
0
0
VERTEX
8
Layer 1
10
9.443946
20
2.229545
70
0
0
VERTEX
8
Layer 1
10
9.921862
20
0.132427
70
0
0
VERTEX
8
Layer 1
10
-0.132292
20
0.132427
70
0
0
VERTEX
8
Layer 1
10
-0.132292
20
4.365755
70
0
0
VERTEX
8
Layer 1
10
0.596568
20
5.004083
70
0
0
VERTEX
8
Layer 1
10
0.839521
20
5.657814
70
0
0
VERTEX
8
Layer 1
10
0.596568
20
6.326973
70
0
0
VERTEX
8
Layer 1
10
-0.132292
20
7.011585
70
0
0
VERTEX
8
Layer 1
10
-0.132292
20
10.186582
70
0
0
VERTEX
8
Layer 1
10
1.576926
20
11.064633
70
0
0
VERTEX
8
Layer 1
10
3.042705
20
12.303246
70
0
0
VERTEX
8
Layer 1
10
1.556235
20
13.073215
70
0
0
VERTEX
8
Layer 1
10
-0.132292
20
13.361577
70
0
0
VERTEX
8
Layer 1
10
-0.132292
20
19.711569
70
0
0
VERTEX
8
Layer 1
10
0.661458
20
19.711569
70
0
0
VERTEX
8
Layer 1
10
0.689376
20
20.294074
70
0
0
VERTEX
8
Layer 1
10
0.566390
20
20.796955
70
0
0
VERTEX
8
Layer 1
10
0.292501
20
21.220164
70
0
0
VERTEX
8
Layer 1
10
-0.132292
20
21.563650
70
0
0
VERTEX
8
Layer 1
10
-0.132292
20
23.944897
70
0
0
VERTEX
8
Layer 1
10
-0.132292
20
23.944897
70
0
0
SEQEND
8
Layer 1
0
POLYLINE
8
Layer 1
62
7
70
1
10
0.000000
20
0.000000
66
1
0
VERTEX
8
Layer 1
10
141.948780
20
23.944897
70
0
0
VERTEX
8
Layer 1
10
142.278946
20
23.851632
70
0
0
VERTEX
8
Layer 1
10
142.477946
20
23.548023
70
0
0
VERTEX
8
Layer 1
10
142.232677
20
22.815955
70
0
0
VERTEX
8
Layer 1
10
142.477946
20
22.092816
70
0
0
VERTEX
8
Layer 1
10
142.147192
20
21.497505
70
0
0
VERTEX
8
Layer 1
10
141.816488
20
21.299068
70
0
0
VERTEX
8
Layer 1
10
141.485784
20
21.497505
70
0
0
VERTEX
8
Layer 1
10
141.155031
20
22.092816
70
0
0
VERTEX
8
Layer 1
10
141.948780
20
23.944897
70
0
0
VERTEX
8
Layer 1
10
141.948780
20
23.944897
70
0
0
SEQEND
8
Layer 1
0
POLYLINE
8
Layer 1
62
7
70
1
10
0.000000
20
0.000000
66
1
0
VERTEX
8
Layer 1
10
95.382171
20
0.132427
70
0
0
VERTEX
8
Layer 1
10
86.386350
20
0.132427
70
0
0
VERTEX
8
Layer 1
10
86.586143
20
1.979548
70
0
0
VERTEX
8
Layer 1
10
86.518641
20
3.836590
70
0
0
VERTEX
8
Layer 1
10
86.801712
20
4.204641
70
0
0
VERTEX
8
Layer 1
10
87.094506
20
4.327325
70
0
0
VERTEX
8
Layer 1
10
87.397023
20
4.204641
70
0
0
VERTEX
8
Layer 1
10
87.709265
20
3.836590
70
0
0
VERTEX
8
Layer 1
10
87.644905
20
4.967219
70
0
0
VERTEX
8
Layer 1
10
87.180098
20
6.085545
70
0
0
VERTEX
8
Layer 1
10
84.666560
20
6.747002
70
0
0
VERTEX
8
Layer 1
10
84.005103
20
5.953254
70
0
0
VERTEX
8
Layer 1
10
85.063434
20
1.852217
70
0
0
VERTEX
8
Layer 1
10
84.798851
20
0.132427
70
0
0
VERTEX
8
Layer 1
10
76.596778
20
0.132427
70
0
0
VERTEX
8
Layer 1
10
76.596778
20
4.101173
70
0
0
VERTEX
8
Layer 1
10
74.744698
20
3.836590
70
0
0
VERTEX
8
Layer 1
10
75.317652
20
6.042220
70
0
0
VERTEX
8
Layer 1
10
76.067613
20
8.202209
70
0
0
VERTEX
8
Layer 1
10
75.742572
20
9.289414
70
0
0
VERTEX
8
Layer 1
10
75.273864
20
10.318873
70
0
0
VERTEX
8
Layer 1
10
75.406155
20
11.244913
70
0
0
VERTEX
8
Layer 1
10
76.418226
20
11.330634
70
0
0
VERTEX
8
Layer 1
10
77.196588
20
11.712002
70
0
0
VERTEX
8
Layer 1
10
77.741191
20
12.388991
70
0
0
VERTEX
8
Layer 1
10
78.051985
20
13.361577
70
0
0
VERTEX
8
Layer 1
10
78.484148
20
13.593782
70
0
0
VERTEX
8
Layer 1
10
78.978026
20
13.626160
70
0
0
VERTEX
8
Layer 1
10
78.214241
20
16.221587
70
0
0
VERTEX
8
Layer 1
10
77.787402
20
18.917821
70
0
0
VERTEX
8
Layer 1
10
76.596778
20
19.711569
70
0
0
VERTEX
8
Layer 1
10
76.459460
20
21.047085
70
0
0
VERTEX
8
Layer 1
10
76.596778
20
22.357399
70
0
0
VERTEX
8
Layer 1
10
76.983930
20
22.554315
70
0
0
VERTEX
8
Layer 1
10
77.390528
20
22.489691
70
0
0
VERTEX
8
Layer 1
10
78.722637
20
21.157020
70
0
0
VERTEX
8
Layer 1
10
80.168649
20
19.976152
70
0
0
VERTEX
8
Layer 1
10
80.697815
20
20.240735
70
0
0
VERTEX
8
Layer 1
10
81.888439
20
22.886566
70
0
0
VERTEX
8
Layer 1
10
82.207360
20
23.126873
70
0
0
VERTEX
8
Layer 1
10
82.549896
20
22.886566
70
0
0
VERTEX
8
Layer 1
10
82.919155
20
22.045919
70
0
0
VERTEX
8
Layer 1
10
82.682187
20
21.166776
70
0
0
VERTEX
8
Layer 1
10
83.670537
20
18.793037
70
0
0
VERTEX
8
Layer 1
10
84.931143
20
16.536574
70
0
0
VERTEX
8
Layer 1
10
85.195726
20
14.684493
70
0
0
VERTEX
8
Layer 1
10
86.110886
20
14.027632
70
0
0
VERTEX
8
Layer 1
10
86.915515
20
13.229286
70
0
0
VERTEX
8
Layer 1
10
87.444682
20
13.096928
70
0
0
VERTEX
8
Layer 1
10
87.973848
20
13.229286
70
0
0
VERTEX
8
Layer 1
10
89.296762
20
15.742824
70
0
0
VERTEX
8
Layer 1
10
90.121269
20
14.361536
70
0
0
VERTEX
8
Layer 1
10
90.487386
20
12.832411
70
0
0
VERTEX
8
Layer 1
10
89.429054
20
10.980330
70
0
0
VERTEX
8
Layer 1
10
89.291384
20
9.081133
70
0
0
VERTEX
8
Layer 1
10
89.399851
20
7.213363
70
0
0
VERTEX
8
Layer 1
10
89.754429
20
5.376996
70
0
0
VERTEX
8
Layer 1
10
90.355095
20
3.572007
70
0
0
VERTEX
8
Layer 1
10
90.140187
20
2.637731
70
0
0
VERTEX
8
Layer 1
10
90.355095
20
1.719926
70
0
0
VERTEX
8
Layer 1
10
91.308685
20
2.029930
70
0
0
VERTEX
8
Layer 1
10
92.155714
20
2.486059
70
0
0
VERTEX
8
Layer 1
10
92.896183
20
3.088287
70
0
0
VERTEX
8
Layer 1
10
93.530091
20
3.836590
70
0
0
VERTEX
8
Layer 1
10
94.563386
20
2.034614
70
0
0
VERTEX
8
Layer 1
10
95.382171
20
0.132427
70
0
0
VERTEX
8
Layer 1
10
95.382171
20
0.132427
70
0
0
SEQEND
8
Layer 1
0
POLYLINE
8
Layer 1
62
7
70
1
10
0.000000
20
0.000000
66
1
0
VERTEX
8
Layer 1
10
-0.132292
20
21.563650
70
0
0
VERTEX
8
Layer 1
10
0.292501
20
21.220164
70
0
0
VERTEX
8
Layer 1
10
0.566390
20
20.796955
70
0
0
VERTEX
8
Layer 1
10
0.689376
20
20.294074
70
0
0
VERTEX
8
Layer 1
10
0.661458
20
19.711569
70
0
0
VERTEX
8
Layer 1
10
-0.132292
20
19.711569
70
0
0
VERTEX
8
Layer 1
10
-0.132292
20
21.563650
70
0
0
VERTEX
8
Layer 1
10
-0.132292
20
21.563650
70
0
0
SEQEND
8
Layer 1
0
POLYLINE
8
Layer 1
62
7
70
1
10
0.000000
20
0.000000
66
1
0
VERTEX
8
Layer 1
10
139.038366
20
21.299067
70
0
0
VERTEX
8
Layer 1
10
139.527270
20
21.182188
70
0
0
VERTEX
8
Layer 1
10
139.734319
20
21.010937
70
0
0
VERTEX
8
Layer 1
10
139.659537
20
20.785313
70
0
0
VERTEX
8
Layer 1
10
139.302950
20
20.505319
70
0
0
VERTEX
8
Layer 1
10
139.061021
20
20.867466
70
0
0
VERTEX
8
Layer 1
10
139.038366
20
21.299067
70
0
0
VERTEX
8
Layer 1
10
139.038366
20
21.299067
70
0
0
SEQEND
8
Layer 1
0
POLYLINE
8
Layer 1
62
7
70
1
10
0.000000
20
0.000000
66
1
0
VERTEX
8
Layer 1
10
76.596778
20
19.711569
70
0
0
VERTEX
8
Layer 1
10
76.199904
20
16.536574
70
0
0
VERTEX
8
Layer 1
10
75.827570
20
16.111951
70
0
0
VERTEX
8
Layer 1
10
75.273864
20
16.007407
70
0
0
VERTEX
8
Layer 1
10
75.104597
20
18.525510
70
0
0
VERTEX
8
Layer 1
10
75.273864
20
21.034485
70
0
0
VERTEX
8
Layer 1
10
76.011124
20
20.429582
70
0
0
VERTEX
8
Layer 1
10
76.596778
20
19.711569
70
0
0
VERTEX
8
Layer 1
10
76.596778
20
19.711569
70
0
0
SEQEND
8
Layer 1
0
POLYLINE
8
Layer 1
62
7
70
1
10
0.000000
20
0.000000
66
1
0
VERTEX
8
Layer 1
10
51.196811
20
20.769902
70
0
0
VERTEX
8
Layer 1
10
51.990560
20
20.769902
70
0
0
VERTEX
8
Layer 1
10
51.802639
20
19.864829
70
0
0
VERTEX
8
Layer 1
10
51.196811
20
19.182403
70
0
0
VERTEX
8
Layer 1
10
50.959876
20
19.979327
70
0
0
VERTEX
8
Layer 1
10
51.196811
20
20.769902
70
0
0
VERTEX
8
Layer 1
10
51.196811
20
20.769902
70
0
0
SEQEND
8
Layer 1
0
POLYLINE
8
Layer 1
62
7
70
1
10
0.000000
20
0.000000
66
1
0
VERTEX
8
Layer 1
10
97.234253
20
20.240735
70
0
0
VERTEX
8
Layer 1
10
97.595698
20
19.930669
70
0
0
VERTEX
8
Layer 1
10
97.694164
20
19.606861
70
0
0
VERTEX
8
Layer 1
10
97.529602
20
19.269261
70
0
0
VERTEX
8
Layer 1
10
97.101961
20
18.917821
70
0
0
VERTEX
8
Layer 1
10
97.008067
20
19.598824
70
0
0
VERTEX
8
Layer 1
10
97.234253
20
20.240735
70
0
0
VERTEX
8
Layer 1
10
97.234253
20
20.240735
70
0
0
SEQEND
8
Layer 1
0
POLYLINE
8
Layer 1
62
7
70
1
10
0.000000
20
0.000000
66
1
0
VERTEX
8
Layer 1
10
36.909329
20
19.446986
70
0
0
VERTEX
8
Layer 1
10
37.272303
20
19.397840
70
0
0
VERTEX
8
Layer 1
10
37.570786
20
19.182403
70
0
0
VERTEX
8
Layer 1
10
37.668649
20
18.180891
70
0
0
VERTEX
8
Layer 1
10
37.438495
20
17.198031
70
0
0
VERTEX
8
Layer 1
10
37.823711
20
16.053048
70
0
0
VERTEX
8
Layer 1
10
37.885970
20
14.943784
70
0
0
VERTEX
8
Layer 1
10
37.625274
20
13.870238
70
0
0
VERTEX
8
Layer 1
10
37.041620
20
12.832411
70
0
0
VERTEX
8
Layer 1
10
36.341137
20
13.968663
70
0
0
VERTEX
8
Layer 1
10
35.850997
20
15.213658
70
0
0
VERTEX
8
Layer 1
10
36.544469
20
17.290734
70
0
0
VERTEX
8
Layer 1
10
36.909329
20
19.446986
70
0
0
VERTEX
8
Layer 1
10
36.909329
20
19.446986
70
0
0
SEQEND
8
Layer 1
0
POLYLINE
8
Layer 1
62
7
70
1
10
0.000000
20
0.000000
66
1
0
VERTEX
8
Layer 1
10
17.859352
20
18.917821
70
0
0
VERTEX
8
Layer 1
10
18.653102
20
18.917821
70
0
0
VERTEX
8
Layer 1
10
18.505464
20
18.108428
70
0
0
VERTEX
8
Layer 1
10
17.859352
20
17.594905
70
0
0
VERTEX
8
Layer 1
10
17.627895
20
18.256462
70
0
0
VERTEX
8
Layer 1
10
17.859352
20
18.917821
70
0
0
VERTEX
8
Layer 1
10
17.859352
20
18.917821
70
0
0
SEQEND
8
Layer 1
0
POLYLINE
8
Layer 1
62
7
70
1
10
0.000000
20
0.000000
66
1
0
VERTEX
8
Layer 1
10
59.663467
20
0.132427
70
0
0
VERTEX
8
Layer 1
10
55.165556
20
0.132427
70
0
0
VERTEX
8
Layer 1
10
55.297847
20
1.719926
70
0
0
VERTEX
8
Layer 1
10
56.520386
20
3.738396
70
0
0
VERTEX
8
Layer 1
10
58.208260
20
5.424087
70
0
0
VERTEX
8
Layer 1
10
58.626797
20
6.721999
70
0
0
VERTEX
8
Layer 1
10
58.869718
20
8.069918
70
0
0
VERTEX
8
Layer 1
10
58.282178
20
10.155725
70
0
0
VERTEX
8
Layer 1
10
57.943677
20
12.303246
70
0
0
VERTEX
8
Layer 1
10
56.338849
20
14.440778
70
0
0
VERTEX
8
Layer 1
10
55.033264
20
16.801157
70
0
0
VERTEX
8
Layer 1
10
54.906033
20
17.610582
70
0
0
VERTEX
8
Layer 1
10
55.165556
20
18.388655
70
0
0
VERTEX
8
Layer 1
10
56.553393
20
17.716283
70
0
0
VERTEX
8
Layer 1
10
58.075969
20
17.462614
70
0
0
VERTEX
8
Layer 1
10
58.869718
20
16.139699
70
0
0
VERTEX
8
Layer 1
10
59.795758
20
16.007407
70
0
0
VERTEX
8
Layer 1
10
64.690544
20
17.594905
70
0
0
VERTEX
8
Layer 1
10
64.598601
20
16.922203
70
0
0
VERTEX
8
Layer 1
10
64.161378
20
16.404282
70
0
0
VERTEX
8
Layer 1
10
62.061151
20
15.222224
70
0
0
VERTEX
8
Layer 1
10
60.060341
20
13.890743
70
0
0
VERTEX
8
Layer 1
10
59.980966
20
11.484097
70
0
0
VERTEX
8
Layer 1
10
60.457216
20
9.128249
70
0
0
VERTEX
8
Layer 1
10
59.531175
20
7.540751
70
0
0
VERTEX
8
Layer 1
10
59.259622
20
5.685719
70
0
0
VERTEX
8
Layer 1
10
59.191120
20
3.832621
70
0
0
VERTEX
8
Layer 1
10
59.325718
20
1.981507
70
0
0
VERTEX
8
Layer 1
10
59.663467
20
0.132427
70
0
0
VERTEX
8
Layer 1
10
59.663467
20
0.132427
70
0
0
SEQEND
8
Layer 1
0
POLYLINE
8
Layer 1
62
7
70
1
10
0.000000
20
0.000000
66
1
0
VERTEX
8
Layer 1
10
137.980035
20
17.859488
70
0
0
VERTEX
8
Layer 1
10
139.302950
20
15.875116
70
0
0
VERTEX
8
Layer 1
10
140.790481
20
15.302376
70
0
0
VERTEX
8
Layer 1
10
141.837555
20
14.383860
70
0
0
VERTEX
8
Layer 1
10
142.444149
20
13.119567
70
0
0
VERTEX
8
Layer 1
10
142.610237
20
11.509496
70
0
0
VERTEX
8
Layer 1
10
143.628915
20
10.321056
70
0
0
VERTEX
8
Layer 1
10
144.233057
20
8.998868
70
0
0
VERTEX
8
Layer 1
10
144.422664
20
7.542934
70
0
0
VERTEX
8
Layer 1
10
144.197735
20
5.953254
70
0
0
VERTEX
8
Layer 1
10
142.742529
20
5.556379
70
0
0
VERTEX
8
Layer 1
10
140.817621
20
3.631736
70
0
0
VERTEX
8
Layer 1
10
139.038366
20
1.587634
70
0
0
VERTEX
8
Layer 1
10
138.423616
20
1.115647
70
0
0
VERTEX
8
Layer 1
10
137.843840
20
0.980383
70
0
0
VERTEX
8
Layer 1
10
137.299089
20
1.181817
70
0
0
VERTEX
8
Layer 1
10
136.789411
20
1.719926
70
0
0
VERTEX
8
Layer 1
10
136.743721
20
3.037950
70
0
0
VERTEX
8
Layer 1
10
136.530054
20
4.315121
70
0
0
VERTEX
8
Layer 1
10
136.148409
20
5.551464
70
0
0
VERTEX
8
Layer 1
10
135.598788
20
6.747002
70
0
0
VERTEX
8
Layer 1
10
135.863371
20
7.408460
70
0
0
VERTEX
8
Layer 1
10
135.352031
20
9.577974
70
0
0
VERTEX
8
Layer 1
10
135.334204
20
11.774079
70
0
0
VERTEX
8
Layer 1
10
135.938413
20
13.454479
70
0
0
VERTEX
8
Layer 1
10
136.260245
20
15.213658
70
0
0
VERTEX
8
Layer 1
10
137.980035
20
17.859488
70
0
0
VERTEX
8
Layer 1
10
137.980035
20
17.859488
70
0
0
SEQEND
8
Layer 1
0
POLYLINE
8
Layer 1
62
7
70
1
10
0.000000
20
0.000000
66
1
0
VERTEX
8
Layer 1
10
44.053069
20
15.742824
70
0
0
VERTEX
8
Layer 1
10
44.784414
20
15.558175
70
0
0
VERTEX
8
Layer 1
10
45.270714
20
15.187961
70
0
0
VERTEX
8
Layer 1
10
45.511993
20
14.632159
70
0
0
VERTEX
8
Layer 1
10
45.508276
20
13.890743
70
0
0
VERTEX
8
Layer 1
10
45.255665
20
12.975646
70
0
0
VERTEX
8
Layer 1
10
44.840733
20
12.163513
70
0
0
VERTEX
8
Layer 1
10
44.263479
20
11.454319
70
0
0
VERTEX
8
Layer 1
10
43.523904
20
10.848039
70
0
0
VERTEX
8
Layer 1
10
42.973587
20
10.737658
70
0
0
VERTEX
8
Layer 1
10
42.525566
20
10.833156
70
0
0
VERTEX
8
Layer 1
10
42.179838
20
11.134533
70
0
0
VERTEX
8
Layer 1
10
41.936405
20
11.641788
70
0
0
VERTEX
8
Layer 1
10
44.053069
20
15.742824
70
0
0
VERTEX
8
Layer 1
10
44.053069
20
15.742824
70
0
0
SEQEND
8
Layer 1
0
POLYLINE
8
Layer 1
62
7
70
1
10
0.000000
20
0.000000
66
1
0
VERTEX
8
Layer 1
10
145.917525
20
14.684493
70
0
0
VERTEX
8
Layer 1
10
146.389011
20
14.442846
70
0
0
VERTEX
8
Layer 1
10
146.744611
20
14.097714
70
0
0
VERTEX
8
Layer 1
10
147.108148
20
13.096994
70
0
0
VERTEX
8
Layer 1
10
147.240506
20
12.303246
70
0
0
VERTEX
8
Layer 1
10
147.108148
20
11.509496
70
0
0
VERTEX
8
Layer 1
10
146.578982
20
11.244980
70
0
0
VERTEX
8
Layer 1
10
146.049816
20
11.509496
70
0
0
VERTEX
8
Layer 1
10
145.588950
20
12.299674
70
0
0
VERTEX
8
Layer 1
10
145.413262
20
13.092232
70
0
0
VERTEX
8
Layer 1
10
145.522779
20
13.887172
70
0
0
VERTEX
8
Layer 1
10
145.917525
20
14.684493
70
0
0
VERTEX
8
Layer 1
10
145.917525
20
14.684493
70
0
0
SEQEND
8
Layer 1
0
POLYLINE
8
Layer 1
62
7
70
1
10
0.000000
20
0.000000
66
1
0
VERTEX
8
Layer 1
10
26.326009
20
0.132427
70
0
0
VERTEX
8
Layer 1
10
22.886430
20
0.132427
70
0
0
VERTEX
8
Layer 1
10
22.357264
20
2.249091
70
0
0
VERTEX
8
Layer 1
10
22.886430
20
3.572007
70
0
0
VERTEX
8
Layer 1
10
22.754138
20
8.334501
70
0
0
VERTEX
8
Layer 1
10
21.960389
20
9.657415
70
0
0
VERTEX
8
Layer 1
10
21.499459
20
11.710447
70
0
0
VERTEX
8
Layer 1
10
20.769766
20
13.626160
70
0
0
VERTEX
8
Layer 1
10
21.563515
20
13.493869
70
0
0
VERTEX
8
Layer 1
10
22.621847
20
11.906371
70
0
0
VERTEX
8
Layer 1
10
23.528285
20
11.517070
70
0
0
VERTEX
8
Layer 1
10
24.341636
20
10.980330
70
0
0
VERTEX
8
Layer 1
10
24.609024
20
9.775750
70
0
0
VERTEX
8
Layer 1
10
25.399968
20
8.863666
70
0
0
VERTEX
8
Layer 1
10
25.863503
20
6.696186
70
0
0
VERTEX
8
Layer 1
10
26.172352
20
4.518486
70
0
0
VERTEX
8
Layer 1
10
26.326519
20
2.330567
70
0
0
VERTEX
8
Layer 1
10
26.326009
20
0.132427
70
0
0
VERTEX
8
Layer 1
10
26.326009
20
0.132427
70
0
0
SEQEND
8
Layer 1
0
POLYLINE
8
Layer 1
62
7
70
1
10
0.000000
20
0.000000
66
1
0
VERTEX
8
Layer 1
10
78.978026
20
13.626160
70
0
0
VERTEX
8
Layer 1
10
80.680187
20
13.588887
70
0
0
VERTEX
8
Layer 1
10
82.285313
20
13.096994
70
0
0
VERTEX
8
Layer 1
10
82.286057
20
12.040312
70
0
0
VERTEX
8
Layer 1
10
82.087868
20
11.048692
70
0
0
VERTEX
8
Layer 1
10
81.690745
20
10.122110
70
0
0
VERTEX
8
Layer 1
10
81.094690
20
9.260541
70
0
0
VERTEX
8
Layer 1
10
80.374197
20
9.235935
70
0
0
VERTEX
8
Layer 1
10
79.771775
20
9.657415
70
0
0
VERTEX
8
Layer 1
10
79.443902
20
9.334008
70
0
0
VERTEX
8
Layer 1
10
79.092094
20
9.182125
70
0
0
VERTEX
8
Layer 1
10
78.716324
20
9.201742
70
0
0
VERTEX
8
Layer 1
10
78.316568
20
9.392832
70
0
0
VERTEX
8
Layer 1
10
78.842460
20
11.431015
70
0
0
VERTEX
8
Layer 1
10
78.978026
20
13.626160
70
0
0
VERTEX
8
Layer 1
10
78.978026
20
13.626160
70
0
0
SEQEND
8
Layer 1
0
POLYLINE
8
Layer 1
62
7
70
1
10
0.000000
20
0.000000
66
1
0
VERTEX
8
Layer 1
10
-0.132292
20
13.361577
70
0
0
VERTEX
8
Layer 1
10
1.556235
20
13.073215
70
0
0
VERTEX
8
Layer 1
10
3.042705
20
12.303246
70
0
0
VERTEX
8
Layer 1
10
1.576926
20
11.064633
70
0
0
VERTEX
8
Layer 1
10
-0.132292
20
10.186582
70
0
0
VERTEX
8
Layer 1
10
-0.132292
20
13.361577
70
0
0
VERTEX
8
Layer 1
10
-0.132292
20
13.361577
70
0
0
SEQEND
8
Layer 1
0
POLYLINE
8
Layer 1
62
7
70
1
10
0.000000
20
0.000000
66
1
0
VERTEX
8
Layer 1
10
117.342561
20
11.774079
70
0
0
VERTEX
8
Layer 1
10
118.554814
20
11.610997
70
0
0
VERTEX
8
Layer 1
10
119.723808
20
11.244913
70
0
0
VERTEX
8
Layer 1
10
119.683889
20
9.492580
70
0
0
VERTEX
8
Layer 1
10
119.062350
20
7.805335
70
0
0
VERTEX
8
Layer 1
10
118.268601
20
7.276168
70
0
0
VERTEX
8
Layer 1
10
116.681103
20
9.392832
70
0
0
VERTEX
8
Layer 1
10
116.540750
20
10.104528
70
0
0
VERTEX
8
Layer 1
10
116.604242
20
10.738634
70
0
0
VERTEX
8
Layer 1
10
116.871528
20
11.295151
70
0
0
VERTEX
8
Layer 1
10
117.342561
20
11.774079
70
0
0
VERTEX
8
Layer 1
10
117.342561
20
11.774079
70
0
0
SEQEND
8
Layer 1
0
POLYLINE
8
Layer 1
62
7
70
1
10
0.000000
20
0.000000
66
1
0
VERTEX
8
Layer 1
10
138.773784
20
11.244913
70
0
0
VERTEX
8
Layer 1
10
139.336899
20
11.272302
70
0
0
VERTEX
8
Layer 1
10
139.789187
20
11.127075
70
0
0
VERTEX
8
Layer 1
10
140.130648
20
10.809257
70
0
0
VERTEX
8
Layer 1
10
140.361282
20
10.318873
70
0
0
VERTEX
8
Layer 1
10
140.262311
20
9.647667
70
0
0
VERTEX
8
Layer 1
10
140.030883
20
9.313656
70
0
0
VERTEX
8
Layer 1
10
139.666999
20
9.316889
70
0
0
VERTEX
8
Layer 1
10
139.170658
20
9.657415
70
0
0
VERTEX
8
Layer 1
10
138.847602
20
10.420407
70
0
0
VERTEX
8
Layer 1
10
138.773784
20
11.244913
70
0
0
VERTEX
8
Layer 1
10
138.773784
20
11.244913
70
0
0
SEQEND
8
Layer 1
0
POLYLINE
8
Layer 1
62
7
70
1
10
0.000000
20
0.000000
66
1
0
VERTEX
8
Layer 1
10
33.998916
20
10.715747
70
0
0
VERTEX
8
Layer 1
10
34.483801
20
10.446311
70
0
0
VERTEX
8
Layer 1
10
34.689510
20
10.136046
70
0
0
VERTEX
8
Layer 1
10
34.616068
20
9.784903
70
0
0
VERTEX
8
Layer 1
10
34.263499
20
9.392832
70
0
0
VERTEX
8
Layer 1
10
34.008474
20
10.030180
70
0
0
VERTEX
8
Layer 1
10
33.998916
20
10.715747
70
0
0
VERTEX
8
Layer 1
10
33.998916
20
10.715747
70
0
0
SEQEND
8
Layer 1
0
POLYLINE
8
Layer 1
62
7
70
1
10
0.000000
20
0.000000
66
1
0
VERTEX
8
Layer 1
10
53.842641
20
10.451165
70
0
0
VERTEX
8
Layer 1
10
54.504098
20
9.921999
70
0
0
VERTEX
8
Layer 1
10
54.633413
20
8.851661
70
0
0
VERTEX
8
Layer 1
10
54.371807
20
7.805335
70
0
0
VERTEX
8
Layer 1
10
53.709030
20
8.369397
70
0
0
VERTEX
8
Layer 1
10
53.399894
20
8.998372
70
0
0
VERTEX
8
Layer 1
10
53.444422
20
9.692287
70
0
0
VERTEX
8
Layer 1
10
53.842641
20
10.451165
70
0
0
VERTEX
8
Layer 1
10
53.842641
20
10.451165
70
0
0
SEQEND
8
Layer 1
0
POLYLINE
8
Layer 1
62
7
70
1
10
0.000000
20
0.000000
66
1
0
VERTEX
8
Layer 1
10
108.875905
20
9.128249
70
0
0
VERTEX
8
Layer 1
10
109.563994
20
8.827865
70
0
0
VERTEX
8
Layer 1
10
110.013810
20
8.397008
70
0
0
VERTEX
8
Layer 1
10
110.225402
20
7.835679
70
0
0
VERTEX
8
Layer 1
10
110.198819
20
7.143877
70
0
0
VERTEX
8
Layer 1
10
109.265610
20
7.208220
70
0
0
VERTEX
8
Layer 1
10
108.734088
20
7.560397
70
0
0
VERTEX
8
Layer 1
10
108.604203
20
8.200407
70
0
0
VERTEX
8
Layer 1
10
108.875905
20
9.128249
70
0
0
VERTEX
8
Layer 1
10
108.875905
20
9.128249
70
0
0
SEQEND
8
Layer 1
0
POLYLINE
8
Layer 1
62
7
70
1
10
0.000000
20
0.000000
66
1
0
VERTEX
8
Layer 1
10
46.434317
20
0.132427
70
0
0
VERTEX
8
Layer 1
10
44.582236
20
0.132427
70
0
0
VERTEX
8
Layer 1
10
44.769924
20
1.148029
70
0
0
VERTEX
8
Layer 1
10
45.111401
20
2.116800
70
0
0
VERTEX
8
Layer 1
10
44.303067
20
2.824865
70
0
0
VERTEX
8
Layer 1
10
43.504457
20
3.038872
70
0
0
VERTEX
8
Layer 1
10
42.715569
20
2.758769
70
0
0
VERTEX
8
Layer 1
10
41.936405
20
1.984509
70
0
0
VERTEX
8
Layer 1
10
41.407240
20
0.132427
70
0
0
VERTEX
8
Layer 1
10
39.025993
20
0.132427
70
0
0
VERTEX
8
Layer 1
10
38.600146
20
1.778861
70
0
0
VERTEX
8
Layer 1
10
37.835369
20
3.307423
70
0
0
VERTEX
8
Layer 1
10
37.173912
20
6.747002
70
0
0
VERTEX
8
Layer 1
10
37.293735
20
7.470869
70
0
0
VERTEX
8
Layer 1
10
37.703077
20
8.069918
70
0
0
VERTEX
8
Layer 1
10
39.819741
20
8.863666
70
0
0
VERTEX
8
Layer 1
10
40.481199
20
8.334501
70
0
0
VERTEX
8
Layer 1
10
40.721808
20
7.564911
70
0
0
VERTEX
8
Layer 1
10
41.110675
20
6.911507
70
0
0
VERTEX
8
Layer 1
10
41.647824
20
6.374288
70
0
0
VERTEX
8
Layer 1
10
42.333280
20
5.953254
70
0
0
VERTEX
8
Layer 1
10
42.492977
20
5.217299
70
0
0
VERTEX
8
Layer 1
10
42.788727
20
4.575107
70
0
0
VERTEX
8
Layer 1
10
43.220555
20
4.026676
70
0
0
VERTEX
8
Layer 1
10
43.788487
20
3.572007
70
0
0
VERTEX
8
Layer 1
10
44.497172
20
3.882561
70
0
0
VERTEX
8
Layer 1
10
45.111401
20
4.365755
70
0
0
VERTEX
8
Layer 1
10
45.998681
20
2.324895
70
0
0
VERTEX
8
Layer 1
10
46.434317
20
0.132427
70
0
0
VERTEX
8
Layer 1
10
46.434317
20
0.132427
70
0
0
SEQEND
8
Layer 1
0
POLYLINE
8
Layer 1
62
7
70
1
10
0.000000
20
0.000000
66
1
0
VERTEX
8
Layer 1
10
154.119597
20
8.863666
70
0
0
VERTEX
8
Layer 1
10
154.481043
20
8.553600
70
0
0
VERTEX
8
Layer 1
10
154.579509
20
8.229792
70
0
0
VERTEX
8
Layer 1
10
154.414947
20
7.892192
70
0
0
VERTEX
8
Layer 1
10
153.987306
20
7.540751
70
0
0
VERTEX
8
Layer 1
10
153.727399
20
7.887318
70
0
0
VERTEX
8
Layer 1
10
153.662828
20
8.223343
70
0
0
VERTEX
8
Layer 1
10
153.793569
20
8.548800
70
0
0
VERTEX
8
Layer 1
10
154.119597
20
8.863666
70
0
0
VERTEX
8
Layer 1
10
154.119597
20
8.863666
70
0
0
SEQEND
8
Layer 1
0
POLYLINE
8
Layer 1
62
7
70
1
10
0.000000
20
0.000000
66
1
0
VERTEX
8
Layer 1
10
103.055079
20
8.334501
70
0
0
VERTEX
8
Layer 1
10
104.377994
20
8.334501
70
0
0
VERTEX
8
Layer 1
10
104.312600
20
7.760827
70
0
0
VERTEX
8
Layer 1
10
104.070350
20
7.393180
70
0
0
VERTEX
8
Layer 1
10
103.651192
20
7.231611
70
0
0
VERTEX
8
Layer 1
10
103.055079
20
7.276168
70
0
0
VERTEX
8
Layer 1
10
103.055079
20
8.334501
70
0
0
VERTEX
8
Layer 1
10
103.055079
20
8.334501
70
0
0
SEQEND
8
Layer 1
0
POLYLINE
8
Layer 1
62
7
70
1
10
0.000000
20
0.000000
66
1
0
VERTEX
8
Layer 1
10
28.707256
20
0.132427
70
0
0
VERTEX
8
Layer 1
10
27.913507
20
0.132427
70
0
0
VERTEX
8
Layer 1
10
27.507901
20
3.693384
70
0
0
VERTEX
8
Layer 1
10
27.516632
20
7.276168
70
0
0
VERTEX
8
Layer 1
10
28.039018
20
7.335646
70
0
0
VERTEX
8
Layer 1
10
28.411584
20
7.179100
70
0
0
VERTEX
8
Layer 1
10
28.634330
20
6.806505
70
0
0
VERTEX
8
Layer 1
10
28.707256
20
6.217837
70
0
0
VERTEX
8
Layer 1
10
28.398884
20
4.901271
70
0
0
VERTEX
8
Layer 1
10
28.310381
20
3.572007
70
0
0
VERTEX
8
Layer 1
10
29.501005
20
1.984509
70
0
0
VERTEX
8
Layer 1
10
28.707256
20
0.132427
70
0
0
VERTEX
8
Layer 1
10
28.707256
20
0.132427
70
0
0
SEQEND
8
Layer 1
0
POLYLINE
8
Layer 1
62
7
70
1
10
0.000000
20
0.000000
66
1
0
VERTEX
8
Layer 1
10
-0.132292
20
7.011585
70
0
0
VERTEX
8
Layer 1
10
0.596568
20
6.326973
70
0
0
VERTEX
8
Layer 1
10
0.839521
20
5.657814
70
0
0
VERTEX
8
Layer 1
10
0.596568
20
5.004083
70
0
0
VERTEX
8
Layer 1
10
-0.132292
20
4.365755
70
0
0
VERTEX
8
Layer 1
10
-0.132292
20
7.011585
70
0
0
VERTEX
8
Layer 1
10
-0.132292
20
7.011585
70
0
0
SEQEND
8
Layer 1
0
POLYLINE
8
Layer 1
62
7
70
1
10
0.000000
20
0.000000
66
1
0
VERTEX
8
Layer 1
10
86.386350
20
0.132427
70
0
0
VERTEX
8
Layer 1
10
84.798851
20
0.132427
70
0
0
VERTEX
8
Layer 1
10
85.063434
20
1.852217
70
0
0
VERTEX
8
Layer 1
10
84.005103
20
5.953254
70
0
0
VERTEX
8
Layer 1
10
84.666560
20
6.747002
70
0
0
VERTEX
8
Layer 1
10
87.180098
20
6.085545
70
0
0
VERTEX
8
Layer 1
10
87.644905
20
4.967219
70
0
0
VERTEX
8
Layer 1
10
87.709265
20
3.836590
70
0
0
VERTEX
8
Layer 1
10
87.397023
20
4.204641
70
0
0
VERTEX
8
Layer 1
10
87.094506
20
4.327325
70
0
0
VERTEX
8
Layer 1
10
86.801712
20
4.204641
70
0
0
VERTEX
8
Layer 1
10
86.518641
20
3.836590
70
0
0
VERTEX
8
Layer 1
10
86.586143
20
1.979548
70
0
0
VERTEX
8
Layer 1
10
86.386350
20
0.132427
70
0
0
VERTEX
8
Layer 1
10
86.386350
20
0.132427
70
0
0
SEQEND
8
Layer 1
0
POLYLINE
8
Layer 1
62
7
70
1
10
0.000000
20
0.000000
66
1
0
VERTEX
8
Layer 1
10
39.025993
20
6.482419
70
0
0
VERTEX
8
Layer 1
10
39.515736
20
6.194785
70
0
0
VERTEX
8
Layer 1
10
39.745129
20
5.834323
70
0
0
VERTEX
8
Layer 1
10
39.714173
20
5.401036
70
0
0
VERTEX
8
Layer 1
10
39.422867
20
4.894921
70
0
0
VERTEX
8
Layer 1
10
39.029118
20
5.230479
70
0
0
VERTEX
8
Layer 1
10
38.831722
20
5.606914
70
0
0
VERTEX
8
Layer 1
10
38.830681
20
6.024228
70
0
0
VERTEX
8
Layer 1
10
39.025993
20
6.482419
70
0
0
VERTEX
8
Layer 1
10
39.025993
20
6.482419
70
0
0
SEQEND
8
Layer 1
0
POLYLINE
8
Layer 1
62
7
70
1
10
0.000000
20
0.000000
66
1
0
VERTEX
8
Layer 1
10
10.980194
20
0.132427
70
0
0
VERTEX
8
Layer 1
10
9.921862
20
0.132427
70
0
0
VERTEX
8
Layer 1
10
9.443946
20
2.229545
70
0
0
VERTEX
8
Layer 1
10
9.128114
20
4.365755
70
0
0
VERTEX
8
Layer 1
10
10.001462
20
4.408056
70
0
0
VERTEX
8
Layer 1
10
10.847903
20
4.630338
70
0
0
VERTEX
8
Layer 1
10
11.491891
20
4.255333
70
0
0
VERTEX
8
Layer 1
10
11.971137
20
3.777587
70
0
0
VERTEX
8
Layer 1
10
12.285640
20
3.197051
70
0
0
VERTEX
8
Layer 1
10
12.435401
20
2.513674
70
0
0
VERTEX
8
Layer 1
10
11.768201
20
2.105588
70
0
0
VERTEX
8
Layer 1
10
11.303264
20
1.572685
70
0
0
VERTEX
8
Layer 1
10
11.040593
20
0.914965
70
0
0
VERTEX
8
Layer 1
10
10.980194
20
0.132427
70
0
0
VERTEX
8
Layer 1
10
10.980194
20
0.132427
70
0
0
SEQEND
8
Layer 1
0
POLYLINE
8
Layer 1
62
7
70
1
10
0.000000
20
0.000000
66
1
0
VERTEX
8
Layer 1
10
123.692553
20
0.132427
70
0
0
VERTEX
8
Layer 1
10
122.105055
20
0.132427
70
0
0
VERTEX
8
Layer 1
10
122.237346
20
2.513674
70
0
0
VERTEX
8
Layer 1
10
123.692553
20
4.365755
70
0
0
VERTEX
8
Layer 1
10
124.111718
20
4.001061
70
0
0
VERTEX
8
Layer 1
10
124.221719
20
3.439715
70
0
0
VERTEX
8
Layer 1
10
123.800072
20
1.811174
70
0
0
VERTEX
8
Layer 1
10
123.692553
20
0.132427
70
0
0
VERTEX
8
Layer 1
10
123.692553
20
0.132427
70
0
0
SEQEND
8
Layer 1
0
POLYLINE
8
Layer 1
62
7
70
1
10
0.000000
20
0.000000
66
1
0
VERTEX
8
Layer 1
10
10.186446
20
4.101173
70
0
0
VERTEX
8
Layer 1
10
10.432534
20
3.753709
70
0
0
VERTEX
8
Layer 1
10
10.318737
20
3.307423
70
0
0
VERTEX
8
Layer 1
10
9.942692
20
3.674929
70
0
0
VERTEX
8
Layer 1
10
10.186446
20
4.101173
70
0
0
VERTEX
8
Layer 1
10
10.186446
20
4.101173
70
0
0
SEQEND
8
Layer 1
0
POLYLINE
8
Layer 1
62
7
70
1
10
0.000000
20
0.000000
66
1
0
VERTEX
8
Layer 1
10
19.711434
20
0.132427
70
0
0
VERTEX
8
Layer 1
10
16.271854
20
0.132427
70
0
0
VERTEX
8
Layer 1
10
17.462478
20
1.455343
70
0
0
VERTEX
8
Layer 1
10
17.966687
20
2.711252
70
0
0
VERTEX
8
Layer 1
10
18.653102
20
3.836590
70
0
0
VERTEX
8
Layer 1
10
19.145757
20
2.992677
70
0
0
VERTEX
8
Layer 1
10
19.486363
20
2.094046
70
0
0
VERTEX
8
Layer 1
10
19.674921
20
1.140646
70
0
0
VERTEX
8
Layer 1
10
19.711434
20
0.132427
70
0
0
VERTEX
8
Layer 1
10
19.711434
20
0.132427
70
0
0
SEQEND
8
Layer 1
0
POLYLINE
8
Layer 1
62
7
70
1
10
0.000000
20
0.000000
66
1
0
VERTEX
8
Layer 1
10
153.855015
20
0.132427
70
0
0
VERTEX
8
Layer 1
10
152.796683
20
0.132427
70
0
0
VERTEX
8
Layer 1
10
152.941939
20
2.050588
70
0
0
VERTEX
8
Layer 1
10
153.590431
20
3.836590
70
0
0
VERTEX
8
Layer 1
10
154.119597
20
2.778257
70
0
0
VERTEX
8
Layer 1
10
153.871419
20
1.470325
70
0
0
VERTEX
8
Layer 1
10
153.855015
20
0.132427
70
0
0
VERTEX
8
Layer 1
10
153.855015
20
0.132427
70
0
0
SEQEND
8
Layer 1
0
POLYLINE
8
Layer 1
62
7
70
1
10
0.000000
20
0.000000
66
1
0
VERTEX
8
Layer 1
10
69.982203
20
3.572007
70
0
0
VERTEX
8
Layer 1
10
70.342532
20
3.348930
70
0
0
VERTEX
8
Layer 1
10
70.511370
20
2.910549
70
0
0
VERTEX
8
Layer 1
10
70.401369
20
2.349203
70
0
0
VERTEX
8
Layer 1
10
69.982203
20
1.984509
70
0
0
VERTEX
8
Layer 1
10
69.745269
20
2.781432
70
0
0
VERTEX
8
Layer 1
10
69.982203
20
3.572007
70
0
0
VERTEX
8
Layer 1
10
69.982203
20
3.572007
70
0
0
SEQEND
8
Layer 1
0
POLYLINE
8
Layer 1
62
7
70
1
10
0.000000
20
0.000000
66
1
0
VERTEX
8
Layer 1
10
44.582236
20
0.132427
70
0
0
VERTEX
8
Layer 1
10
41.407240
20
0.132427
70
0
0
VERTEX
8
Layer 1
10
41.936405
20
1.984509
70
0
0
VERTEX
8
Layer 1
10
42.715569
20
2.758769
70
0
0
VERTEX
8
Layer 1
10
43.504457
20
3.038872
70
0
0
VERTEX
8
Layer 1
10
44.303067
20
2.824865
70
0
0
VERTEX
8
Layer 1
10
45.111401
20
2.116800
70
0
0
VERTEX
8
Layer 1
10
44.769924
20
1.148029
70
0
0
VERTEX
8
Layer 1
10
44.582236
20
0.132427
70
0
0
VERTEX
8
Layer 1
10
44.582236
20
0.132427
70
0
0
SEQEND
8
Layer 1
0
POLYLINE
8
Layer 1
62
7
70
1
10
0.000000
20
0.000000
66
1
0
VERTEX
8
Layer 1
10
137.980035
20
0.132427
70
0
0
VERTEX
8
Layer 1
10
136.392537
20
0.132427
70
0
0
VERTEX
8
Layer 1
10
136.789411
20
0.529352
70
0
0
VERTEX
8
Layer 1
10
137.186285
20
0.661660
70
0
0
VERTEX
8
Layer 1
10
137.583160
20
0.529352
70
0
0
VERTEX
8
Layer 1
10
137.980035
20
0.132427
70
0
0
VERTEX
8
Layer 1
10
137.980035
20
0.132427
70
0
0
SEQEND
8
Layer 1
 0 
ENDSEC
 0 
EOF